<?xml version="1.0" encoding="UTF-8" standalone="no"?>
<svg
   xmlns:dc="http://purl.org/dc/elements/1.1/"
   xmlns:cc="http://creativecommons.org/ns#"
   xmlns:rdf="http://www.w3.org/1999/02/22-rdf-syntax-ns#"
   xmlns:svg="http://www.w3.org/2000/svg"
   xmlns="http://www.w3.org/2000/svg"
   id="svg8289"
   version="1.1"
   viewBox="0 0 22.43726 33.959152"
   height="33.959152mm"
   width="22.43726mm">
  <defs
     id="defs8283" />
  <metadata
     id="metadata8286">
    <rdf:RDF>
      <cc:Work
         rdf:about="">
        <dc:format>image/svg+xml</dc:format>
        <dc:type
           rdf:resource="http://purl.org/dc/dcmitype/StillImage" />
        <dc:title></dc:title>
      </cc:Work>
    </rdf:RDF>
  </metadata>
  <g
     transform="translate(31.629344,-35.847805)"
     id="layer1">
    <g
       transform="matrix(0.35277777,0,0,-0.35277777,-13.654827,56.490762)"
       id="g4687">
      <path
         id="path4689"
         style="fill:#b24d26;fill-opacity:1;fill-rule:evenodd;stroke:none"
         d="m 0,0 c -0.26,-0.144 -3.997,-4.505 -3.997,-4.505 0,0 -4.957,3.276 -15.254,3.161 -10.298,-0.116 -14.624,-3.049 -14.624,-3.049 0,0 -2.825,2.114 -3.979,6.096 -1.154,3.981 -2.144,15.6 -1.558,15.753 0.586,0.153 42.413,0.519 42.413,0.519 z" />
    </g>
    <g
       transform="matrix(0.35277777,0,0,-0.35277777,-17.140623,63.328794)"
       id="g4691">
      <path
         id="path4693"
         style="fill:#f5b67e;fill-opacity:1;fill-rule:evenodd;stroke:none"
         d="m 0,0 c 0.462,0.346 10.48,7.913 10.48,7.913 4.59,-1.515 5.915,-14.535 6.382,-20.607 H 5.894 Z" />
    </g>
    <g
       transform="matrix(0.35277777,0,0,-0.35277777,-15.464612,62.039887)"
       id="g4695">
      <path
         id="path4697"
         style="fill:#d8465e;fill-opacity:1;fill-rule:evenodd;stroke:none"
         d="M 0,0 5.723,4.322 C 9.764,2.989 11.274,-7.259 11.896,-13.836 H 0 Z" />
    </g>
    <g
       transform="matrix(0.35277777,0,0,-0.35277777,-20.457122,57.507574)"
       id="g4699">
      <path
         id="path4701"
         style="fill:#f5b67e;fill-opacity:1;fill-rule:evenodd;stroke:none"
         d="m 0,0 h -4.841 v -3.056 c 0.003,-1.9 -0.313,-1.505 -2.087,-2.492 0,0 -1.711,-1.403 -2.232,-1.57 2.151,-6.925 3.706,-15.83 7.911,-22.077 H 0 1.249 c 4.205,6.247 5.76,15.152 7.911,22.077 -0.521,0.167 -2.232,1.57 -2.232,1.57 -1.774,0.987 -2.09,0.592 -2.087,2.492 V 0 Z" />
    </g>
    <g
       transform="matrix(0.35277777,0,0,-0.35277777,-23.680805,63.328794)"
       id="g4703">
      <path
         id="path4705"
         style="fill:#f5b67e;fill-opacity:1;fill-rule:evenodd;stroke:none"
         d="m 0,0 c -0.462,0.346 -10.48,7.913 -10.48,7.913 -4.591,-1.515 -5.915,-14.535 -6.382,-20.607 h 10.968 z" />
    </g>
    <g
       transform="matrix(0.35277777,0,0,-0.35277777,-25.35883,62.062075)"
       id="g4707">
      <path
         id="path4709"
         style="fill:#d8465e;fill-opacity:1;fill-rule:evenodd;stroke:none"
         d="M 0,0 -5.723,4.322 C -9.764,2.989 -11.274,-7.259 -11.897,-13.836 H 0 Z" />
    </g>
    <g
       transform="matrix(0.35277777,0,0,-0.35277777,-21.515104,61.872882)"
       id="g4711">
      <path
         id="path4713"
         style="fill:#e8556b;fill-opacity:1;fill-rule:evenodd;stroke:none"
         d="M 0,0 C -4.261,1.564 -4.794,6.132 -3.931,6.801 -5.829,5.936 -11.467,5.078 -14.735,4.321 l -0.055,-0.012 -0.054,-0.013 -0.054,-0.013 -0.054,-0.012 -0.053,-0.013 -0.052,-0.013 -0.104,-0.025 -0.051,-0.012 -0.05,-0.013 -0.05,-0.013 h -0.003 L -15.362,4.17 -15.411,4.157 -15.459,4.145 -15.507,4.132 -15.554,4.12 -15.601,4.107 -15.726,4.074 -15.738,4.071 -15.783,4.058 -15.826,4.046 -15.87,4.033 -15.912,4.021 -15.955,4.009 -15.996,3.997 -16.03,3.987 -16.037,3.985 -16.077,3.973 -16.117,3.96 -16.155,3.949 -16.156,3.948 -16.194,3.936 -16.269,3.912 -16.296,3.903 -16.306,3.9 -16.41,3.864 l -0.018,-0.006 -0.016,-0.006 -0.065,-0.024 -0.032,-0.012 -0.028,-0.011 -0.08,-0.032 -0.025,-0.01 c -0.03,-0.012 -0.059,-0.025 -0.087,-0.038 L -16.764,3.724 -16.768,3.722 C -16.797,3.708 -16.825,3.695 -16.851,3.681 L -16.857,3.678 C -16.881,3.666 -16.904,3.653 -16.925,3.641 L -16.934,3.636 -16.938,3.633 C -16.959,3.62 -16.98,3.608 -16.998,3.595 l -0.003,-0.003 -0.003,-10e-4 c -0.019,-0.014 -0.037,-0.028 -0.053,-0.041 0.463,-1.013 1.079,-4.471 1.725,-8.743 -0.653,-4.359 -3.206,-7.488 -1.37,-11.628 h 3.001 16.7 0.131 0.132 16.7 3.001 c 1.836,4.14 -0.717,7.269 -1.37,11.628 0.646,4.272 1.262,7.73 1.725,8.743 -0.016,0.013 -0.034,0.027 -0.054,0.041 L 23.262,3.592 23.259,3.595 C 23.24,3.608 23.22,3.62 23.199,3.633 L 23.195,3.636 23.186,3.641 C 23.165,3.653 23.142,3.666 23.118,3.678 L 23.112,3.681 C 23.086,3.695 23.058,3.708 23.029,3.722 L 23.025,3.724 23.022,3.725 22.935,3.763 22.91,3.773 22.83,3.805 22.802,3.816 22.77,3.828 22.705,3.852 22.69,3.858 22.671,3.864 22.567,3.9 22.557,3.903 22.53,3.912 22.455,3.936 22.417,3.948 22.415,3.949 22.378,3.96 22.338,3.973 22.298,3.985 22.291,3.987 22.257,3.997 22.216,4.009 22.173,4.021 22.131,4.033 22.087,4.046 22.043,4.058 21.999,4.071 21.987,4.074 21.862,4.107 21.815,4.12 21.768,4.132 21.72,4.145 21.672,4.157 21.623,4.17 21.576,4.182 h -0.003 l -0.05,0.013 -0.05,0.013 -0.051,0.012 -0.104,0.025 -0.052,0.013 -0.054,0.013 -0.053,0.012 -0.054,0.013 -0.054,0.013 -0.055,0.012 C 17.728,5.078 12.09,5.936 10.192,6.801 11.055,6.132 10.522,1.564 6.261,0 V -0.001 L 4.445,-5.991 2.912,-11.415 0,-0.001 Z" />
    </g>
    <g
       transform="matrix(0.35277777,0,0,-0.35277777,-20.269022,38.735879)"
       id="g4715">
      <path
         id="path4717"
         style="fill:#f8c997;fill-opacity:1;fill-rule:evenodd;stroke:none"
         d="m 0,0 -0.062,-0.002 c -1.446,0.057 -2.847,0.113 -2.847,0.113 l 0.006,-0.226 C -3.088,-0.122 -3.201,-0.127 -3.201,-0.127 -8.98,-0.357 -14.42,-3.47 -17.909,-8.21 c -3.492,-4.745 -3.956,-10.721 -3.681,-16.443 0.707,-14.704 8.944,-31.214 21.59,-31.336 12.646,0.122 20.882,16.632 21.59,31.336 0.275,5.722 -0.189,11.698 -3.681,16.443 -3.489,4.74 -8.929,7.853 -14.707,8.083 0,0 -0.114,0.005 -0.299,0.012 l 0.006,0.226 c 0,0 -1.401,-0.056 -2.847,-0.113 z" />
    </g>
    <g
       transform="matrix(0.35277777,0,0,-0.35277777,-16.797934,40.745691)"
       id="g4719">
      <path
         id="path4721"
         style="fill:#cc5827;fill-opacity:1;fill-rule:evenodd;stroke:none"
         d="m 0,0 c -0.173,-0.808 -0.018,-5.137 4.963,-11.772 4.981,-6.634 5.366,-7.213 5.366,-7.213 0,0 -0.52,-10.214 -0.462,-9.694 0.058,0.519 2.759,10.25 2.759,10.25 0,0 1.28,5.561 0.011,10.754 C 11.368,-2.481 9.766,-0.523 7.565,0.352 5.364,1.227 0,0 0,0" />
    </g>
    <g
       transform="matrix(0.35277777,0,0,-0.35277777,-27.536914,46.055172)"
       id="g4723">
      <path
         id="path4725"
         style="fill:#cc5827;fill-opacity:1;fill-rule:evenodd;stroke:none"
         d="m 0,0 c -0.866,-0.981 -2.883,-3.014 -2.883,-3.014 l 2.248,-10.258 z" />
    </g>
    <g
       transform="matrix(0.35277777,0,0,-0.35277777,-13.22172,48.788177)"
       id="g4727">
      <path
         id="path4729"
         style="fill:#cc5827;fill-opacity:1;fill-rule:evenodd;stroke:none"
         d="m 0,0 c 0.227,3.791 2.443,16.06 1.491,18.422 -4.386,10.871 -22.619,17.095 -26.893,5.916 -1.281,-3.349 9.55,-0.005 10.3,-4.464 C -14.118,14.025 -6.817,4.054 0,0" />
    </g>
    <g
       transform="matrix(0.35277777,0,0,-0.35277777,-16.452108,41.187685)"
       id="g4731">
      <path
         id="path4733"
         style="fill:#cc5827;fill-opacity:1;fill-rule:evenodd;stroke:none"
         d="m 0,0 c 4.864,-4.574 -10.229,-14.772 -30.106,-19.293 -10.116,9.735 3.152,36.498 25.193,26.599 z" />
    </g>
    <g
       transform="matrix(0.35277777,0,0,-0.35277777,-28.390214,44.808984)"
       id="g4735">
      <path
         id="path4737"
         style="fill:#cc5827;fill-opacity:1;fill-rule:evenodd;stroke:none"
         d="M 0,0 C -1.267,-8.873 -3.285,-36.454 8.601,-38.58 4.134,-32.391 3.841,-18.574 3.72,-7.752 3.636,-0.314 3.257,4.123 3.174,10.079 1.489,7.879 0.374,2.618 0,0" />
    </g>
    <g
       transform="matrix(0.35277777,0,0,-0.35277777,-12.428431,44.808984)"
       id="g4739">
      <path
         id="path4741"
         style="fill:#cc5827;fill-opacity:1;fill-rule:evenodd;stroke:none"
         d="m 0,0 c 1.266,-8.873 3.285,-36.454 -8.601,-38.58 7.506,10.506 5.178,34.128 5.427,48.659 C -1.489,7.879 -0.374,2.618 0,0" />
    </g>
    <g
       transform="matrix(0.35277777,0,0,-0.35277777,-23.421127,50.832772)"
       id="g4743">
      <path
         id="path4745"
         style="fill:#3e3b3a;fill-opacity:1;fill-rule:evenodd;stroke:none"
         d="M 0,0 C 0.922,0 1.673,0.752 1.673,1.673 1.673,2.595 0.922,3.347 0,3.347 -0.922,3.347 -1.673,2.595 -1.673,1.673 -1.673,0.752 -0.922,0 0,0" />
    </g>
    <g
       transform="matrix(0.35277777,0,0,-0.35277777,-17.117022,50.832772)"
       id="g4747">
      <path
         id="path4749"
         style="fill:#3e3b3a;fill-opacity:1;fill-rule:evenodd;stroke:none"
         d="M 0,0 C 0.922,0 1.673,0.752 1.673,1.673 1.673,2.595 0.922,3.347 0,3.347 -0.922,3.347 -1.673,2.595 -1.673,1.673 -1.673,0.752 -0.922,0 0,0" />
    </g>
    <g
       transform="matrix(0.35277777,0,0,-0.35277777,-21.398933,53.253778)"
       id="g4751">
      <path
         id="path4753"
         style="fill:#e5b17d;fill-opacity:1;fill-rule:evenodd;stroke:none"
         d="m 0,0 c -0.02,0.007 -0.023,0.023 -0.006,0.051 0,0.084 0.048,0.166 0.136,0.244 C 0.818,1.618 2.17,5.477 2.79,9.723 3.469,9.681 2.116,2.497 1.534,0.783 2.123,0.885 2.84,0.945 3.615,0.945 c 2,0 3.621,-0.4 3.621,-0.894 0,-0.494 -1.621,-0.895 -3.621,-0.895 C 1.684,-0.844 0.106,-0.47 0,0" />
    </g>
    <g
       transform="matrix(0.35277777,0,0,-0.35277777,-18.878089,48.820279)"
       id="g4755">
      <path
         id="path4757"
         style="fill:#913e22;fill-opacity:1;fill-rule:evenodd;stroke:none"
         d="M 0,0 C -0.991,-0.411 0.657,2.275 5.53,2.381 11.21,2.505 12.938,-0.227 10.7,0.558 5.872,2.25 1.572,0.652 0,0" />
    </g>
    <g
       transform="matrix(0.35277777,0,0,-0.35277777,-21.66013,48.820279)"
       id="g4759">
      <path
         id="path4761"
         style="fill:#913e22;fill-opacity:1;fill-rule:evenodd;stroke:none"
         d="M 0,0 C 0.991,-0.411 -0.657,2.275 -5.529,2.381 -11.21,2.505 -12.938,-0.227 -10.7,0.558 -5.871,2.25 -1.572,0.652 0,0" />
    </g>
    <g
       transform="matrix(0.35277777,0,0,-0.35277777,-22.23731,54.619488)"
       id="g4763">
      <path
         id="path4765"
         style="fill:#d6825b;fill-opacity:1;fill-rule:evenodd;stroke:none"
         d="M 0,0 C 2.138,-1.432 9.224,-1.452 11.393,0 12.897,-5.952 -1.504,-5.952 0,0" />
    </g>
    <g
       transform="matrix(0.35277777,0,0,-0.35277777,-23.115304,59.402978)"
       id="g4767">
      <path
         id="path4769"
         style="fill:#ffffff;fill-opacity:1;fill-rule:evenodd;stroke:none"
         d="m 0,0 1.587,0.49 2.949,-7.491 c 0,0 -2.827,-2.599 -5.256,-2.78 -2.43,-0.181 -2.799,4.847 -1.76,7.156 C -1.441,-0.318 0,0 0,0" />
    </g>
    <g
       transform="matrix(0.35277777,0,0,-0.35277777,-17.706021,59.403189)"
       id="g4771">
      <path
         id="path4773"
         style="fill:#ffffff;fill-opacity:1;fill-rule:evenodd;stroke:none"
         d="m 0,0 -1.587,0.491 -2.949,-7.492 c 0,0 2.827,-2.599 5.256,-2.78 2.43,-0.181 2.799,4.847 1.76,7.156 C 1.441,-0.317 0,0 0,0" />
    </g>
    <g
       transform="matrix(0.35277777,0,0,-0.35277777,-20.537415,43.108984)"
       id="g4775">
      <path
         id="path4777"
         style="fill:#cc5827;fill-opacity:1;fill-rule:evenodd;stroke:none"
         d="m 0,0 c 0.808,-0.173 8.016,-0.846 8.016,-0.846 0,0 -1.806,-3.748 -8.449,-7.867 -6.643,-4.119 -14.133,-5.637 -13.935,-5.424 0.197,0.212 6.26,2.51 9.405,5.25 3.145,2.742 4.415,5.165 4.415,5.165 z" />
    </g>
    <g
       transform="matrix(0.35277777,0,0,-0.35277777,-17.026712,41.049078)"
       id="g4779">
      <path
         id="path4781"
         style="fill:#cc5827;fill-opacity:1;fill-rule:evenodd;stroke:none"
         d="m 0,0 c -0.782,0.268 -7.305,3.406 -7.305,3.406 0,0 -0.384,-4.144 3.186,-11.097 3.571,-6.952 9.209,-12.112 9.149,-11.829 -0.06,0.284 -4.073,5.378 -5.356,9.347 -1.283,3.97 -1.122,6.701 -1.122,6.701 z" />
    </g>
  </g>
</svg>
