<?xml version="1.0" encoding="UTF-8" standalone="no"?>
<svg
   xmlns:dc="http://purl.org/dc/elements/1.1/"
   xmlns:cc="http://creativecommons.org/ns#"
   xmlns:rdf="http://www.w3.org/1999/02/22-rdf-syntax-ns#"
   xmlns:svg="http://www.w3.org/2000/svg"
   xmlns="http://www.w3.org/2000/svg"
   id="svg8460"
   version="1.1"
   viewBox="0 0 22.639244 33.981491"
   height="33.981491mm"
   width="22.639244mm">
  <defs
     id="defs8454" />
  <metadata
     id="metadata8457">
    <rdf:RDF>
      <cc:Work
         rdf:about="">
        <dc:format>image/svg+xml</dc:format>
        <dc:type
           rdf:resource="http://purl.org/dc/dcmitype/StillImage" />
        <dc:title></dc:title>
      </cc:Work>
    </rdf:RDF>
  </metadata>
  <g
     transform="translate(6.7839081,-226.33663)"
     id="layer1">
    <g
       transform="matrix(0.35277777,0,0,-0.35277777,12.880627,244.10647)"
       id="g4783">
      <path
         id="path4785"
         style="fill:#402412;fill-opacity:1;fill-rule:evenodd;stroke:none"
         d="m 0,0 c 0,-6.647 4.678,-12.027 1.86,-19.276 -4.391,-11.301 -14.287,-8.826 -21.614,-8.826 h -9.6 c -7.532,0 -16.427,-0.905 -19.61,9.988 -2.192,7.505 1.711,11.467 1.711,17.459 l -0.338,16.934 c 0.577,22.449 8.661,25.953 24.006,25.953 18.055,2.423 22.942,-7.048 24.006,-25.953 z" />
    </g>
    <g
       transform="matrix(0.35277777,0,0,-0.35277777,7.704813,253.83996)"
       id="g4787">
      <path
         id="path4789"
         style="fill:#9b5538;fill-opacity:1;fill-rule:evenodd;stroke:none"
         d="m 0,0 c 0.462,0.346 10.48,7.913 10.48,7.913 4.59,-1.514 5.915,-14.535 6.382,-20.607 H 5.893 Z" />
    </g>
    <g
       transform="matrix(0.35277777,0,0,-0.35277777,4.388314,248.01878)"
       id="g4791">
      <path
         id="path4793"
         style="fill:#f5b67e;fill-opacity:1;fill-rule:evenodd;stroke:none"
         d="m 0,0 h -4.841 v -3.056 c 0.003,-1.899 -0.313,-1.505 -2.087,-2.492 0,0 -1.711,-1.403 -2.232,-1.569 2.151,-6.925 3.706,-15.831 7.911,-22.078 H 0 1.249 c 4.205,6.247 5.76,15.153 7.911,22.078 -0.521,0.166 -2.232,1.569 -2.232,1.569 -1.774,0.987 -2.09,0.593 -2.087,2.492 V 0 Z" />
    </g>
    <g
       transform="matrix(0.35277777,0,0,-0.35277777,1.1646307,253.83996)"
       id="g4795">
      <path
         id="path4797"
         style="fill:#9b5538;fill-opacity:1;fill-rule:evenodd;stroke:none"
         d="m 0,0 c -0.462,0.346 -10.48,7.913 -10.48,7.913 -4.591,-1.514 -5.915,-14.535 -6.382,-20.607 h 10.968 z" />
    </g>
    <g
       transform="matrix(0.35277777,0,0,-0.35277777,3.3303326,252.38398)"
       id="g4799">
      <path
         id="path4801"
         style="fill:#ed8322;fill-opacity:1;fill-rule:evenodd;stroke:none"
         d="M 0,0 C -4.261,1.564 -4.794,6.131 -3.931,6.801 -5.829,5.936 -11.467,5.078 -14.735,4.321 L -14.79,4.309 -14.844,4.296 -14.898,4.283 -14.952,4.27 -15.005,4.258 -15.057,4.245 -15.161,4.22 l -0.051,-0.012 -0.05,-0.013 -0.05,-0.013 h -0.003 L -15.362,4.17 -15.411,4.157 -15.459,4.145 -15.507,4.132 -15.554,4.12 -15.601,4.107 -15.726,4.073 -15.738,4.07 -15.783,4.058 -15.826,4.046 -15.869,4.033 -15.912,4.021 -15.955,4.009 -15.996,3.997 -16.03,3.987 -16.037,3.985 -16.077,3.972 -16.117,3.96 -16.154,3.949 -16.156,3.948 -16.194,3.936 -16.269,3.912 -16.296,3.903 -16.305,3.9 -16.41,3.864 -16.428,3.857 -16.444,3.852 -16.509,3.828 -16.541,3.816 -16.569,3.805 -16.649,3.773 -16.674,3.763 C -16.704,3.75 -16.733,3.738 -16.761,3.725 L -16.764,3.723 -16.768,3.722 C -16.797,3.708 -16.825,3.695 -16.852,3.681 L -16.857,3.678 C -16.881,3.665 -16.904,3.653 -16.925,3.641 L -16.934,3.636 -16.938,3.633 C -16.96,3.62 -16.98,3.607 -16.998,3.595 l -0.003,-0.003 -0.003,-10e-4 c -0.019,-0.014 -0.037,-0.028 -0.053,-0.042 0.463,-1.012 1.079,-4.471 1.725,-8.742 -0.653,-4.359 -3.206,-7.489 -1.37,-11.628 h 3.001 16.7 0.132 0.131 16.7 3.001 c 1.836,4.139 -0.717,7.269 -1.37,11.628 0.646,4.271 1.262,7.73 1.725,8.742 -0.016,0.014 -0.034,0.027 -0.054,0.042 L 23.262,3.592 23.259,3.595 C 23.24,3.607 23.221,3.62 23.199,3.633 L 23.195,3.636 23.186,3.641 C 23.165,3.653 23.142,3.665 23.118,3.678 L 23.113,3.681 C 23.086,3.695 23.058,3.708 23.029,3.722 L 23.025,3.723 23.022,3.725 22.935,3.763 22.91,3.773 22.83,3.805 22.802,3.816 22.77,3.828 22.705,3.852 22.69,3.857 22.671,3.864 22.567,3.9 22.557,3.903 22.53,3.912 22.455,3.936 22.417,3.948 22.415,3.949 22.378,3.96 22.338,3.972 22.298,3.985 22.291,3.987 22.257,3.997 22.216,4.009 22.173,4.021 22.131,4.033 22.087,4.046 22.043,4.058 21.999,4.07 21.987,4.073 21.862,4.107 21.815,4.12 21.768,4.132 21.72,4.145 21.672,4.157 21.623,4.17 21.576,4.182 H 21.573 L 21.523,4.195 21.473,4.208 21.422,4.22 21.318,4.245 21.266,4.258 21.212,4.27 21.159,4.283 21.105,4.296 21.051,4.309 20.996,4.321 C 17.728,5.078 12.09,5.936 10.192,6.801 11.055,6.131 10.522,1.564 6.261,0 V -0.001 L 3.262,-5.01 3.131,-4.79 2.999,-5.01 0,-0.001 Z" />
    </g>
    <g
       transform="matrix(0.35277777,0,0,-0.35277777,-0.6309747,239.60048)"
       id="g4803">
      <path
         id="path4805"
         style="fill:#f6c085;fill-opacity:1;fill-rule:evenodd;stroke:none"
         d="m 0,0 c 0.803,-3.606 -0.792,-6.61 -3.524,-7.257 -2.73,-0.647 -5.561,1.308 -6.363,4.915 -0.802,3.606 0.76,7.056 3.491,7.702 C -3.665,6.008 -0.802,3.608 0,0" />
    </g>
    <g
       transform="matrix(0.35277777,0,0,-0.35277777,9.783732,239.60048)"
       id="g4807">
      <path
         id="path4809"
         style="fill:#f6c085;fill-opacity:1;fill-rule:evenodd;stroke:none"
         d="M 0,0 C -0.802,-3.606 0.792,-6.61 3.524,-7.257 6.255,-7.904 9.085,-5.949 9.887,-2.342 10.689,1.264 9.127,4.714 6.396,5.36 3.666,6.008 0.802,3.608 0,0" />
    </g>
    <g
       transform="matrix(0.35277777,0,0,-0.35277777,4.5764143,229.24698)"
       id="g4811">
      <path
         id="path4813"
         style="fill:#f8c997;fill-opacity:1;fill-rule:evenodd;stroke:none"
         d="m 0,0 -0.062,-0.003 c -1.446,0.058 -2.847,0.114 -2.847,0.114 l 0.006,-0.226 C -3.088,-0.123 -3.201,-0.128 -3.201,-0.128 -8.98,-0.357 -14.42,-3.47 -17.909,-8.21 c -3.492,-4.745 -3.956,-10.721 -3.681,-16.443 0.708,-14.704 8.944,-31.214 21.59,-31.337 12.646,0.123 20.882,16.633 21.59,31.337 0.275,5.722 -0.189,11.698 -3.681,16.443 -3.489,4.74 -8.929,7.853 -14.707,8.082 0,0 -0.114,0.005 -0.299,0.013 l 0.006,0.226 c 0,0 -1.401,-0.056 -2.847,-0.114 z" />
    </g>
    <g
       transform="matrix(0.35277777,0,0,-0.35277777,7.746898,231.25686)"
       id="g4815">
      <path
         id="path4817"
         style="fill:#402412;fill-opacity:1;fill-rule:evenodd;stroke:none"
         d="m 0,0 c -0.173,-0.808 -0.019,-5.137 4.963,-11.772 4.981,-6.634 5.366,-7.213 5.366,-7.213 0,0 0.23,-11.195 0.865,-9.867 0.635,1.327 1.541,10.965 1.541,10.965 0,0 1.172,5.019 -0.098,10.212 C 11.368,-2.481 9.766,-0.523 7.565,0.352 5.364,1.227 0,0 0,0" />
    </g>
    <g
       transform="matrix(0.35277777,0,0,-0.35277777,-2.0449768,236.20358)"
       id="g4819">
      <path
         id="path4821"
         style="fill:#402412;fill-opacity:1;fill-rule:evenodd;stroke:none"
         d="m 0,0 c -0.865,-0.981 -3.678,-1.086 -3.678,-1.086 0.123,-0.908 1.333,-14.571 2.469,-13.602 z" />
    </g>
    <g
       transform="matrix(0.35277777,0,0,-0.35277777,11.390599,237.95438)"
       id="g4823">
      <path
         id="path4825"
         style="fill:#402412;fill-opacity:1;fill-rule:evenodd;stroke:none"
         d="m 0,0 c 0.227,3.791 2.172,12.449 1.219,14.811 -2.749,6.813 -7.785,9.572 -16.238,10.417 -2.596,0.259 -4.76,0.029 -4.76,0.029 C -14.929,17.253 -10.835,6.617 0,0" />
    </g>
    <g
       transform="matrix(0.35277777,0,0,-0.35277777,8.515319,231.98386)"
       id="g4827">
      <path
         id="path4829"
         style="fill:#402412;fill-opacity:1;fill-rule:evenodd;stroke:none"
         d="m 0,0 c -1.714,-10.691 -24.271,-7.245 -31.693,-20.105 -8.27,12.504 4.394,38.118 26.434,28.219 z" />
    </g>
    <g
       transform="matrix(0.35277777,0,0,-0.35277777,1.0715662,241.19627)"
       id="g4831">
      <path
         id="path4833"
         style="fill:#3e3b3a;fill-opacity:1;fill-rule:evenodd;stroke:none"
         d="M 0,0 C 0.922,0 1.673,0.752 1.673,1.674 1.673,2.595 0.922,3.347 0,3.347 -0.922,3.347 -1.674,2.595 -1.674,1.674 -1.674,0.752 -0.922,0 0,0" />
    </g>
    <g
       transform="matrix(0.35277777,0,0,-0.35277777,8.434005,241.19627)"
       id="g4835">
      <path
         id="path4837"
         style="fill:#3e3b3a;fill-opacity:1;fill-rule:evenodd;stroke:none"
         d="M 0,0 C 0.922,0 1.673,0.752 1.673,1.674 1.673,2.595 0.922,3.347 0,3.347 -0.922,3.347 -1.674,2.595 -1.674,1.674 -1.674,0.752 -0.922,0 0,0" />
    </g>
    <g
       transform="matrix(0.35277777,0,0,-0.35277777,3.6228215,243.61717)"
       id="g4839">
      <path
         id="path4841"
         style="fill:#e5b17d;fill-opacity:1;fill-rule:evenodd;stroke:none"
         d="m 0,0 c -0.02,0.006 -0.023,0.023 -0.006,0.051 0,0.084 0.048,0.166 0.137,0.243 C 0.818,1.618 2.17,5.477 2.79,9.723 3.469,9.681 2.116,2.497 1.534,0.783 c 0.589,0.102 1.307,0.162 2.081,0.162 2,0 3.621,-0.401 3.621,-0.894 0,-0.494 -1.621,-0.895 -3.621,-0.895 C 1.684,-0.844 0.107,-0.47 0,0" />
    </g>
    <g
       transform="matrix(0.35277777,0,0,-0.35277777,6.320196,239.18377)"
       id="g4843">
      <path
         id="path4845"
         style="fill:#402412;fill-opacity:1;fill-rule:evenodd;stroke:none"
         d="M 0,0 C -0.991,-0.411 0.657,2.275 5.529,2.381 11.21,2.505 12.938,-0.227 10.7,0.558 5.871,2.25 1.572,0.652 0,0" />
    </g>
    <g
       transform="matrix(0.35277777,0,0,-0.35277777,2.8326328,239.18377)"
       id="g4847">
      <path
         id="path4849"
         style="fill:#402412;fill-opacity:1;fill-rule:evenodd;stroke:none"
         d="M 0,0 C 0.991,-0.411 -0.657,2.275 -5.53,2.381 -11.21,2.505 -12.938,-0.227 -10.7,0.558 -5.872,2.25 -1.572,0.652 0,0" />
    </g>
    <g
       transform="matrix(0.35277777,0,0,-0.35277777,6.581427,245.06207)"
       id="g4851">
      <path
         id="path4853"
         style="fill:#d6825b;fill-opacity:1;fill-rule:evenodd;stroke:none"
         d="M 0,0 C -1.022,-4.515 -10.287,-4.515 -11.309,0 -8.238,-3.22 -3.071,-3.22 0,0" />
    </g>
  </g>
</svg>
