<?xml version="1.0" encoding="UTF-8" standalone="no"?>
<svg
   xmlns:dc="http://purl.org/dc/elements/1.1/"
   xmlns:cc="http://creativecommons.org/ns#"
   xmlns:rdf="http://www.w3.org/1999/02/22-rdf-syntax-ns#"
   xmlns:svg="http://www.w3.org/2000/svg"
   xmlns="http://www.w3.org/2000/svg"
   id="svg8605"
   version="1.1"
   viewBox="0 0 22.348751 37.180992"
   height="37.180992mm"
   width="22.348751mm">
  <defs
     id="defs8599" />
  <metadata
     id="metadata8602">
    <rdf:RDF>
      <cc:Work
         rdf:about="">
        <dc:format>image/svg+xml</dc:format>
        <dc:type
           rdf:resource="http://purl.org/dc/dcmitype/StillImage" />
        <dc:title></dc:title>
      </cc:Work>
    </rdf:RDF>
  </metadata>
  <g
     transform="translate(164.63271,-41.796409)"
     id="layer1">
    <g
       transform="matrix(0.35277777,0,0,-0.35277777,-156.68417,72.49924)"
       id="g4855">
      <path
         id="path4857"
         style="fill:#34333c;fill-opacity:1;fill-rule:evenodd;stroke:none"
         d="m 0,0 c -0.461,0.346 -10.774,5.202 -10.774,5.202 -4.591,-1.515 -5.621,-11.824 -6.088,-17.896 h 10.969 z" />
    </g>
    <g
       transform="matrix(0.35277777,0,0,-0.35277777,-150.23656,72.49924)"
       id="g4859">
      <path
         id="path4861"
         style="fill:#34333c;fill-opacity:1;fill-rule:evenodd;stroke:none"
         d="m 0,0 c 0.462,0.346 10.775,5.202 10.775,5.202 4.59,-1.515 5.62,-11.824 6.087,-17.896 H 5.894 Z" />
    </g>
    <g
       transform="matrix(0.35277777,0,0,-0.35277777,-153.46024,66.678055)"
       id="g4863">
      <path
         id="path4865"
         style="fill:#f5b67e;fill-opacity:1;fill-rule:evenodd;stroke:none"
         d="m 0,0 h -4.841 v -3.056 c 0.003,-1.899 -0.313,-1.504 -2.087,-2.492 0,0 -1.711,-1.403 -2.233,-1.569 2.151,-6.925 4.393,-13.431 8.598,-19.678 h 1.249 1.248 c 4.205,6.247 5.075,12.753 7.226,19.678 -0.521,0.166 -2.232,1.569 -2.232,1.569 -1.774,0.988 -2.09,0.593 -2.088,2.492 V 0 Z" />
    </g>
    <g
       transform="matrix(0.35277777,0,0,-0.35277777,-153.46034,72.549545)"
       id="g4867">
      <path
         id="path4869"
         style="fill:#bed53b;fill-opacity:1;fill-rule:evenodd;stroke:none"
         d="M 0,0 C -7.993,0.631 -6.839,11.02 -6.93,11.071 -9.511,9.895 -18.919,6.209 -19.973,5.296 c 0.856,-1.871 2.152,-9.571 3.273,-17.847 H 0 16.701 c 1.12,8.276 2.417,15.976 3.272,17.847 C 18.919,6.209 9.511,9.895 6.93,11.071 6.839,11.02 7.993,0.631 0,0" />
    </g>
    <g
       transform="matrix(0.35277777,0,0,-0.35277777,-148.89106,59.074142)"
       id="g4871">
      <path
         id="path4873"
         style="fill:#f6c085;fill-opacity:1;fill-rule:evenodd;stroke:none"
         d="m 0,0 c -0.693,-3.936 1.641,-7.216 5.216,-7.922 3.574,-0.705 7.03,1.428 7.722,5.365 C 13.63,1.38 11.296,5.145 7.723,5.851 4.15,6.558 0.692,3.939 0,0" />
    </g>
    <g
       transform="matrix(0.35277777,0,0,-0.35277777,-157.68765,59.074142)"
       id="g4875">
      <path
         id="path4877"
         style="fill:#f6c085;fill-opacity:1;fill-rule:evenodd;stroke:none"
         d="m 0,0 c 0.693,-3.936 -1.642,-7.216 -5.216,-7.922 -3.574,-0.705 -7.031,1.428 -7.722,5.365 -0.693,3.937 1.641,7.702 5.215,8.408 C -4.15,6.558 -0.692,3.939 0,0" />
    </g>
    <g
       transform="matrix(0.35277777,0,0,-0.35277777,-146.99806,50.80256)"
       id="g4879">
      <path
         id="path4881"
         style="fill:#f8c997;fill-opacity:1;fill-rule:evenodd;stroke:none"
         d="m 0,0 c -3.489,4.74 -8.931,7.853 -14.708,8.083 -10e-4,0 -0.114,0.004 -0.3,0.012 l 0.007,0.226 c 0,0 -1.4,-0.056 -2.846,-0.113 -1.446,0.057 -2.847,0.113 -2.847,0.113 l 0.006,-0.226 C -20.874,8.087 -20.987,8.083 -20.987,8.083 -26.765,7.853 -32.205,4.74 -35.694,0 c -3.492,-4.745 -3.956,-10.721 -3.682,-16.443 0.209,-4.324 0.974,-11.305 1.189,-15.631 5.553,-20.772 35.504,-21.111 40.679,0 0.215,4.326 0.979,11.307 1.188,15.631 C 3.955,-10.721 3.492,-4.745 0,0" />
    </g>
    <g
       transform="matrix(0.35277777,0,0,-0.35277777,-159.53274,53.612258)"
       id="g4883">
      <path
         id="path4885"
         style="fill:#973823;fill-opacity:1;fill-rule:evenodd;stroke:none"
         d="m 0,0 c -0.276,-0.598 1.31,5.401 4.79,5.505 3.642,0.108 26.279,-1.269 27.439,0.246 3.836,-4.855 6.636,-24.106 6.854,-24.062 0.51,0.098 0.57,1.986 0.621,2.39 0.366,2.839 0.465,5.751 0.463,8.609 -0.007,5.277 1.527,15.438 -8.022,21.77 C 26.273,18.353 14.133,18.74 7.375,16.535 2.669,14.999 -1.844,10.998 -3.522,6.337 -5.364,1.218 -5.317,-2.782 -4.71,-12.918 c 0.066,-1.1 0.195,-2.201 0.348,-3.291 0.101,-0.726 0.194,-1.468 0.37,-2.179 C -3.035,-22.249 -2.944,-4.562 0,0" />
    </g>
    <g
       transform="matrix(0.35277777,0,0,-0.35277777,-157.15185,60.193541)"
       id="g4887">
      <path
         id="path4889"
         style="fill:#3e3b3a;fill-opacity:1;fill-rule:evenodd;stroke:none"
         d="M 0,0 C 0.922,0 1.673,0.752 1.673,1.674 1.673,2.595 0.922,3.347 0,3.347 -0.922,3.347 -1.673,2.595 -1.673,1.674 -1.673,0.752 -0.922,0 0,0" />
    </g>
    <g
       transform="matrix(0.35277777,0,0,-0.35277777,-149.43667,60.234144)"
       id="g4891">
      <path
         id="path4893"
         style="fill:#3e3b3a;fill-opacity:1;fill-rule:evenodd;stroke:none"
         d="M 0,0 C 0.922,0 1.673,0.752 1.673,1.673 1.673,2.595 0.922,3.347 0,3.347 -0.922,3.347 -1.673,2.595 -1.673,1.673 -1.673,0.752 -0.922,0 0,0" />
    </g>
    <g
       transform="matrix(0.35277777,0,0,-0.35277777,-159.18296,57.968464)"
       id="g4895">
      <path
         id="path4897"
         style="fill:#973823;fill-opacity:1;fill-rule:evenodd;stroke:none"
         d="m 0,0 c -0.612,0.882 2.245,1.544 5.178,1.752 4.918,0.349 7.736,-1.848 5.366,-1.93 C 8.773,-0.24 0.18,-0.258 0,0" />
    </g>
    <g
       transform="matrix(0.35277777,0,0,-0.35277777,-147.75014,57.985257)"
       id="g4899">
      <path
         id="path4901"
         style="fill:#973823;fill-opacity:1;fill-rule:evenodd;stroke:none"
         d="M 0,0 C 0.646,0.857 -2.183,1.63 -5.105,1.952 -10.007,2.493 -12.908,0.407 -10.543,0.233 -8.775,0.103 -0.189,-0.251 0,0" />
    </g>
    <g
       transform="matrix(0.35277777,0,0,-0.35277777,-151.34075,63.807361)"
       id="g4903">
      <path
         id="path4905"
         style="fill:#d6825b;fill-opacity:1;fill-rule:evenodd;stroke:none"
         d="M 0,0 C -1.022,-5.749 -10.288,-5.749 -11.309,0 -8.546,-0.636 -3.379,-0.639 0,0" />
    </g>
    <g
       transform="matrix(0.35277777,0,0,-0.35277777,-154.60726,62.614442)"
       id="g4907">
      <path
         id="path4909"
         style="fill:#e5b17d;fill-opacity:1;fill-rule:evenodd;stroke:none"
         d="m 0,0 c -0.02,0.007 -0.023,0.023 -0.006,0.051 0,0.084 0.048,0.166 0.136,0.243 C 0.818,1.618 2.17,5.477 2.79,9.723 3.469,9.681 2.116,2.497 1.534,0.783 2.123,0.885 2.84,0.945 3.615,0.945 c 2,0 3.621,-0.401 3.621,-0.894 0,-0.494 -1.621,-0.895 -3.621,-0.895 C 1.684,-0.844 0.106,-0.47 0,0" />
    </g>
    <g
       transform="matrix(0.35277777,0,0,-0.35277777,-159.60425,52.552938)"
       id="g4911">
      <path
         id="path4913"
         style="fill:#973823;fill-opacity:1;fill-rule:evenodd;stroke:none"
         d="m 0,0 c -0.385,2.271 -2.272,2.4 -1.929,5.057 0.343,2.658 4.329,7.844 6.515,9.944 2.185,2.099 4.756,2.785 4.756,2.785 0,0 -1.457,-2.357 -0.857,-1.757 0.6,0.6 3.6,2.015 4.886,2.83 1.285,0.814 1.886,1.671 1.714,1.243 -0.171,-0.429 -0.986,-1.972 -0.386,-1.586 0.6,0.386 2.186,0.428 4.072,2.314 1.885,1.886 3.085,4.371 2.914,3.943 -0.172,-0.429 2.7,-3.815 3.643,-5.529 0.942,-1.714 1.071,-2.742 1.285,-2.271 0.215,0.472 1.072,2.229 1.072,2.229 0,0 3.514,-3.085 4.886,-4.971 1.371,-1.886 1.671,-3.214 1.842,-2.743 0.172,0.472 0.515,1.629 0.515,1.629 0,0 1.842,-4.586 1.328,-6.9 C 35.742,3.903 34.66,1.034 34.66,1.034 c 0,0 -12.546,-3.217 -17.003,-3.259 -2.111,-0.021 -15.638,3.706 -15.9,4.756 z" />
    </g>
    <g
       transform="matrix(0.35277777,0,0,-0.35277777,-153.46024,72.549651)"
       id="g4915">
      <path
         id="path4917"
         style="fill:#d99e67;fill-opacity:1;fill-rule:evenodd;stroke:none"
         d="M 0,0 C -7.994,0.631 -6.839,11.02 -6.93,11.071 -6.952,11.062 -6.974,11.052 -6.996,11.042 -7.507,10.811 -8.26,10.49 -9.151,10.117 -9.157,9.93 -9.16,9.741 -9.16,9.552 V 9.527 c 0.005,-3.7 1.238,-7.01 3.177,-9.23 1.566,-1.792 3.594,-2.873 5.808,-2.873 3.099,0 5.832,2.117 7.448,5.339 0.791,1.579 1.315,3.423 1.481,5.412 0.038,0.452 0.057,0.911 0.057,1.377 0,0.05 0,0.101 -10e-4,0.151 C 8.809,9.892 8.804,10.079 8.796,10.266 8.06,10.576 7.437,10.842 6.995,11.042 6.973,11.051 6.951,11.062 6.93,11.071 6.839,11.02 7.993,0.631 0,0" />
    </g>
    <g
       transform="matrix(0.35277777,0,0,-0.35277777,-153.46024,72.549651)"
       id="g4919">
      <path
         id="path4921"
         style="fill:#34333c;fill-opacity:1;fill-rule:evenodd;stroke:none"
         d="M 0,0 C -7.994,0.631 -6.839,11.02 -6.93,11.071 -6.952,11.062 -6.974,11.052 -6.996,11.042 -7.507,10.811 -8.26,10.49 -9.151,10.117 -9.157,9.93 -9.16,9.741 -9.16,9.552 V 9.527 c 0.005,-3.7 1.238,-7.01 3.177,-9.23 1.566,-1.792 3.594,-2.873 5.808,-2.873 3.099,0 5.832,2.117 7.448,5.339 0.791,1.579 1.315,3.423 1.481,5.412 0.038,0.452 0.057,0.911 0.057,1.377 0,0.05 0,0.101 -10e-4,0.151 L 8.796,10.266 C 8.06,10.576 7.437,10.842 6.995,11.042 6.973,11.051 6.951,11.062 6.93,11.071 6.839,11.02 7.993,0.631 0,0" />
    </g>
  </g>
</svg>
