<?xml version="1.0" encoding="UTF-8" standalone="no"?>
<svg
   xmlns:dc="http://purl.org/dc/elements/1.1/"
   xmlns:cc="http://creativecommons.org/ns#"
   xmlns:rdf="http://www.w3.org/1999/02/22-rdf-syntax-ns#"
   xmlns:svg="http://www.w3.org/2000/svg"
   xmlns="http://www.w3.org/2000/svg"
   id="svg6864"
   version="1.1"
   viewBox="0 0 22.344688 33.502018"
   height="33.502018mm"
   width="22.344688mm">
  <defs
     id="defs6858" />
  <metadata
     id="metadata6861">
    <rdf:RDF>
      <cc:Work
         rdf:about="">
        <dc:format>image/svg+xml</dc:format>
        <dc:type
           rdf:resource="http://purl.org/dc/dcmitype/StillImage" />
        <dc:title></dc:title>
      </cc:Work>
    </rdf:RDF>
  </metadata>
  <g
     transform="translate(221.32711,-27.760895)"
     id="layer1">
    <g
       transform="matrix(0.35277777,0,0,-0.35277777,-212.47136,51.45566)"
       id="g3911">
      <path
         id="path3913"
         style="fill:#1b8ec1;fill-opacity:1;fill-rule:evenodd;stroke:none"
         d="M 0,0 -0.142,4.584 14.332,4.586 14.195,0.144 Z" />
    </g>
    <g
       transform="matrix(0.35277777,0,0,-0.35277777,-213.37857,54.784753)"
       id="g3915">
      <path
         id="path3917"
         style="fill:#0095d3;fill-opacity:1;fill-rule:evenodd;stroke:none"
         d="m 0,0 c -0.462,0.346 -10.775,5.201 -10.775,5.201 -4.59,-1.514 -5.62,-11.823 -6.087,-17.895 h 10.968 z" />
    </g>
    <g
       transform="matrix(0.35277777,0,0,-0.35277777,-206.93096,54.784753)"
       id="g3919">
      <path
         id="path3921"
         style="fill:#0095d3;fill-opacity:1;fill-rule:evenodd;stroke:none"
         d="m 0,0 c 0.462,0.346 10.774,5.201 10.774,5.201 4.591,-1.514 5.621,-11.823 6.088,-17.895 H 5.893 Z" />
    </g>
    <g
       transform="matrix(0.35277777,0,0,-0.35277777,-210.15478,48.963671)"
       id="g3923">
      <path
         id="path3925"
         style="fill:#f5b67e;fill-opacity:1;fill-rule:evenodd;stroke:none"
         d="m 0,0 h -4.841 v -3.056 c 0.003,-1.899 -0.313,-1.504 -2.087,-2.491 0,0 -1.711,-1.404 -2.232,-1.57 2.151,-6.925 3.879,-14.157 8.084,-20.404 h 1.249 1.249 c 4.205,6.247 5.587,13.479 7.738,20.404 -0.521,0.166 -2.232,1.57 -2.232,1.57 -1.774,0.987 -2.09,0.592 -2.087,2.491 V 0 Z" />
    </g>
    <g
       transform="matrix(0.35277777,0,0,-0.35277777,-210.00217,54.896158)"
       id="g3927">
      <path
         id="path3929"
         style="fill:#008bcf;fill-opacity:1;fill-rule:evenodd;stroke:none"
         d="m 0,0 c 0,0 -1.51,1.992 -2.206,3.121 -2.102,3.414 -5.088,8.084 -5.157,8.123 -2.58,-1.176 -11.989,-4.862 -13.042,-5.775 0.855,-1.871 2.151,-9.571 3.272,-17.847 h 16.7 16.701 C 17.389,-4.102 18.685,3.598 19.54,5.469 18.486,6.382 9.078,10.068 6.498,11.244 6.433,11.208 4.566,6.396 2.397,3.123 1.497,1.765 0,0 0,0" />
    </g>
    <g
       transform="matrix(0.35277777,0,0,-0.35277777,-211.74807,52.403466)"
       id="g3931">
      <path
         id="path3933"
         style="fill:#007ab4;fill-opacity:1;fill-rule:evenodd;stroke:none"
         d="M 0,0 C 0.26,0 1.719,-0.231 1.719,-0.231 L 2.743,-3.944 -0.923,-2.25 Z" />
    </g>
    <g
       transform="matrix(0.35277777,0,0,-0.35277777,-212.52157,49.838455)"
       id="g3935">
      <path
         id="path3937"
         style="fill:#2aa5dd;fill-opacity:1;fill-rule:evenodd;stroke:none"
         d="m 0,0 3.911,-7.502 c 0,0 -4.026,-3.952 -3.968,-3.779 C 0,-11.108 -1.864,-4.116 -1.725,-3.746 -1.587,-3.376 0,0 0,0" />
    </g>
    <g
       transform="matrix(0.35277777,0,0,-0.35277777,-208.18886,52.402868)"
       id="g3939">
      <path
         id="path3941"
         style="fill:#007ab4;fill-opacity:1;fill-rule:evenodd;stroke:none"
         d="M 0,0 C -0.26,0 -1.719,-0.231 -1.719,-0.231 L -2.743,-3.944 0.923,-2.25 Z" />
    </g>
    <g
       transform="matrix(0.35277777,0,0,-0.35277777,-207.41535,49.837854)"
       id="g3943">
      <path
         id="path3945"
         style="fill:#2aa5dd;fill-opacity:1;fill-rule:evenodd;stroke:none"
         d="m 0,0 -3.911,-7.502 c 0,0 4.026,-3.952 3.968,-3.779 C 0,-11.108 1.864,-4.116 1.726,-3.746 1.587,-3.376 0,0 0,0" />
    </g>
    <g
       transform="matrix(0.35277777,0,0,-0.35277777,-205.75165,41.106958)"
       id="g3947">
      <path
         id="path3949"
         style="fill:#f6c085;fill-opacity:1;fill-rule:evenodd;stroke:none"
         d="m 0,0 c -0.693,-3.606 1.641,-6.61 5.217,-7.258 3.573,-0.646 7.03,1.309 7.721,4.916 C 13.63,1.264 11.297,4.713 7.723,5.36 4.15,6.008 0.692,3.609 0,0" />
    </g>
    <g
       transform="matrix(0.35277777,0,0,-0.35277777,-214.54828,41.106958)"
       id="g3951">
      <path
         id="path3953"
         style="fill:#f6c085;fill-opacity:1;fill-rule:evenodd;stroke:none"
         d="m 0,0 c 0.693,-3.606 -1.642,-6.61 -5.216,-7.258 -3.574,-0.646 -7.031,1.309 -7.722,4.916 -0.693,3.606 1.642,7.055 5.215,7.702 C -4.149,6.008 -0.692,3.609 0,0" />
    </g>
    <g
       transform="matrix(0.35277777,0,0,-0.35277777,-203.85865,33.031276)"
       id="g3955">
      <path
         id="path3957"
         style="fill:#f8c997;fill-opacity:1;fill-rule:evenodd;stroke:none"
         d="m 0,0 c -3.489,4.74 -8.93,7.853 -14.708,8.083 -10e-4,0 -0.113,0.004 -0.3,0.012 l 0.007,0.226 c 0,0 -1.4,-0.056 -2.846,-0.113 -1.447,0.057 -2.847,0.113 -2.847,0.113 l 0.006,-0.226 C -20.874,8.087 -20.986,8.083 -20.986,8.083 -26.764,7.853 -32.205,4.74 -35.694,0 c -3.492,-4.745 -3.956,-10.721 -3.681,-16.443 0.708,-14.704 2.022,-31.173 21.59,-31.337 C 1.842,-47.944 2.974,-31.043 3.681,-16.443 3.955,-10.721 3.492,-4.745 0,0" />
    </g>
    <g
       transform="matrix(0.35277777,0,0,-0.35277777,-216.99676,40.50205)"
       id="g3959">
      <path
         id="path3961"
         style="fill:#bf9141;fill-opacity:1;fill-rule:evenodd;stroke:none"
         d="m 0,0 c 0.259,5.419 0.328,15.222 5.074,15.222 0.121,0 14.415,5.923 30.874,5.923 3.789,0 4.729,-10.761 4.802,-17.842 0.058,-6.097 -1.087,-8.912 -0.645,-9.101 0.517,-0.221 2.627,3.318 2.621,11.917 -0.004,3.883 -0.1,9.905 -3.482,15.596 -1.19,2.003 -1.978,4.42 -4.43,6.059 C 29.022,31.648 16.641,30.763 9.976,28.571 -8.462,22.502 -1.904,-5.723 -1.308,-5.666 -0.584,-5.596 -0.036,-0.749 0,0" />
    </g>
    <g
       transform="matrix(0.35277777,0,0,-0.35277777,-209.34456,31.928951)"
       id="g3963">
      <path
         id="path3965"
         style="fill:#bf9141;fill-opacity:1;fill-rule:evenodd;stroke:none"
         d="m 0,0 c 2.308,0.115 13.606,-2.916 13.606,-2.916 -8.435,-8.386 -22.132,-14.009 -34.033,-11.798 0,0 5.424,3.462 5.02,3.115 -0.404,-0.346 -5.041,-1.352 -6.636,-1.154 -1.596,0.199 -1.518,0.778 -1.518,0.778 C -14.318,-3.452 -14.557,-3.535 0,0" />
    </g>
    <g
       transform="matrix(0.35277777,0,0,-0.35277777,-216.43726,39.563556)"
       id="g3967">
      <path
         id="path3969"
         style="fill:#3e3b3a;fill-opacity:1;fill-rule:evenodd;stroke:none"
         d="m 0,0 v 0 c 2.711,0.904 10.349,0.617 13.008,-0.782 3.103,-1.634 0.566,-7.369 -0.919,-9.301 -1.929,-2.508 -9.671,-2.854 -12.009,0.058 -0.756,0.942 -1.287,2.851 -1.512,4.071 -0.225,1.22 -0.411,3.7 0.013,4.787 C -0.994,-0.08 0,0 0,0 m 35.617,0 v 0 c 0,0 0.994,-0.08 1.419,-1.167 0.424,-1.087 0.238,-3.567 0.013,-4.787 -0.225,-1.22 -0.756,-3.129 -1.512,-4.071 -2.338,-2.912 -10.08,-2.566 -12.009,-0.058 -1.484,1.932 -4.022,7.667 -0.919,9.301 C 25.268,0.617 32.906,0.904 35.617,0 M 15.263,-0.517 c -0.185,0.212 -0.731,0.88 -1.565,1.18 C 9.78,2.075 -1.056,1.49 -3.938,0.769 -4.309,0.676 -4.349,0.69 -4.389,0.438 c -0.039,-0.252 -0.053,-1.737 0.067,-1.963 0.119,-0.225 0.689,-0.318 1.193,-1.06 0.904,-1.331 0.84,-6.164 2.998,-8.453 2.234,-2.371 10.703,-2.458 12.995,0.7 1.513,2.086 2.263,4.406 3.075,6.639 0.491,0.503 0.915,0.543 1.299,0.596 0.239,0.033 0.447,0.04 0.571,0.041 0.123,-0.001 0.331,-0.008 0.57,-0.041 0.384,-0.053 0.808,-0.093 1.299,-0.596 0.812,-2.233 1.562,-4.553 3.075,-6.639 2.292,-3.158 10.761,-3.071 12.995,-0.7 2.158,2.289 2.094,7.122 2.998,8.453 0.504,0.742 1.074,0.835 1.193,1.06 0.12,0.226 0.106,1.711 0.066,1.963 C 39.966,0.69 39.926,0.676 39.554,0.769 36.673,1.49 25.837,2.075 21.919,0.663 c -0.834,-0.3 -1.38,-0.968 -1.565,-1.18 -0.327,-0.126 -0.858,-0.186 -2.545,-0.149 -1.688,-0.037 -2.219,0.023 -2.546,0.149" />
    </g>
    <g
       transform="matrix(0.35277777,0,0,-0.35277777,-214.01244,42.146171)"
       id="g3971">
      <path
         id="path3973"
         style="fill:#3e3b3a;fill-opacity:1;fill-rule:evenodd;stroke:none"
         d="M 0,0 C 0.922,0 1.673,0.751 1.673,1.673 1.673,2.595 0.922,3.347 0,3.347 -0.921,3.347 -1.673,2.595 -1.673,1.673 -1.673,0.751 -0.921,0 0,0" />
    </g>
    <g
       transform="matrix(0.35277777,0,0,-0.35277777,-206.29723,42.146171)"
       id="g3975">
      <path
         id="path3977"
         style="fill:#3e3b3a;fill-opacity:1;fill-rule:evenodd;stroke:none"
         d="M 0,0 C 0.922,0 1.673,0.751 1.673,1.673 1.673,2.595 0.922,3.347 0,3.347 -0.922,3.347 -1.673,2.595 -1.673,1.673 -1.673,0.751 -0.922,0 0,0" />
    </g>
    <g
       transform="matrix(0.35277777,0,0,-0.35277777,-207.31467,45.87175)"
       id="g3979">
      <path
         id="path3981"
         style="fill:#d6825b;fill-opacity:1;fill-rule:evenodd;stroke:none"
         d="m 0,0 c -1.537,-1.967 -4.36,-3.286 -7.589,-3.286 -3.229,0 -6.052,1.319 -7.589,3.285 1.873,-1.353 4.492,-2.723 7.502,-2.723 3.01,0 5.803,1.37 7.676,2.724" />
    </g>
    <g
       transform="matrix(0.35277777,0,0,-0.35277777,-211.34417,45.066358)"
       id="g3983">
      <path
         id="path3985"
         style="fill:#e5b17d;fill-opacity:1;fill-rule:evenodd;stroke:none"
         d="m 0,0 c -0.02,0.007 -0.023,0.023 -0.006,0.051 0,0.084 0.048,0.166 0.136,0.244 C 0.818,1.618 2.17,5.477 2.79,9.722 3.469,9.681 2.116,2.497 1.534,0.783 2.123,0.885 2.84,0.945 3.615,0.945 c 2,0 3.621,-0.4 3.621,-0.894 0,-0.494 -1.621,-0.895 -3.621,-0.895 C 1.684,-0.844 0.106,-0.47 0,0" />
    </g>
    <g
       transform="matrix(0.35277777,0,0,-0.35277777,-216.09827,38.538772)"
       id="g3987">
      <path
         id="path3989"
         style="fill:#bf9141;fill-opacity:1;fill-rule:evenodd;stroke:none"
         d="M 0,0 C -0.541,0.927 2.358,1.364 5.298,1.343 10.23,1.307 12.867,-1.103 10.498,-1 8.727,-0.923 0.159,-0.272 0,0" />
    </g>
    <g
       transform="matrix(0.35277777,0,0,-0.35277777,-204.26995,38.498061)"
       id="g3991">
      <path
         id="path3993"
         style="fill:#bf9141;fill-opacity:1;fill-rule:evenodd;stroke:none"
         d="M 0,0 C 0.541,0.927 -2.358,1.364 -5.299,1.343 -10.23,1.307 -12.867,-1.103 -10.498,-1 -8.727,-0.923 -0.158,-0.272 0,0" />
    </g>
  </g>
</svg>
