<?xml version="1.0" encoding="UTF-8" standalone="no"?>
<svg
   xmlns:dc="http://purl.org/dc/elements/1.1/"
   xmlns:cc="http://creativecommons.org/ns#"
   xmlns:rdf="http://www.w3.org/1999/02/22-rdf-syntax-ns#"
   xmlns:svg="http://www.w3.org/2000/svg"
   xmlns="http://www.w3.org/2000/svg"
   id="svg7033"
   version="1.1"
   viewBox="0 0 23.585636 33.433086"
   height="33.433086mm"
   width="23.585636mm">
  <defs
     id="defs7027" />
  <metadata
     id="metadata7030">
    <rdf:RDF>
      <cc:Work
         rdf:about="">
        <dc:format>image/svg+xml</dc:format>
        <dc:type
           rdf:resource="http://purl.org/dc/dcmitype/StillImage" />
        <dc:title></dc:title>
      </cc:Work>
    </rdf:RDF>
  </metadata>
  <g
     transform="translate(-40.367896,-48.962029)"
     id="layer1">
    <g
       transform="matrix(0.35277777,0,0,-0.35277777,44.761033,61.15077)"
       id="g4339">
      <path
         id="path4341"
         style="fill:#4a1e12;fill-opacity:1;fill-rule:evenodd;stroke:none"
         d="m 0,0 c 0.115,-1.154 2.668,-11.081 1.803,-18.351 -0.866,-7.271 -2.566,-14.282 -2.566,-14.282 15.955,-3.331 25.962,-1.431 41.518,1.02 0,0 1.012,4.735 -0.88,13.73 -1.891,8.995 2.413,19.273 2.413,19.273 z" />
    </g>
    <g
       transform="matrix(0.35277777,0,0,-0.35277777,55.551446,52.493145)"
       id="g4343">
      <path
         id="path4345"
         style="fill:#4a1e12;fill-opacity:1;fill-rule:evenodd;stroke:none"
         d="m 0,0 c 30.732,5.256 1.643,-42.569 17.872,-54.875 2.313,-1.754 -10.553,-9.477 -15.35,-1.523 -3.009,4.988 6.828,14.1 7.461,26.929 0.634,12.828 -3.887,17.243 -6.647,22.087 C 0.577,-2.539 0,0 0,0" />
    </g>
    <g
       transform="matrix(0.35277777,0,0,-0.35277777,57.040521,53.165645)"
       id="g4347">
      <path
         id="path4349"
         style="fill:#4a1e12;fill-opacity:1;fill-rule:evenodd;stroke:none"
         d="m 0,0 c 0.826,-7.272 -1.109,-8.156 -6.968,-12.036 -5.86,-3.88 -8.393,-3.88 -7.443,-3.405 0.95,0.475 5.463,8.314 5.463,8.314 0,0 -6.097,-4.909 -12.273,-7.364 -6.176,-2.454 -8.394,-1.504 -8.394,-1.504 0,0 5.464,7.126 4.751,6.572 -0.712,-0.554 -5.939,-3.959 -6.651,-5.543 -0.712,-1.583 -2.234,-8.703 -1.363,-16.541 0.871,-7.839 9.091,-22.757 4.419,-25.845 -6.283,-4.154 -14.299,3.525 -12.991,3.856 9.768,2.477 4.542,40.239 4.866,42.49 0.832,5.769 4.086,9.969 7.724,12.868 C -21.072,8.068 -0.897,7.895 0,0" />
    </g>
    <g
       transform="matrix(0.35277777,0,0,-0.35277777,55.410936,75.916849)"
       id="g4351">
      <path
         id="path4353"
         style="fill:#df2e26;fill-opacity:1;fill-rule:evenodd;stroke:none"
         d="m 0,0 c 0.462,0.346 10.48,7.913 10.48,7.913 4.591,-1.515 5.915,-14.535 6.382,-20.607 H 5.893 Z" />
    </g>
    <g
       transform="matrix(0.35277777,0,0,-0.35277777,52.094543,70.095767)"
       id="g4355">
      <path
         id="path4357"
         style="fill:#f5b67e;fill-opacity:1;fill-rule:evenodd;stroke:none"
         d="m 0,0 h -4.841 v -3.056 c 0.003,-1.899 -0.313,-1.504 -2.087,-2.491 0,0 -1.711,-1.404 -2.232,-1.57 2.151,-6.925 3.706,-15.831 7.911,-22.078 H 0 1.249 c 4.205,6.247 5.76,15.153 7.911,22.078 -0.521,0.166 -2.232,1.57 -2.232,1.57 -1.774,0.987 -2.09,0.592 -2.087,2.491 V 0 Z" />
    </g>
    <g
       transform="matrix(0.35277777,0,0,-0.35277777,48.870753,75.916849)"
       id="g4359">
      <path
         id="path4361"
         style="fill:#df2e26;fill-opacity:1;fill-rule:evenodd;stroke:none"
         d="m 0,0 c -0.462,0.346 -10.48,7.913 -10.48,7.913 -4.591,-1.515 -5.915,-14.535 -6.382,-20.607 h 10.968 z" />
    </g>
    <g
       transform="matrix(0.35277777,0,0,-0.35277777,49.64965,72.061764)"
       id="g4363">
      <path
         id="path4365"
         style="fill:#e53825;fill-opacity:1;fill-rule:evenodd;stroke:none"
         d="M 0,0 C -2.58,-1.176 -11.483,-2.216 -12.536,-3.129 -11.681,-5 -6.333,-13.961 -9.77,-23.622 h 16.7 0.132 0.131 16.701 c -1.476,10.469 2.5,18.5 3.355,20.371 -1.053,0.912 -10.6,1.931 -13.18,3.107 3.129,-2.428 -2.51,-9.901 -7.139,-10.224 C 2.285,-10.04 -3.086,-2.394 0,0" />
    </g>
    <g
       transform="matrix(0.35277777,0,0,-0.35277777,47.075148,61.677467)"
       id="g4367">
      <path
         id="path4369"
         style="fill:#f6c085;fill-opacity:1;fill-rule:evenodd;stroke:none"
         d="m 0,0 c 0.802,-3.606 -0.792,-6.61 -3.524,-7.258 -2.73,-0.646 -5.561,1.309 -6.363,4.916 -0.802,3.607 0.76,7.056 3.491,7.702 C -3.665,6.007 -0.802,3.608 0,0" />
    </g>
    <g
       transform="matrix(0.35277777,0,0,-0.35277777,57.489926,61.677467)"
       id="g4371">
      <path
         id="path4373"
         style="fill:#f6c085;fill-opacity:1;fill-rule:evenodd;stroke:none"
         d="M 0,0 C -0.803,-3.606 0.792,-6.61 3.523,-7.258 6.254,-7.904 9.085,-5.949 9.886,-2.342 10.689,1.265 9.127,4.714 6.396,5.36 3.665,6.007 0.802,3.608 0,0" />
    </g>
    <g
       transform="matrix(0.35277777,0,0,-0.35277777,52.282537,51.323969)"
       id="g4375">
      <path
         id="path4377"
         style="fill:#f8c997;fill-opacity:1;fill-rule:evenodd;stroke:none"
         d="m 0,0 -0.062,-0.003 c -1.446,0.058 -2.847,0.114 -2.847,0.114 l 0.006,-0.226 C -3.088,-0.122 -3.202,-0.128 -3.202,-0.128 -8.98,-0.357 -14.42,-3.47 -17.909,-8.21 c -3.492,-4.745 -3.956,-10.721 -3.681,-16.443 0.708,-14.704 8.944,-31.214 21.59,-31.336 12.646,0.122 20.882,16.632 21.59,31.336 0.275,5.722 -0.189,11.698 -3.681,16.443 -3.489,4.74 -8.929,7.853 -14.708,8.082 0,0 -0.113,0.006 -0.298,0.013 l 0.006,0.226 c 0,0 -1.401,-0.056 -2.847,-0.114 z" />
    </g>
    <g
       transform="matrix(0.35277777,0,0,-0.35277777,48.654536,51.726664)"
       id="g4379">
      <path
         id="path4381"
         style="fill:#4a1e12;fill-opacity:1;fill-rule:evenodd;stroke:none"
         d="m 0,0 c 0.168,0.588 8.212,1.713 8.973,1.76 4.489,0.277 10.344,-0.644 13.156,-2.193 2.813,-1.548 6.694,-5.539 7.271,-7.04 0.577,-1.5 0.461,-1.615 -6.694,-6.578 -7.156,-4.962 -17.888,-7.237 -15.119,-6.347 2.769,0.89 5.015,5.463 5.015,5.463 0,0 -1.899,-2.232 -11.362,-5.579 -9.464,-3.346 -11.948,-2.298 -11.948,-2.298 0,0 -3.018,4.455 -1.369,9.892 1.65,5.437 3.016,5.86 6.162,9.025 C -2.77,-0.729 0,0 0,0" />
    </g>
    <g
       transform="matrix(0.35277777,0,0,-0.35277777,55.453021,53.333849)"
       id="g4383">
      <path
         id="path4385"
         style="fill:#4a1e12;fill-opacity:1;fill-rule:evenodd;stroke:none"
         d="m 0,0 c -0.173,-0.808 -0.019,-5.137 4.963,-11.771 4.981,-6.635 5.366,-7.214 5.366,-7.214 0,0 0.149,-12.146 0.207,-11.627 0.057,0.52 2.667,12.587 2.667,12.587 0,0 0.704,5.157 -0.566,10.35 C 11.368,-2.481 9.766,-0.523 7.565,0.352 5.364,1.227 0,0 0,0" />
    </g>
    <g
       transform="matrix(0.35277777,0,0,-0.35277777,45.661252,58.280464)"
       id="g4387">
      <path
         id="path4389"
         style="fill:#4a1e12;fill-opacity:1;fill-rule:evenodd;stroke:none"
         d="m 0,0 c -0.866,-0.981 -3.517,-3.245 -3.517,-3.245 l 2.86,-13.44 z" />
    </g>
    <g
       transform="matrix(0.35277777,0,0,-0.35277777,45.97995,72.936439)"
       id="g4391">
      <path
         id="path4393"
         style="fill:#e53825;fill-opacity:1;fill-rule:evenodd;stroke:none"
         d="m 0,0 c -1.174,-0.272 -2.043,-0.531 -2.322,-0.772 5.241,-9.949 -2.497,-13.941 0.355,-20.37 h 19.701 0.132 0.131 19.701 c 2.852,6.429 -4.886,10.421 0.355,20.37 C 37.774,-0.531 36.906,-0.272 35.731,0 34.444,-6.607 26.936,-11.678 17.866,-11.678 8.795,-11.678 1.287,-6.607 0,0" />
    </g>
    <g
       transform="matrix(0.35277777,0,0,-0.35277777,52.094543,75.719364)"
       id="g4395">
      <path
         id="path4397"
         style="fill:#efefef;fill-opacity:1;fill-rule:evenodd;stroke:none"
         d="m 0,0 c -3.176,0.224 -6.691,3.869 -7.611,6.917 -0.426,1.411 -0.296,2.694 0.681,3.451 -0.021,-0.009 -0.043,-0.019 -0.065,-0.028 -0.2,-0.089 -0.436,-0.176 -0.7,-0.262 -1.231,-0.533 -3.59,-1.672 -4.371,-2.875 -0.204,-0.314 -0.3,-0.632 -0.24,-0.946 0.375,-1.961 3.404,-2.019 3.404,-2.019 0,0 -0.173,-0.808 0.058,-2.279 0.434,-2.769 1.532,-4.244 2.942,-4.665 C -4.187,-3.218 -2.01,-2.173 0,0" />
    </g>
    <g
       transform="matrix(0.35277777,0,0,-0.35277777,52.094543,75.719364)"
       id="g4399">
      <path
         id="path4401"
         style="fill:#efefef;fill-opacity:1;fill-rule:evenodd;stroke:none"
         d="m 0,0 c 3.175,0.224 6.691,3.869 7.611,6.917 0.425,1.411 0.293,2.719 -0.683,3.476 0.239,-0.109 0.52,-0.234 0.767,-0.315 1.231,-0.533 3.59,-1.672 4.371,-2.875 0.204,-0.314 0.3,-0.632 0.24,-0.946 C 11.931,4.296 8.901,4.238 8.901,4.238 8.901,4.238 9.074,3.43 8.844,1.959 8.409,-0.81 7.312,-2.285 5.902,-2.706 4.187,-3.218 2.01,-2.173 0,0" />
    </g>
    <g
       transform="matrix(0.35277777,0,0,-0.35277777,51.194536,61.626561)"
       id="g4403">
      <path
         id="path4405"
         style="fill:#3e3b3a;fill-opacity:1;fill-rule:evenodd;stroke:none"
         d="m 0,0 v 0 c 0.102,-0.319 0.127,-0.657 0.136,-0.999 0.018,-0.652 -0.05,-1.291 -0.143,-1.928 -0.191,-1.318 -0.684,-3.197 -1.333,-4.26 -0.562,-0.92 -1.141,-1.325 -2.09,-1.546 -0.565,-0.132 -1.132,-0.26 -1.702,-0.35 -2.523,-0.396 -4.932,-0.5 -7.442,0.151 -0.293,0.076 -0.587,0.154 -0.873,0.266 -0.522,0.205 -1.008,0.502 -1.374,1.063 -0.487,0.745 -0.957,2.345 -1.134,3.285 -0.259,1.379 -0.523,3.064 -0.453,4.479 0.027,0.558 0.167,1.035 0.54,1.351 0.501,0.424 1.859,0.684 2.44,0.735 2.592,0.228 5.272,0.236 7.865,-0.05 C -4.128,2.038 -2.182,1.745 -0.846,1.033 -0.467,0.832 -0.164,0.512 0,0 m 6.168,0 v 0 c 0.164,0.512 0.468,0.832 0.846,1.033 1.337,0.712 3.282,1.005 4.717,1.164 2.593,0.286 5.273,0.278 7.865,0.05 0.582,-0.051 1.94,-0.311 2.44,-0.735 0.374,-0.316 0.513,-0.793 0.541,-1.351 0.069,-1.415 -0.194,-3.1 -0.454,-4.479 -0.177,-0.94 -0.647,-2.54 -1.134,-3.285 -0.366,-0.561 -0.852,-0.858 -1.374,-1.063 -0.286,-0.112 -0.58,-0.19 -0.873,-0.266 -2.509,-0.651 -4.919,-0.547 -7.442,-0.151 -0.57,0.09 -1.136,0.218 -1.702,0.35 C 8.65,-8.512 8.07,-8.107 7.509,-7.187 6.859,-6.124 6.367,-4.245 6.175,-2.927 6.082,-2.29 6.014,-1.651 6.032,-0.999 6.041,-0.657 6.066,-0.319 6.168,0 M 1.939,-1.393 c 0.38,0.126 0.761,0.177 1.145,0.153 0.384,0.024 0.765,-0.027 1.145,-0.153 0.416,-0.137 0.685,-0.491 0.829,-1.019 0.161,-0.596 0.313,-1.197 0.484,-1.788 0.352,-1.212 0.777,-2.375 1.396,-3.396 1.017,-1.677 2.678,-1.904 4.185,-2.095 3.004,-0.382 5.289,-0.426 8.274,0.291 0.407,0.098 0.801,0.262 1.184,0.468 0.567,0.306 0.999,0.815 1.306,1.515 0.324,0.739 0.574,1.523 0.814,2.314 0.172,0.569 0.338,1.141 0.509,1.711 0.11,0.369 0.273,0.693 0.483,0.977 0.167,0.223 0.351,0.566 0.495,0.829 0.103,0.187 0.152,0.403 0.163,0.63 0.037,0.787 0.076,1.609 0.089,2.395 C 24.474,3.555 14.746,3.19 13.617,3.14 13.104,3.117 12.592,3.085 12.081,3.04 10.58,2.907 8.149,2.629 6.716,2.107 6.083,1.876 3.924,1.186 3.084,1.265 2.244,1.186 0.086,1.876 -0.548,2.107 c -1.433,0.522 -3.864,0.8 -5.365,0.933 -0.511,0.045 -1.023,0.077 -1.535,0.1 -1.13,0.05 -10.858,0.415 -10.824,-1.701 0.014,-0.786 0.053,-1.608 0.089,-2.395 0.011,-0.227 0.061,-0.443 0.163,-0.63 0.145,-0.263 0.328,-0.606 0.495,-0.829 0.211,-0.284 0.373,-0.608 0.484,-0.977 0.17,-0.57 0.336,-1.142 0.509,-1.711 0.239,-0.791 0.489,-1.575 0.813,-2.314 0.307,-0.7 0.739,-1.209 1.306,-1.515 0.383,-0.206 0.778,-0.37 1.184,-0.468 2.985,-0.717 5.27,-0.673 8.274,-0.291 1.507,0.191 3.168,0.418 4.185,2.095 0.62,1.021 1.044,2.184 1.396,3.396 0.172,0.591 0.323,1.192 0.485,1.788 0.143,0.528 0.412,0.882 0.828,1.019" />
    </g>
    <g
       transform="matrix(0.35277777,0,0,-0.35277777,46.368324,60.355644)"
       id="g4407">
      <path
         id="path4409"
         style="fill:#4a1e12;fill-opacity:1;fill-rule:evenodd;stroke:none"
         d="M 0,0 C -0.991,-0.411 0.656,2.275 5.529,2.381 11.21,2.505 12.938,-0.227 10.7,0.557 5.871,2.25 1.572,0.652 0,0" />
    </g>
    <g
       transform="matrix(0.35277777,0,0,-0.35277777,48.399618,62.861566)"
       id="g4411">
      <path
         id="path4413"
         style="fill:#3e3b3a;fill-opacity:1;fill-rule:evenodd;stroke:none"
         d="M 0,0 C 0.922,0 1.674,0.752 1.674,1.673 1.674,2.595 0.922,3.347 0,3.347 -0.922,3.347 -1.673,2.595 -1.673,1.673 -1.673,0.752 -0.922,0 0,0" />
    </g>
    <g
       transform="matrix(0.35277777,0,0,-0.35277777,56.165351,62.861566)"
       id="g4415">
      <path
         id="path4417"
         style="fill:#3e3b3a;fill-opacity:1;fill-rule:evenodd;stroke:none"
         d="M 0,0 C 0.922,0 1.673,0.752 1.673,1.673 1.673,2.595 0.922,3.347 0,3.347 -0.922,3.347 -1.673,2.595 -1.673,1.673 -1.673,0.752 -0.922,0 0,0" />
    </g>
    <g
       transform="matrix(0.35277777,0,0,-0.35277777,58.541449,60.355644)"
       id="g4419">
      <path
         id="path4421"
         style="fill:#4a1e12;fill-opacity:1;fill-rule:evenodd;stroke:none"
         d="M 0,0 C 0.991,-0.411 -0.656,2.275 -5.529,2.381 -11.21,2.505 -12.938,-0.227 -10.7,0.557 -5.871,2.25 -1.572,0.652 0,0" />
    </g>
    <g
       transform="matrix(0.35277777,0,0,-0.35277777,53.939041,67.414656)"
       id="g4423">
      <path
         id="path4425"
         style="fill:#d6825b;fill-opacity:1;fill-rule:evenodd;stroke:none"
         d="m 0,0 c 0.071,-0.315 0.109,-0.642 0.109,-0.978 0,-2.417 -1.94,-4.375 -4.334,-4.375 -2.393,0 -4.333,1.958 -4.333,4.375 0,0.336 0.037,0.663 0.109,0.978 z" />
    </g>
    <g
       transform="matrix(0.35277777,0,0,-0.35277777,51.173332,65.931262)"
       id="g4427">
      <path
         id="path4429"
         style="fill:#e5b17d;fill-opacity:1;fill-rule:evenodd;stroke:none"
         d="m 0,0 c -0.02,0.007 -0.023,0.023 -0.006,0.051 0,0.084 0.048,0.166 0.137,0.244 C 0.818,1.618 2.17,5.477 2.79,9.723 3.469,9.681 2.117,2.497 1.534,0.783 c 0.589,0.102 1.307,0.162 2.081,0.162 2,0 3.621,-0.4 3.621,-0.894 0,-0.494 -1.621,-0.895 -3.621,-0.895 C 1.684,-0.844 0.107,-0.47 0,0" />
    </g>
  </g>
</svg>
