<?xml version="1.0" encoding="UTF-8" standalone="no"?>
<svg
   xmlns:dc="http://purl.org/dc/elements/1.1/"
   xmlns:cc="http://creativecommons.org/ns#"
   xmlns:rdf="http://www.w3.org/1999/02/22-rdf-syntax-ns#"
   xmlns:svg="http://www.w3.org/2000/svg"
   xmlns="http://www.w3.org/2000/svg"
   id="svg7403"
   version="1.1"
   viewBox="0 0 23.406157 34.436417"
   height="34.436417mm"
   width="23.406157mm">
  <defs
     id="defs7397" />
  <metadata
     id="metadata7400">
    <rdf:RDF>
      <cc:Work
         rdf:about="">
        <dc:format>image/svg+xml</dc:format>
        <dc:type
           rdf:resource="http://purl.org/dc/dcmitype/StillImage" />
        <dc:title></dc:title>
      </cc:Work>
    </rdf:RDF>
  </metadata>
  <g
     transform="translate(105.44117,-36.365125)"
     id="layer1">
    <g
       transform="matrix(0.35277777,0,0,-0.35277777,-96.435123,64.323381)"
       id="g3995">
      <path
         id="path3997"
         style="fill:#e7a123;fill-opacity:1;fill-rule:evenodd;stroke:none"
         d="m 0,0 c -0.462,0.346 -10.774,5.202 -10.774,5.202 -4.591,-1.515 -5.621,-11.824 -6.088,-17.896 h 10.969 z" />
    </g>
    <g
       transform="matrix(0.35277777,0,0,-0.35277777,-89.987508,64.323381)"
       id="g3999">
      <path
         id="path4001"
         style="fill:#e7a123;fill-opacity:1;fill-rule:evenodd;stroke:none"
         d="m 0,0 c 0.462,0.346 10.774,5.202 10.774,5.202 4.591,-1.515 5.621,-11.824 6.088,-17.896 H 5.893 Z" />
    </g>
    <g
       transform="matrix(0.35277777,0,0,-0.35277777,-93.211334,58.502159)"
       id="g4003">
      <path
         id="path4005"
         style="fill:#f5b67e;fill-opacity:1;fill-rule:evenodd;stroke:none"
         d="m 0,0 h -4.841 v -3.056 c 0.003,-1.899 -0.313,-1.505 -2.087,-2.492 0,0 -1.711,-1.403 -2.232,-1.569 2.151,-6.926 3.706,-15.831 7.911,-22.078 H 0 1.249 c 4.205,6.247 5.76,15.152 7.911,22.078 -0.521,0.166 -2.232,1.569 -2.232,1.569 -1.774,0.987 -2.09,0.593 -2.087,2.492 V 0 Z" />
    </g>
    <g
       transform="matrix(0.35277777,0,0,-0.35277777,-95.656224,60.468153)"
       id="g4007">
      <path
         id="path4009"
         style="fill:#f3ab1c;fill-opacity:1;fill-rule:evenodd;stroke:none"
         d="m 0,0 c -2.58,-1.176 -11.988,-4.862 -13.042,-5.775 0.855,-1.871 2.151,-9.571 3.272,-17.847 h 16.7 16.701 c 1.121,8.276 2.417,15.976 3.272,17.847 C 25.849,-4.862 16.441,-1.176 13.861,0 15.483,-10.346 -1.91,-9.077 0,0" />
    </g>
    <g
       transform="matrix(0.35277777,0,0,-0.35277777,-88.64212,50.485284)"
       id="g4011">
      <path
         id="path4013"
         style="fill:#f6c085;fill-opacity:1;fill-rule:evenodd;stroke:none"
         d="m 0,0 c -0.693,-3.606 1.642,-6.61 5.217,-7.258 3.573,-0.646 7.03,1.309 7.721,4.916 C 13.63,1.265 11.296,4.714 7.723,5.36 4.15,6.008 0.692,3.609 0,0" />
    </g>
    <g
       transform="matrix(0.35277777,0,0,-0.35277777,-97.438704,50.485284)"
       id="g4015">
      <path
         id="path4017"
         style="fill:#f6c085;fill-opacity:1;fill-rule:evenodd;stroke:none"
         d="m 0,0 c 0.693,-3.606 -1.642,-6.61 -5.216,-7.258 -3.574,-0.646 -7.031,1.309 -7.722,4.916 -0.693,3.607 1.642,7.056 5.215,7.702 C -4.149,6.008 -0.692,3.609 0,0" />
    </g>
    <g
       transform="matrix(0.35277777,0,0,-0.35277777,-86.749114,42.626664)"
       id="g4019">
      <path
         id="path4021"
         style="fill:#f8c997;fill-opacity:1;fill-rule:evenodd;stroke:none"
         d="m 0,0 c -3.489,4.74 -8.93,7.853 -14.708,8.082 -10e-4,0 -0.113,0.005 -0.3,0.013 l 0.007,0.225 c 0,0 -1.4,-0.055 -2.846,-0.113 -1.447,0.058 -2.847,0.113 -2.847,0.113 l 0.006,-0.225 C -20.874,8.087 -20.986,8.082 -20.986,8.082 -26.764,7.853 -32.205,4.74 -35.694,0 c -3.492,-4.745 -3.956,-10.721 -3.681,-16.443 0.708,-14.704 2.023,-31.173 21.59,-31.337 C 1.842,-47.944 2.974,-31.043 3.681,-16.443 3.955,-10.721 3.492,-4.745 0,0" />
    </g>
    <g
       transform="matrix(0.35277777,0,0,-0.35277777,-91.608417,54.253657)"
       id="g4023">
      <path
         id="path4025"
         style="fill:#d6825b;fill-opacity:1;fill-rule:evenodd;stroke:none"
         d="m 0,0 c 0.071,-0.314 0.109,-0.642 0.109,-0.978 0,-2.416 -1.94,-4.375 -4.334,-4.375 -2.393,0 -4.334,1.959 -4.334,4.375 0,0.336 0.038,0.664 0.109,0.978 z" />
    </g>
    <g
       transform="matrix(0.35277777,0,0,-0.35277777,-100.25931,49.997569)"
       id="g4027">
      <path
         id="path4029"
         style="fill:#a74125;fill-opacity:1;fill-rule:evenodd;stroke:none"
         d="m 0,0 c 0.259,5.42 0.328,15.222 5.074,15.222 0.121,0 14.415,5.923 30.874,5.923 3.789,0 4.728,-10.761 4.802,-17.842 0.014,-1.459 0.115,-2.919 0.198,-4.375 0.049,-0.855 0.111,-1.708 0.154,-2.562 0.017,-0.348 0.108,-1.277 0.556,-1.189 0.504,0.098 0.562,1.977 0.613,2.378 0.361,2.825 0.457,5.721 0.455,8.564 -0.004,3.883 -0.101,9.905 -3.482,15.596 -1.19,2.003 -1.978,4.42 -4.43,6.059 -5.792,3.874 -17.481,2.181 -24.146,-0.011 -4.644,-1.528 -9.383,-3.431 -11.039,-8.068 -1.817,-5.091 -1.77,-9.069 -1.172,-19.153 0.065,-1.094 0.192,-2.189 0.344,-3.273 0.098,-0.721 0.191,-1.461 0.364,-2.167 0.38,-1.542 0.908,-0.442 0.891,0.517 C 0.032,-2.916 -0.07,-1.466 0,0" />
    </g>
    <g
       transform="matrix(0.35277777,0,0,-0.35277777,-87.093003,40.864682)"
       id="g4031">
      <path
         id="path4033"
         style="fill:#a74125;fill-opacity:1;fill-rule:evenodd;stroke:none"
         d="m 0,0 c -0.631,14.5 -28.746,2.361 -32.33,1.705 -8.937,-1.634 -12.583,4.118 -12.583,4.118 -5.735,-16.363 5.983,-30.046 31.874,-12.889 4.752,3.149 10.408,1.09 10.408,1.09 4.603,-6.004 6.577,-6.994 7.52,-15.257 0,0 0.687,5.759 1.886,11.753 C 8.028,-3.214 5.204,0.708 0,0" />
    </g>
    <g
       transform="matrix(0.35277777,0,0,-0.35277777,-100.55373,51.725579)"
       id="g4035">
      <path
         id="path4037"
         style="fill:#a74125;fill-opacity:1;fill-rule:evenodd;stroke:none"
         d="m 0,0 c 0,-0.635 2.581,-12.871 4.35,-15.179 1.769,-2.308 7.774,-5.771 8.778,-6.001 0.792,-0.182 6.047,-1.046 8.232,-1.404 2.187,0.358 7.441,1.222 8.233,1.404 1.004,0.23 7.124,3.981 8.778,6.001 1.654,2.019 5.187,16.852 4.235,15.901 -3.579,-7.152 -4.12,-17.459 -18.541,-17.459 -0.711,0 -2.131,1.107 -2.705,1.579 -0.573,-0.472 -1.993,-1.579 -2.704,-1.579 C 4.235,-16.737 3.578,-7.151 0,0" />
    </g>
    <g
       transform="matrix(0.35277777,0,0,-0.35277777,-97.528522,54.730859)"
       id="g4039">
      <path
         id="path4041"
         style="fill:#a74125;fill-opacity:1;fill-rule:evenodd;stroke:none"
         d="M 0,0 C 4.014,-2.234 11.903,-0.555 12.681,0.976 13.458,-0.555 21.347,-2.234 25.361,0 19.047,1.257 15.833,4.143 12.681,3.166 9.528,4.143 6.315,1.257 0,0" />
    </g>
    <g
       transform="matrix(0.35277777,0,0,-0.35277777,-98.313911,61.606851)"
       id="g4043">
      <path
         id="path4045"
         style="fill:#ed8322;fill-opacity:1;fill-rule:evenodd;stroke:none"
         d="M 0,0 C 0.115,-0.404 0.843,-20.394 0.843,-20.394 H 4.854 L 3.393,1.474 Z" />
    </g>
    <g
       transform="matrix(0.35277777,0,0,-0.35277777,-88.054322,61.606851)"
       id="g4047">
      <path
         id="path4049"
         style="fill:#ed8322;fill-opacity:1;fill-rule:evenodd;stroke:none"
         d="M 0,0 C -0.115,-0.404 -0.843,-20.394 -0.843,-20.394 H -4.854 L -3.393,1.474 Z" />
    </g>
    <g
       transform="matrix(0.35277777,0,0,-0.35277777,-96.902835,51.53501)"
       id="g4051">
      <path
         id="path4053"
         style="fill:#3e3b3a;fill-opacity:1;fill-rule:evenodd;stroke:none"
         d="M 0,0 C 0.922,0 1.673,0.751 1.673,1.673 1.673,2.595 0.922,3.347 0,3.347 -0.922,3.347 -1.674,2.595 -1.674,1.673 -1.674,0.751 -0.922,0 0,0" />
    </g>
    <g
       transform="matrix(0.35277777,0,0,-0.35277777,-89.187514,51.53501)"
       id="g4055">
      <path
         id="path4057"
         style="fill:#3e3b3a;fill-opacity:1;fill-rule:evenodd;stroke:none"
         d="M 0,0 C 0.921,0 1.673,0.751 1.673,1.673 1.673,2.595 0.921,3.347 0,3.347 -0.922,3.347 -1.673,2.595 -1.673,1.673 -1.673,0.751 -0.922,0 0,0" />
    </g>
    <g
       transform="matrix(0.35277777,0,0,-0.35277777,-98.778062,49.134181)"
       id="g4059">
      <path
         id="path4061"
         style="fill:#ed7f22;fill-opacity:1;fill-rule:evenodd;stroke:none"
         d="M 0,0 C -0.541,0.927 2.358,1.364 5.298,1.343 10.229,1.307 12.867,-1.103 10.498,-1 8.727,-0.923 0.158,-0.271 0,0" />
    </g>
    <g
       transform="matrix(0.35277777,0,0,-0.35277777,-87.313946,49.208439)"
       id="g4063">
      <path
         id="path4065"
         style="fill:#ed7f22;fill-opacity:1;fill-rule:evenodd;stroke:none"
         d="m 0,0 c 0.56,0.916 -2.331,1.41 -5.271,1.447 -4.931,0.062 -7.616,-2.295 -5.244,-2.239 C -8.744,-0.75 -0.164,-0.269 0,0" />
    </g>
    <g
       transform="matrix(0.35277777,0,0,-0.35277777,-94.3108,53.210564)"
       id="g4067">
      <path
         id="path4069"
         style="fill:#e5b17d;fill-opacity:1;fill-rule:evenodd;stroke:none"
         d="m 0,0 c -0.02,0.006 -0.023,0.023 -0.006,0.051 0,0.084 0.048,0.166 0.137,0.243 C 0.818,1.618 2.17,5.477 2.79,9.723 3.469,9.681 2.116,2.497 1.534,0.783 c 0.589,0.102 1.307,0.162 2.081,0.162 2,0 3.621,-0.401 3.621,-0.894 0,-0.494 -1.621,-0.895 -3.621,-0.895 C 1.684,-0.844 0.107,-0.47 0,0" />
    </g>
  </g>
</svg>
