<?xml version="1.0" encoding="UTF-8" standalone="no"?>
<svg
   xmlns:dc="http://purl.org/dc/elements/1.1/"
   xmlns:cc="http://creativecommons.org/ns#"
   xmlns:rdf="http://www.w3.org/1999/02/22-rdf-syntax-ns#"
   xmlns:svg="http://www.w3.org/2000/svg"
   xmlns="http://www.w3.org/2000/svg"
   id="svg7836"
   version="1.1"
   viewBox="0 0 22.348652 33.672199"
   height="33.672199mm"
   width="22.348652mm">
  <defs
     id="defs7830" />
  <metadata
     id="metadata7833">
    <rdf:RDF>
      <cc:Work
         rdf:about="">
        <dc:format>image/svg+xml</dc:format>
        <dc:type
           rdf:resource="http://purl.org/dc/dcmitype/StillImage" />
        <dc:title></dc:title>
      </cc:Work>
    </rdf:RDF>
  </metadata>
  <g
     transform="translate(126.83504,-88.907946)"
     id="layer1">
    <g
       transform="matrix(0.35277777,0,0,-0.35277777,-118.8865,116.10191)"
       id="g4139">
      <path
         id="path4141"
         style="fill:#443d47;fill-opacity:1;fill-rule:evenodd;stroke:none"
         d="m 0,0 c -0.462,0.346 -10.774,5.201 -10.774,5.201 -4.591,-1.514 -5.621,-11.823 -6.088,-17.895 h 10.969 z" />
    </g>
    <g
       transform="matrix(0.35277777,0,0,-0.35277777,-112.43888,116.10191)"
       id="g4143">
      <path
         id="path4145"
         style="fill:#443d47;fill-opacity:1;fill-rule:evenodd;stroke:none"
         d="m 0,0 c 0.462,0.346 10.774,5.201 10.774,5.201 4.591,-1.514 5.621,-11.823 6.088,-17.895 H 5.893 Z" />
    </g>
    <g
       transform="matrix(0.35277777,0,0,-0.35277777,-115.66267,110.2808)"
       id="g4147">
      <path
         id="path4149"
         style="fill:#f5b67e;fill-opacity:1;fill-rule:evenodd;stroke:none"
         d="m 0,0 h -4.841 v -3.056 c 0.003,-1.899 -0.313,-1.504 -2.087,-2.491 0,0 -1.712,-1.404 -2.233,-1.57 2.152,-6.925 3.707,-15.831 7.912,-22.078 H 0 1.249 c 4.204,6.247 5.76,15.153 7.911,22.078 -0.521,0.166 -2.232,1.57 -2.232,1.57 -1.774,0.987 -2.09,0.592 -2.087,2.491 V 0 Z" />
    </g>
    <g
       transform="matrix(0.35277777,0,0,-0.35277777,-115.66267,116.15229)"
       id="g4151">
      <path
         id="path4153"
         style="fill:#4d4351;fill-opacity:1;fill-rule:evenodd;stroke:none"
         d="m 0,0 c -7.993,0.631 -6.839,11.02 -6.931,11.071 -2.58,-1.176 -11.988,-4.862 -13.042,-5.775 0.855,-1.871 2.151,-9.571 3.273,-17.847 H 0 16.7 C 17.821,-4.275 19.117,3.425 19.973,5.296 18.919,6.209 9.51,9.895 6.93,11.071 6.839,11.02 7.993,0.631 0,0" />
    </g>
    <g
       transform="matrix(0.35277777,0,0,-0.35277777,-111.09349,102.67678)"
       id="g4155">
      <path
         id="path4157"
         style="fill:#f6c085;fill-opacity:1;fill-rule:evenodd;stroke:none"
         d="m 0,0 c -0.693,-3.937 1.642,-7.216 5.217,-7.922 3.573,-0.706 7.03,1.428 7.721,5.365 C 13.63,1.38 11.296,5.145 7.723,5.851 4.15,6.558 0.692,3.939 0,0" />
    </g>
    <g
       transform="matrix(0.35277777,0,0,-0.35277777,-119.89008,102.67678)"
       id="g4159">
      <path
         id="path4161"
         style="fill:#f6c085;fill-opacity:1;fill-rule:evenodd;stroke:none"
         d="m 0,0 c 0.692,-3.937 -1.642,-7.216 -5.216,-7.922 -3.574,-0.706 -7.031,1.428 -7.722,5.365 -0.693,3.937 1.642,7.702 5.215,8.408 C -4.15,6.558 -0.692,3.939 0,0" />
    </g>
    <g
       transform="matrix(0.35277777,0,0,-0.35277777,-109.20049,94.405201)"
       id="g4163">
      <path
         id="path4165"
         style="fill:#f8c997;fill-opacity:1;fill-rule:evenodd;stroke:none"
         d="m 0,0 c -3.489,4.74 -8.93,7.852 -14.708,8.082 -10e-4,0 -0.114,0.005 -0.299,0.012 l 0.006,0.226 c 0,0 -1.4,-0.055 -2.846,-0.113 -1.446,0.058 -2.847,0.113 -2.847,0.113 l 0.006,-0.226 C -20.874,8.087 -20.987,8.082 -20.987,8.082 -26.765,7.852 -32.205,4.74 -35.694,0 c -3.492,-4.745 -3.956,-10.721 -3.681,-16.443 0.208,-4.325 0.973,-11.305 1.188,-15.631 5.554,-20.772 35.504,-21.111 40.68,0 0.214,4.326 0.978,11.306 1.188,15.631 C 3.955,-10.721 3.492,-4.745 0,0" />
    </g>
    <g
       transform="matrix(0.35277777,0,0,-0.35277777,-121.73507,97.215004)"
       id="g4167">
      <path
         id="path4169"
         style="fill:#a95c40;fill-opacity:1;fill-rule:evenodd;stroke:none"
         d="m 0,0 c -0.276,-0.598 1.31,5.401 4.79,5.505 3.642,0.109 26.279,-1.269 27.439,0.246 3.836,-4.855 6.636,-24.105 6.854,-24.062 0.51,0.099 0.57,1.986 0.621,2.39 0.366,2.839 0.464,5.751 0.462,8.609 -0.006,5.277 1.528,15.438 -8.021,21.77 C 26.273,18.353 14.133,18.74 7.375,16.535 2.669,14.999 -1.844,10.998 -3.522,6.337 -5.364,1.218 -5.317,-2.781 -4.71,-12.918 c 0.065,-1.1 0.195,-2.201 0.347,-3.291 0.102,-0.725 0.195,-1.468 0.371,-2.179 C -3.035,-22.249 -2.944,-4.562 0,0" />
    </g>
    <g
       transform="matrix(0.35277777,0,0,-0.35277777,-109.12369,93.777397)"
       id="g4171">
      <path
         id="path4173"
         style="fill:#a95c40;fill-opacity:1;fill-rule:evenodd;stroke:none"
         d="m 0,0 c -0.739,-7.399 -10.332,-13.128 -17.455,-13.128 l 2.077,1.962 c -8.008,-2.438 -12.477,-0.777 -12.464,-0.779 0.288,-0.058 3.318,1.356 3.318,1.356 -4.553,-0.138 -9.152,-0.204 -12.678,3.096 l 5.089,9.051 z" />
    </g>
    <g
       transform="matrix(0.35277777,0,0,-0.35277777,-119.35414,103.81657)"
       id="g4175">
      <path
         id="path4177"
         style="fill:#3e3b3a;fill-opacity:1;fill-rule:evenodd;stroke:none"
         d="M 0,0 C 0.922,0 1.673,0.752 1.673,1.674 1.673,2.595 0.922,3.347 0,3.347 -0.922,3.347 -1.674,2.595 -1.674,1.674 -1.674,0.752 -0.922,0 0,0" />
    </g>
    <g
       transform="matrix(0.35277777,0,0,-0.35277777,-111.63896,103.81654)"
       id="g4179">
      <path
         id="path4181"
         style="fill:#3e3b3a;fill-opacity:1;fill-rule:evenodd;stroke:none"
         d="M 0,0 C 0.922,0 1.673,0.752 1.673,1.674 1.673,2.595 0.922,3.347 0,3.347 -0.922,3.347 -1.673,2.595 -1.673,1.674 -1.673,0.752 -0.922,0 0,0" />
    </g>
    <g
       transform="matrix(0.35277777,0,0,-0.35277777,-121.38529,101.57121)"
       id="g4183">
      <path
         id="path4185"
         style="fill:#a95c40;fill-opacity:1;fill-rule:evenodd;stroke:none"
         d="m 0,0 c -0.612,0.882 2.244,1.544 5.177,1.752 4.919,0.349 7.737,-1.848 5.367,-1.93 C 8.773,-0.24 0.179,-0.258 0,0" />
    </g>
    <g
       transform="matrix(0.35277777,0,0,-0.35277777,-109.95247,101.61679)"
       id="g4187">
      <path
         id="path4189"
         style="fill:#a95c40;fill-opacity:1;fill-rule:evenodd;stroke:none"
         d="m 0,0 c 0.646,0.858 -2.183,1.63 -5.105,1.953 -4.902,0.54 -7.803,-1.546 -5.438,-1.72 C -8.775,0.103 -0.189,-0.251 0,0" />
    </g>
    <g
       transform="matrix(0.35277777,0,0,-0.35277777,-113.54308,107.41011)"
       id="g4191">
      <path
         id="path4193"
         style="fill:#d6825b;fill-opacity:1;fill-rule:evenodd;stroke:none"
         d="M 0,0 C -1.022,-5.749 -10.288,-5.749 -11.31,0 -8.546,-0.636 -3.379,-0.639 0,0" />
    </g>
    <g
       transform="matrix(0.35277777,0,0,-0.35277777,-116.80969,106.21719)"
       id="g4195">
      <path
         id="path4197"
         style="fill:#e5b17d;fill-opacity:1;fill-rule:evenodd;stroke:none"
         d="m 0,0 c -0.02,0.007 -0.023,0.023 -0.006,0.051 0,0.084 0.048,0.166 0.137,0.244 C 0.818,1.618 2.17,5.478 2.79,9.723 3.469,9.681 2.117,2.497 1.534,0.783 c 0.589,0.102 1.307,0.162 2.081,0.162 2,0 3.621,-0.4 3.621,-0.894 0,-0.494 -1.621,-0.895 -3.621,-0.895 C 1.684,-0.844 0.107,-0.47 0,0" />
    </g>
  </g>
</svg>
