<?xml version="1.0" encoding="UTF-8" standalone="no"?>
<svg
   xmlns:dc="http://purl.org/dc/elements/1.1/"
   xmlns:cc="http://creativecommons.org/ns#"
   xmlns:rdf="http://www.w3.org/1999/02/22-rdf-syntax-ns#"
   xmlns:svg="http://www.w3.org/2000/svg"
   xmlns="http://www.w3.org/2000/svg"
   id="svg7973"
   version="1.1"
   viewBox="0 0 22.437431 33.981594"
   height="33.981594mm"
   width="22.437431mm">
  <defs
     id="defs7967" />
  <metadata
     id="metadata7970">
    <rdf:RDF>
      <cc:Work
         rdf:about="">
        <dc:format>image/svg+xml</dc:format>
        <dc:type
           rdf:resource="http://purl.org/dc/dcmitype/StillImage" />
        <dc:title></dc:title>
      </cc:Work>
    </rdf:RDF>
  </metadata>
  <g
     transform="translate(127.63538,-49.443726)"
     id="layer1">
    <g
       transform="matrix(0.35277777,0,0,-0.35277777,-116.2376,77.613629)"
       id="g4611">
      <path
         id="path4613"
         style="fill:#3e3b3a;fill-opacity:1;fill-rule:evenodd;stroke:none"
         d="M 0,0 C 6.322,0 11.477,7.459 11.477,16.604 11.477,25.75 6.322,33.208 0,33.208 -6.322,33.208 -11.477,25.75 -11.477,16.604 -11.477,7.459 -6.322,0 0,0" />
    </g>
    <g
       transform="matrix(0.35277777,0,0,-0.35277777,-113.14649,76.947053)"
       id="g4615">
      <path
         id="path4617"
         style="fill:#487d72;fill-opacity:1;fill-rule:evenodd;stroke:none"
         d="m 0,0 c 0.462,0.346 10.48,7.913 10.48,7.913 4.59,-1.514 5.915,-14.535 6.382,-20.607 H 5.893 Z" />
    </g>
    <g
       transform="matrix(0.35277777,0,0,-0.35277777,-116.46299,71.125834)"
       id="g4619">
      <path
         id="path4621"
         style="fill:#f5b67e;fill-opacity:1;fill-rule:evenodd;stroke:none"
         d="m 0,0 h -4.841 v -3.056 c 0.003,-1.605 -7.311,-3.68 -8.829,-4.164 -4.542,-7.906 8.678,-12.496 12.883,-18.743 H 0.462 1.71 c 4.206,6.247 16.044,10.491 12.223,18.743 -1.518,0.484 -9.094,2.559 -9.092,4.164 V 0 Z" />
    </g>
    <g
       transform="matrix(0.35277777,0,0,-0.35277777,-120.06608,77.290554)"
       id="g4623">
      <path
         id="path4625"
         style="fill:#487d72;fill-opacity:1;fill-rule:evenodd;stroke:none"
         d="M 0,0 C -0.462,0.346 -9.404,8.887 -9.404,8.887 -13.995,7.372 -15.32,-5.648 -15.787,-11.72 h 10.969 z" />
    </g>
    <g
       transform="matrix(0.35277777,0,0,-0.35277777,-121.28539,73.67303)"
       id="g4627">
      <path
         id="path4629"
         style="fill:#448a7c;fill-opacity:1;fill-rule:evenodd;stroke:none"
         d="M 0,0 C -1.471,-0.288 -2.914,-0.566 -4.064,-0.832 L -4.119,-0.845 -4.173,-0.858 -4.227,-0.87 -4.281,-0.883 -4.334,-0.896 -4.386,-0.908 -4.49,-0.934 -4.541,-0.946 -4.591,-0.959 -4.641,-0.971 -4.644,-0.972 -4.691,-0.984 -4.74,-0.996 -4.788,-1.009 -4.836,-1.021 -4.883,-1.034 -4.93,-1.046 -5.056,-1.08 -5.067,-1.083 -5.112,-1.095 -5.156,-1.108 -5.199,-1.12 -5.242,-1.132 -5.284,-1.144 -5.325,-1.157 -5.359,-1.167 -5.366,-1.169 -5.407,-1.181 -5.446,-1.193 -5.484,-1.205 H -5.485 L -5.523,-1.217 -5.598,-1.242 -5.625,-1.251 -5.635,-1.254 -5.74,-1.29 -5.758,-1.296 -5.773,-1.302 -5.839,-1.326 -5.87,-1.337 -5.898,-1.348 -5.979,-1.38 -6.003,-1.39 C -6.033,-1.403 -6.062,-1.416 -6.09,-1.428 L -6.093,-1.43 -6.097,-1.432 C -6.126,-1.445 -6.154,-1.459 -6.181,-1.473 L -6.186,-1.475 C -6.21,-1.488 -6.233,-1.5 -6.255,-1.513 L -6.263,-1.518 -6.267,-1.52 c -0.022,-0.013 -0.042,-0.026 -0.06,-0.039 l -0.004,-0.002 -0.002,-0.002 c -0.019,-0.014 -0.037,-0.027 -0.053,-0.041 0.462,-1.012 1.079,-4.471 1.725,-8.743 -0.653,-4.359 -3.207,-7.488 -1.37,-11.628 h 3 16.701 0.131 0.132 16.7 3.001 c 1.836,4.14 -0.717,7.269 -1.37,11.628 0.646,4.272 1.262,7.731 1.725,8.743 -0.016,0.014 -0.034,0.027 -0.054,0.041 l -0.002,0.002 -0.003,0.002 c -0.019,0.013 -0.039,0.026 -0.06,0.039 l -0.004,0.002 -0.009,0.005 c -0.021,0.013 -0.044,0.025 -0.068,0.038 l -0.006,0.002 c -0.026,0.014 -0.054,0.028 -0.084,0.041 l -0.003,0.002 -0.003,0.002 -0.087,0.038 -0.025,0.01 -0.08,0.032 -0.028,0.011 -0.032,0.011 -0.065,0.024 -0.016,0.006 -0.018,0.006 -0.105,0.036 -0.009,0.003 -0.027,0.009 -0.075,0.025 -0.038,0.012 h -0.002 l -0.037,0.012 -0.04,0.012 -0.04,0.012 -0.007,0.002 -0.034,0.01 -0.042,0.013 -0.042,0.012 -0.043,0.012 -0.043,0.012 -0.044,0.013 -0.044,0.012 -0.012,0.003 -0.125,0.034 -0.047,0.012 -0.047,0.013 -0.048,0.012 -0.049,0.013 -0.049,0.012 -0.046,0.012 -0.003,0.001 -0.05,0.012 -0.051,0.013 -0.051,0.012 -0.103,0.026 -0.052,0.012 -0.054,0.013 -0.053,0.013 -0.054,0.012 -0.054,0.013 -0.055,0.013 c -1.15,0.266 -2.594,0.545 -4.065,0.832 0.145,-0.592 0.221,-1.202 0.221,-1.825 0,-5.673 -6.278,-10.272 -14.022,-10.272 -7.744,0 -14.022,4.599 -14.022,10.272 0,0.623 0.076,1.233 0.221,1.825" />
    </g>
    <g
       transform="matrix(0.35277777,0,0,-0.35277777,-121.48227,63.141836)"
       id="g4631">
      <path
         id="path4633"
         style="fill:#f6c085;fill-opacity:1;fill-rule:evenodd;stroke:none"
         d="m 0,0 c 0.803,-3.606 -0.792,-6.61 -3.524,-7.258 -2.73,-0.646 -5.561,1.309 -6.363,4.916 -0.802,3.606 0.76,7.055 3.491,7.702 C -3.665,6.008 -0.802,3.608 0,0" />
    </g>
    <g
       transform="matrix(0.35277777,0,0,-0.35277777,-111.06757,63.141836)"
       id="g4635">
      <path
         id="path4637"
         style="fill:#f6c085;fill-opacity:1;fill-rule:evenodd;stroke:none"
         d="M 0,0 C -0.802,-3.606 0.792,-6.61 3.524,-7.258 6.255,-7.904 9.085,-5.949 9.887,-2.342 10.689,1.264 9.127,4.713 6.396,5.36 3.666,6.008 0.802,3.608 0,0" />
    </g>
    <g
       transform="matrix(0.35277777,0,0,-0.35277777,-116.27488,52.354032)"
       id="g4639">
      <path
         id="path4641"
         style="fill:#f8c997;fill-opacity:1;fill-rule:evenodd;stroke:none"
         d="m 0,0 -0.062,-0.003 c -1.446,0.058 -2.847,0.114 -2.847,0.114 l 0.006,-0.226 C -3.088,-0.123 -3.201,-0.128 -3.201,-0.128 -8.98,-0.357 -14.42,-3.47 -17.909,-8.21 c -3.492,-4.745 -3.956,-10.721 -3.681,-16.443 0.708,-14.704 8.944,-31.214 21.59,-31.337 12.646,0.123 20.882,16.633 21.59,31.337 0.275,5.722 -0.189,11.698 -3.681,16.443 -3.489,4.74 -8.929,7.853 -14.707,8.082 0,0 -0.114,0.005 -0.299,0.013 l 0.006,0.226 c 0,0 -1.401,-0.056 -2.847,-0.114 z" />
    </g>
    <g
       transform="matrix(0.35277777,0,0,-0.35277777,-113.10437,54.36395)"
       id="g4643">
      <path
         id="path4645"
         style="fill:#3e3b3a;fill-opacity:1;fill-rule:evenodd;stroke:none"
         d="m 0,0 c -0.173,-0.808 -0.019,-5.137 4.963,-11.772 4.981,-6.634 5.366,-7.213 5.366,-7.213 0,0 -0.011,-11.509 0.652,-10.095 0.664,1.414 1.968,10.095 1.991,10.623 0.023,0.527 0.934,5.589 -0.335,10.782 -1.27,5.194 -2.871,7.152 -5.073,8.027 C 5.364,1.227 0,0 0,0" />
    </g>
    <g
       transform="matrix(0.35277777,0,0,-0.35277777,-122.89617,59.310634)"
       id="g4647">
      <path
         id="path4649"
         style="fill:#3e3b3a;fill-opacity:1;fill-rule:evenodd;stroke:none"
         d="M 0,0 C -0.866,-0.981 -3.658,-3.325 -3.658,-3.325 -2.83,-7.27 -2.116,-14.561 -1.172,-15.159 -0.775,-14.088 -0.404,-6.891 0,0" />
    </g>
    <g
       transform="matrix(0.35277777,0,0,-0.35277777,-109.46066,61.061435)"
       id="g4651">
      <path
         id="path4653"
         style="fill:#3e3b3a;fill-opacity:1;fill-rule:evenodd;stroke:none"
         d="m 0,0 c 0.227,3.791 2.172,12.448 1.219,14.811 -2.75,6.813 -7.785,9.572 -16.238,10.417 -2.596,0.259 -4.76,0.029 -4.76,0.029 C -14.929,17.253 -10.835,6.617 0,0" />
    </g>
    <g
       transform="matrix(0.35277777,0,0,-0.35277777,-112.33598,55.090953)"
       id="g4655">
      <path
         id="path4657"
         style="fill:#3e3b3a;fill-opacity:1;fill-rule:evenodd;stroke:none"
         d="m 0,0 c -1.714,-10.691 -24.271,-7.245 -31.693,-20.104 -8.27,12.503 4.394,38.117 26.434,28.218 z" />
    </g>
    <g
       transform="matrix(0.35277777,0,0,-0.35277777,-120.13251,64.122347)"
       id="g4659">
      <path
         id="path4661"
         style="fill:#3e3b3a;fill-opacity:1;fill-rule:evenodd;stroke:none"
         d="M 0,0 C 0.921,0 1.673,0.752 1.673,1.673 1.673,2.595 0.921,3.347 0,3.347 -0.922,3.347 -1.673,2.595 -1.673,1.673 -1.673,0.752 -0.922,0 0,0" />
    </g>
    <g
       transform="matrix(0.35277777,0,0,-0.35277777,-112.41733,64.122313)"
       id="g4663">
      <path
         id="path4665"
         style="fill:#3e3b3a;fill-opacity:1;fill-rule:evenodd;stroke:none"
         d="M 0,0 C 0.922,0 1.673,0.752 1.673,1.673 1.673,2.595 0.922,3.347 0,3.347 -0.922,3.347 -1.673,2.595 -1.673,1.673 -1.673,0.752 -0.922,0 0,0" />
    </g>
    <g
       transform="matrix(0.35277777,0,0,-0.35277777,-117.49458,66.52293)"
       id="g4667">
      <path
         id="path4669"
         style="fill:#e5b17d;fill-opacity:1;fill-rule:evenodd;stroke:none"
         d="m 0,0 c -0.02,0.007 -0.023,0.023 -0.006,0.051 0,0.084 0.048,0.166 0.136,0.244 C 0.818,1.618 2.17,5.477 2.79,9.723 3.469,9.681 2.116,2.497 1.534,0.783 2.123,0.885 2.84,0.945 3.615,0.945 c 2,0 3.621,-0.4 3.621,-0.894 0,-0.494 -1.621,-0.895 -3.621,-0.895 C 1.684,-0.844 0.106,-0.47 0,0" />
    </g>
    <g
       transform="matrix(0.35277777,0,0,-0.35277777,-114.54557,61.301537)"
       id="g4671">
      <path
         id="path4673"
         style="fill:#3e3b3a;fill-opacity:1;fill-rule:evenodd;stroke:none"
         d="M 0,0 C -0.991,-0.411 0.657,2.275 5.529,2.381 11.21,2.505 12.938,-0.227 10.7,0.558 5.871,2.25 1.572,0.652 0,0" />
    </g>
    <g
       transform="matrix(0.35277777,0,0,-0.35277777,-118.00519,61.301537)"
       id="g4675">
      <path
         id="path4677"
         style="fill:#3e3b3a;fill-opacity:1;fill-rule:evenodd;stroke:none"
         d="M 0,0 C 0.991,-0.411 -0.657,2.275 -5.529,2.381 -11.21,2.505 -12.938,-0.227 -10.7,0.558 -5.871,2.25 -1.572,0.652 0,0" />
    </g>
    <g
       transform="matrix(0.35277777,0,0,-0.35277777,-116.96467,62.322122)"
       id="g4679">
      <path
         id="path4681"
         style="fill:#5a5858;fill-opacity:1;fill-rule:evenodd;stroke:none"
         d="m 0,0 v 0 c -0.275,0.044 -0.494,0.144 -0.637,0.419 -0.264,0.508 -0.679,0.87 -1.179,1.157 -2.226,1.277 -8.71,1.46 -11.242,1.46 0,0 -2.279,-0.038 -3.38,-0.085 -0.901,-0.039 -1.631,-0.139 -2.495,-0.325 -0.171,-0.103 -0.227,-0.287 -0.22,-0.507 0.023,-0.756 0.05,-1.511 0.142,-2.263 0.015,-0.13 0.069,-0.244 0.194,-0.307 0.518,-0.262 0.74,-0.711 0.846,-1.261 0.433,-2.243 1.041,-4.534 2.329,-6.452 0.655,-0.975 1.563,-1.625 2.631,-2.084 2.801,-1.203 7.016,-1.426 9.575,0.587 1.254,0.986 2.247,3.191 2.732,4.658 0.277,0.838 0.534,1.683 0.717,2.548 0.039,0.184 0.064,0.372 0.085,0.559 0.028,0.268 0.121,0.367 0.397,0.352 1.286,-0.075 1.682,-0.075 2.969,0 0.276,0.015 0.368,-0.084 0.397,-0.352 0.02,-0.187 0.045,-0.375 0.084,-0.559 0.183,-0.865 0.44,-1.71 0.717,-2.548 0.485,-1.467 1.479,-3.672 2.732,-4.658 2.559,-2.013 6.775,-1.79 9.576,-0.587 1.067,0.459 1.976,1.109 2.63,2.084 1.289,1.918 1.897,4.209 2.329,6.452 0.107,0.55 0.328,0.999 0.846,1.261 0.125,0.063 0.179,0.177 0.195,0.307 0.091,0.752 0.118,1.507 0.142,2.263 0.006,0.22 -0.05,0.404 -0.221,0.507 -0.864,0.186 -1.593,0.286 -2.494,0.325 -1.102,0.047 -3.38,0.085 -3.38,0.085 C 14.484,3.036 8.001,2.853 5.775,1.576 5.274,1.289 4.86,0.927 4.596,0.419 4.452,0.144 4.233,0.044 3.959,0 2.644,-0.212 1.314,-0.212 0,0 m -13.27,1.772 v 0 c -2.377,-0.25 -3.251,-1.302 -3.132,-3.746 0.24,-4.893 1.837,-7.555 6.787,-8.257 4.609,-0.655 7.332,1.336 8.225,6.215 0.297,1.618 0.181,3.521 -1.381,4.443 -2.53,1.494 -7.489,1.661 -10.499,1.345 m 30.499,0 c 2.376,-0.25 3.251,-1.302 3.131,-3.746 -0.24,-4.893 -1.837,-7.555 -6.786,-8.257 -4.61,-0.655 -7.333,1.336 -8.226,6.215 -0.296,1.618 -0.18,3.521 1.381,4.443 2.53,1.494 7.489,1.661 10.5,1.345" />
    </g>
    <g
       transform="matrix(0.35277777,0,0,-0.35277777,-113.7526,67.871951)"
       id="g4683">
      <path
         id="path4685"
         style="fill:#d6825b;fill-opacity:1;fill-rule:evenodd;stroke:none"
         d="m 0,0 c -1.537,-1.967 -4.36,-3.285 -7.589,-3.285 -3.229,0 -6.052,1.318 -7.589,3.285 1.873,-1.354 4.493,-2.724 7.502,-2.724 3.01,0 5.803,1.37 7.676,2.724" />
    </g>
  </g>
</svg>
