<?xml version="1.0" encoding="UTF-8" standalone="no"?>
<svg
   xmlns:dc="http://purl.org/dc/elements/1.1/"
   xmlns:cc="http://creativecommons.org/ns#"
   xmlns:rdf="http://www.w3.org/1999/02/22-rdf-syntax-ns#"
   xmlns:svg="http://www.w3.org/2000/svg"
   xmlns="http://www.w3.org/2000/svg"
   id="svg8126"
   version="1.1"
   viewBox="0 0 22.459646 34.92062"
   height="34.92062mm"
   width="22.459646mm">
  <defs
     id="defs8120" />
  <metadata
     id="metadata8123">
    <rdf:RDF>
      <cc:Work
         rdf:about="">
        <dc:format>image/svg+xml</dc:format>
        <dc:type
           rdf:resource="http://purl.org/dc/dcmitype/StillImage" />
        <dc:title></dc:title>
      </cc:Work>
    </rdf:RDF>
  </metadata>
  <g
     transform="translate(-36.395177,-198.65279)"
     id="layer1">
    <g
       transform="matrix(0.35277777,0,0,-0.35277777,45.250919,223.76604)"
       id="g4199">
      <path
         id="path4201"
         style="fill:#7d7873;fill-opacity:1;fill-rule:evenodd;stroke:none"
         d="M 0,0 -0.142,4.584 14.332,4.586 14.195,0.144 Z" />
    </g>
    <g
       transform="matrix(0.35277777,0,0,-0.35277777,44.343716,227.09524)"
       id="g4203">
      <path
         id="path4205"
         style="fill:#7f7a77;fill-opacity:1;fill-rule:evenodd;stroke:none"
         d="m 0,0 c -0.461,0.346 -10.774,5.201 -10.774,5.201 -4.591,-1.514 -5.621,-11.823 -6.088,-17.895 h 10.969 z" />
    </g>
    <g
       transform="matrix(0.35277777,0,0,-0.35277777,50.791331,227.09524)"
       id="g4207">
      <path
         id="path4209"
         style="fill:#7f7a77;fill-opacity:1;fill-rule:evenodd;stroke:none"
         d="m 0,0 c 0.462,0.346 10.775,5.201 10.775,5.201 4.59,-1.514 5.62,-11.823 6.087,-17.895 H 5.894 Z" />
    </g>
    <g
       transform="matrix(0.35277777,0,0,-0.35277777,47.567542,221.27406)"
       id="g4211">
      <path
         id="path4213"
         style="fill:#f5b67e;fill-opacity:1;fill-rule:evenodd;stroke:none"
         d="m 0,0 h -4.841 v -3.056 c 0.003,-1.899 -0.313,-1.505 -2.087,-2.492 0,0 -1.711,-1.403 -2.232,-1.569 2.151,-6.925 3.706,-15.831 7.911,-22.078 H 0 1.249 c 4.205,6.247 5.76,15.153 7.911,22.078 -0.521,0.166 -2.232,1.569 -2.232,1.569 -1.774,0.987 -2.09,0.593 -2.087,2.492 V 0 Z" />
    </g>
    <g
       transform="matrix(0.35277777,0,0,-0.35277777,47.720223,227.20665)"
       id="g4215">
      <path
         id="path4217"
         style="fill:#857e79;fill-opacity:1;fill-rule:evenodd;stroke:none"
         d="m 0,0 c 0,0 -1.51,1.992 -2.206,3.122 -2.102,3.413 -5.088,8.084 -5.157,8.122 -2.58,-1.176 -11.989,-4.862 -13.043,-5.775 0.856,-1.871 2.152,-9.571 3.273,-17.847 h 16.7 16.701 C 17.389,-4.102 18.685,3.598 19.54,5.469 18.486,6.382 9.078,10.068 6.498,11.244 6.433,11.208 4.566,6.397 2.397,3.124 1.497,1.766 0,0 0,0" />
    </g>
    <g
       transform="matrix(0.35277777,0,0,-0.35277777,52.136825,213.67015)"
       id="g4219">
      <path
         id="path4221"
         style="fill:#f6c085;fill-opacity:1;fill-rule:evenodd;stroke:none"
         d="m 0,0 c -0.693,-3.936 1.641,-7.215 5.216,-7.922 3.574,-0.706 7.03,1.428 7.722,5.365 C 13.63,1.38 11.296,5.145 7.723,5.851 4.15,6.558 0.692,3.939 0,0" />
    </g>
    <g
       transform="matrix(0.35277777,0,0,-0.35277777,43.340242,213.67015)"
       id="g4223">
      <path
         id="path4225"
         style="fill:#f6c085;fill-opacity:1;fill-rule:evenodd;stroke:none"
         d="m 0,0 c 0.693,-3.936 -1.642,-7.215 -5.216,-7.922 -3.574,-0.706 -7.031,1.428 -7.722,5.365 -0.693,3.937 1.642,7.702 5.215,8.408 C -4.15,6.558 -0.692,3.939 0,0" />
    </g>
    <g
       transform="matrix(0.35277777,0,0,-0.35277777,54.029831,205.39856)"
       id="g4227">
      <path
         id="path4229"
         style="fill:#f8c997;fill-opacity:1;fill-rule:evenodd;stroke:none"
         d="m 0,0 c -3.489,4.74 -8.931,7.853 -14.708,8.082 -10e-4,0 -0.114,0.005 -0.3,0.013 l 0.007,0.226 c 0,0 -1.4,-0.056 -2.846,-0.113 -1.446,0.057 -2.847,0.113 -2.847,0.113 l 0.006,-0.226 C -20.874,8.087 -20.987,8.082 -20.987,8.082 -26.765,7.853 -32.205,4.74 -35.694,0 c -3.492,-4.745 -3.957,-10.721 -3.682,-16.443 0.209,-4.324 0.974,-11.305 1.189,-15.631 5.553,-20.772 35.504,-21.111 40.679,0 0.215,4.326 0.979,11.307 1.188,15.631 C 3.955,-10.721 3.492,-4.745 0,0" />
    </g>
    <g
       transform="matrix(0.35277777,0,0,-0.35277777,41.495143,208.20826)"
       id="g4231">
      <path
         id="path4233"
         style="fill:#402412;fill-opacity:1;fill-rule:evenodd;stroke:none"
         d="m 0,0 c -0.276,-0.598 1.31,5.401 4.79,5.505 3.642,0.109 26.279,-1.269 27.439,0.246 3.836,-4.855 6.376,-24.798 6.595,-24.755 1.163,0.226 1.343,10.559 1.343,11.692 -0.007,5.277 1.527,15.438 -8.022,21.77 C 26.273,18.353 14.133,18.74 7.376,16.535 2.668,14.999 -1.844,10.998 -3.522,6.337 -5.364,1.218 -5.317,-2.782 -4.71,-12.918 c 0.066,-1.1 0.195,-2.201 0.348,-3.291 0.101,-0.725 0.194,-1.468 0.37,-2.179 C -3.035,-22.249 -2.944,-4.562 0,0" />
    </g>
    <g
       transform="matrix(0.35277777,0,0,-0.35277777,41.009437,206.31487)"
       id="g4235">
      <path
         id="path4237"
         style="fill:#402412;fill-opacity:1;fill-rule:evenodd;stroke:none"
         d="m 0,0 c 0.154,-0.445 0.736,-2.634 8.331,-5.207 7.596,-2.572 14.885,-2.633 14.334,-2.511 -0.552,0.122 -2.205,1.592 -2.205,1.592 0,0 5.451,-1.776 9.433,-1.408 3.982,0.367 6.86,2.634 6.37,2.634 -0.49,0 -2.695,0.98 -2.695,0.98 0,0 4.962,2.389 7.841,5.696 2.879,3.308 3.798,6.432 3.43,6.126 -0.367,-0.306 -2.817,-1.531 -2.449,-1.103 0.367,0.429 0.673,5.33 0.673,5.33 0,0 -2.144,-1.47 -2.756,-1.592 -0.613,-0.123 0.674,4.042 0.674,4.042 0,0 -5.881,-1.101 -9.25,-0.612 -3.369,0.49 -5.268,1.471 -10.229,1.715 -4.962,0.246 -7.963,-1.225 -7.963,-1.225 l 0.796,1.593 c 0,0 -6.952,-1.99 -8.79,-3.368 C 3.707,11.303 1.992,8.516 1.992,8.516 c 0,0 -1.745,0.551 -3.154,0.49 C -2.57,8.945 -3.183,8.608 -3.183,8.608 L 0.002,7.567 c 0,0 -1.439,-0.399 -2.511,-1.348 C -3.581,5.27 -4.47,4.167 -4.01,4.442 c 0.459,0.276 3.093,0.521 3.093,0.521 z" />
    </g>
    <g
       transform="matrix(0.35277777,0,0,-0.35277777,45.974327,224.71385)"
       id="g4239">
      <path
         id="path4241"
         style="fill:#756e6a;fill-opacity:1;fill-rule:evenodd;stroke:none"
         d="m 0,0 c 0.26,0 1.719,-0.231 1.719,-0.231 l 1.024,-3.714 -3.666,1.694 z" />
    </g>
    <g
       transform="matrix(0.35277777,0,0,-0.35277777,45.200826,222.14884)"
       id="g4243">
      <path
         id="path4245"
         style="fill:#9f9993;fill-opacity:1;fill-rule:evenodd;stroke:none"
         d="m 0,0 3.911,-7.502 c 0,0 -4.026,-3.952 -3.969,-3.779 C 0,-11.108 -1.864,-4.116 -1.726,-3.746 -1.587,-3.376 0,0 0,0" />
    </g>
    <g
       transform="matrix(0.35277777,0,0,-0.35277777,49.533536,224.71325)"
       id="g4247">
      <path
         id="path4249"
         style="fill:#756e6a;fill-opacity:1;fill-rule:evenodd;stroke:none"
         d="M 0,0 C -0.26,0 -1.719,-0.231 -1.719,-0.231 L -2.743,-3.944 0.923,-2.25 Z" />
    </g>
    <g
       transform="matrix(0.35277777,0,0,-0.35277777,50.307038,222.14824)"
       id="g4251">
      <path
         id="path4253"
         style="fill:#9f9993;fill-opacity:1;fill-rule:evenodd;stroke:none"
         d="m 0,0 -3.911,-7.502 c 0,0 4.026,-3.952 3.969,-3.779 C 0,-11.108 1.864,-4.116 1.725,-3.746 1.587,-3.376 0,0 0,0" />
    </g>
    <g
       transform="matrix(0.35277777,0,0,-0.35277777,46.436536,211.64887)"
       id="g4255">
      <path
         id="path4257"
         style="fill:#3e3b3a;fill-opacity:1;fill-rule:evenodd;stroke:none"
         d="m 0,0 v 0 c 0.588,-0.46 0.767,-1.457 0.818,-2.685 0.211,-5.062 -2.614,-11.256 -8.28,-11.559 -4.274,-0.228 -7.162,1.785 -8.329,6.125 -0.32,1.189 -0.461,2.826 -0.409,3.9 0.051,1.074 0.447,2.135 1.189,3.043 C -13.038,1.239 -6.344,1.1 -3.58,0.921 -2.603,0.857 -0.793,0.62 0,0 m 7.353,0 v 0 c 0.793,0.62 2.603,0.857 3.581,0.921 2.764,0.179 9.458,0.318 11.431,-2.097 0.741,-0.908 1.138,-1.969 1.189,-3.043 0.051,-1.074 -0.09,-2.711 -0.409,-3.9 -1.167,-4.34 -4.056,-6.353 -8.329,-6.125 C 9.15,-13.941 6.324,-7.747 6.535,-2.685 6.586,-1.457 6.765,-0.46 7.353,0 M 2.011,-2.781 v 0 c -0.151,-0.117 -0.363,0.264 -0.384,0.383 -0.209,1.191 0.07,2.9 -1.598,3.21 H 7.325 C 5.657,0.502 5.936,-1.207 5.726,-2.398 5.705,-2.517 5.493,-2.89 5.343,-2.781 c -0.15,0.108 -3.182,0.117 -3.332,0 m -17.236,2.608 c -0.906,-1.007 -1.308,-1.871 -1.624,-3.011 0,0 -0.832,-0.032 -1.113,-0.275 -0.281,-0.243 -0.288,-1.093 -0.032,-1.279 0.256,-0.185 1.093,-0.172 1.093,-0.172 -0.006,-6.003 3.23,-10.28 9.403,-10.057 3.046,0.11 5.449,1.409 7.181,4.373 0.972,1.662 1.663,3.734 1.816,4.808 0.154,1.074 0.281,1.611 0.537,1.764 0.207,0.124 1.249,0.14 1.641,0.141 0.392,-0.001 1.434,-0.017 1.641,-0.141 0.255,-0.153 0.383,-0.69 0.536,-1.764 0.154,-1.074 0.844,-3.146 1.816,-4.808 1.733,-2.964 4.135,-4.263 7.181,-4.373 6.174,-0.223 9.41,4.054 9.403,10.057 0,0 0.838,-0.013 1.093,0.172 0.256,0.186 0.25,1.036 -0.032,1.279 -0.281,0.243 -1.112,0.275 -1.112,0.275 -0.317,1.14 -0.718,2.004 -1.624,3.011 -0.842,0.936 -2.871,1.628 -5.357,1.824 -6.157,0.485 -20.433,0.452 -26.605,0.065 -2.699,-0.17 -4.942,-0.889 -5.842,-1.889" />
    </g>
    <g
       transform="matrix(0.35277777,0,0,-0.35277777,41.094844,212.02945)"
       id="g4259">
      <path
         id="path4261"
         style="fill:#5a5858;fill-opacity:1;fill-rule:evenodd;stroke:none"
         d="m 0,0 c -0.755,-0.924 -1.158,-2.004 -1.21,-3.097 -0.052,-1.094 0.091,-2.76 0.416,-3.97 0.645,-2.398 1.806,-4.098 3.428,-5.113 1.366,-0.857 3.06,-1.227 5.049,-1.121 5.768,0.308 8.644,6.613 8.429,11.765 C 16.06,-0.287 15.878,0.729 15.279,1.197 14.472,1.828 12.629,2.07 11.635,2.134 9.352,2.282 4.436,2.403 1.59,1.13 0.928,0.835 0.379,0.463 0,0" />
    </g>
    <g
       transform="matrix(0.35277777,0,0,-0.35277777,48.708531,212.58077)"
       id="g4263">
      <path
         id="path4265"
         style="fill:#5a5858;fill-opacity:1;fill-rule:evenodd;stroke:none"
         d="m 0,0 c -0.213,-5.118 2.644,-11.381 8.373,-11.687 1.982,-0.106 3.669,0.265 5.029,1.12 1.605,1.011 2.754,2.697 3.392,5.073 0.324,1.202 0.466,2.857 0.414,3.943 -0.052,1.086 -0.452,2.159 -1.202,3.077 -0.374,0.458 -0.916,0.825 -1.568,1.118 -2.825,1.27 -7.72,1.15 -9.99,1.003 C 3.459,3.583 1.629,3.343 0.828,2.715 0.233,2.25 0.052,1.242 0,0" />
    </g>
    <g
       transform="matrix(0.35277777,0,0,-0.35277777,50.731429,218.78496)"
       id="g4267">
      <path
         id="path4269"
         style="fill:#d6825b;fill-opacity:1;fill-rule:evenodd;stroke:none"
         d="m 0,0 c -1.537,-1.967 -4.36,-3.285 -7.589,-3.285 -3.229,0 -6.052,1.318 -7.589,3.285 1.873,-1.354 4.493,-2.724 7.502,-2.724 3.01,0 5.803,1.37 7.676,2.724" />
    </g>
    <g
       transform="matrix(0.35277777,0,0,-0.35277777,46.701826,217.97947)"
       id="g4271">
      <path
         id="path4273"
         style="fill:#e5b17d;fill-opacity:1;fill-rule:evenodd;stroke:none"
         d="m 0,0 c -0.02,0.007 -0.023,0.023 -0.006,0.051 0,0.084 0.048,0.166 0.137,0.243 C 0.818,1.618 2.17,5.477 2.79,9.723 3.469,9.681 2.116,2.497 1.534,0.783 c 0.589,0.102 1.307,0.162 2.081,0.162 2,0 3.621,-0.4 3.621,-0.894 0,-0.494 -1.621,-0.895 -3.621,-0.895 C 1.684,-0.844 0.107,-0.47 0,0" />
    </g>
  </g>
</svg>
