<?xml version="1.0" encoding="UTF-8" standalone="no"?>
<svg
   xmlns:dc="http://purl.org/dc/elements/1.1/"
   xmlns:cc="http://creativecommons.org/ns#"
   xmlns:rdf="http://www.w3.org/1999/02/22-rdf-syntax-ns#"
   xmlns:svg="http://www.w3.org/2000/svg"
   xmlns="http://www.w3.org/2000/svg"
   id="svg8752"
   version="1.1"
   viewBox="0 0 22.43733 33.981495"
   height="33.981495mm"
   width="22.43733mm">
  <defs
     id="defs8746" />
  <metadata
     id="metadata8749">
    <rdf:RDF>
      <cc:Work
         rdf:about="">
        <dc:format>image/svg+xml</dc:format>
        <dc:type
           rdf:resource="http://purl.org/dc/dcmitype/StillImage" />
        <dc:title></dc:title>
      </cc:Work>
    </rdf:RDF>
  </metadata>
  <g
     transform="translate(19.534142,-204.41401)"
     id="layer1">
    <g
       transform="matrix(0.35277777,0,0,-0.35277777,-14.49175,210.22066)"
       id="g4923">
      <path
         id="path4925"
         style="fill:#61381b;fill-opacity:1;fill-rule:evenodd;stroke:none"
         d="m 0,0 c -1.227,-1.934 -4.127,-8.785 -4.857,-10.672 -0.73,-1.886 -1.037,-14.73 6.419,-25.058 7.456,-10.328 23.761,-9.18 24.059,-9.759 0.754,-1.46 1.512,0.044 3.029,-1.571 0,0 6.79,6.224 8.957,16.542 2.167,10.318 -0.686,17.657 -0.686,17.657 z" />
    </g>
    <g
       transform="matrix(0.35277777,0,0,-0.35277777,-5.4064526,226.07834)"
       id="g4927">
      <path
         id="path4929"
         style="fill:#ef9095;fill-opacity:1;fill-rule:evenodd;stroke:none"
         d="m 0,0 c -0.471,-0.171 -1.517,-1.958 -1.174,-3.009 0.342,-1.05 4.602,-2.17 5.159,-1.656 C 7.572,-1.356 1.741,0.633 0,0" />
    </g>
    <g
       transform="matrix(0.35277777,0,0,-0.35277777,-5.0453496,231.91734)"
       id="g4931">
      <path
         id="path4933"
         style="fill:#f5b67e;fill-opacity:1;fill-rule:evenodd;stroke:none"
         d="m 0,0 c 0.461,0.346 10.48,7.913 10.48,7.913 4.59,-1.514 5.915,-14.535 6.382,-20.607 H 5.893 Z" />
    </g>
    <g
       transform="matrix(0.35277777,0,0,-0.35277777,-8.3618489,226.09626)"
       id="g4935">
      <path
         id="path4937"
         style="fill:#f5b67e;fill-opacity:1;fill-rule:evenodd;stroke:none"
         d="m 0,0 h -4.841 v -3.056 c 0.006,-3.623 -9.626,-3.953 -12.893,-4.996 1.183,-6.372 -0.866,-9.178 16.828,-19.857 h 1.249 1.248 c 8.577,3.119 15.091,6.942 16.728,19.781 -3.353,1.071 -13.484,1.386 -13.478,5.072 V 0 Z" />
    </g>
    <g
       transform="matrix(0.35277777,0,0,-0.35277777,-12.764939,232.67335)"
       id="g4939">
      <path
         id="path4941"
         style="fill:#f5b67e;fill-opacity:1;fill-rule:evenodd;stroke:none"
         d="m 0,0 c -0.462,0.346 -7.137,10.056 -7.137,10.056 -4.591,-1.514 -5.915,-14.535 -6.382,-20.607 h 10.968 z" />
    </g>
    <g
       transform="matrix(0.35277777,0,0,-0.35277777,-14.615541,228.93626)"
       id="g4943">
      <path
         id="path4945"
         style="fill:#7c5e64;fill-opacity:1;fill-rule:evenodd;stroke:none"
         d="M 0,0 -0.007,-0.002 -0.062,-0.015 -0.116,-0.028 -0.17,-0.04 -0.224,-0.052 -0.277,-0.065 -0.329,-0.078 -0.433,-0.103 -0.484,-0.116 -0.534,-0.128 -0.585,-0.141 H -0.587 L -0.634,-0.153 -0.683,-0.166 -0.731,-0.179 -0.779,-0.191 -0.826,-0.203 -0.873,-0.216 -0.999,-0.249 -1.01,-0.253 -1.055,-0.265 -1.098,-0.278 -1.142,-0.29 -1.185,-0.302 -1.227,-0.314 -1.268,-0.327 -1.302,-0.336 -1.309,-0.339 -1.349,-0.351 -1.389,-0.363 -1.427,-0.374 -1.428,-0.375 -1.466,-0.388 -1.541,-0.412 -1.568,-0.42 -1.578,-0.424 -1.683,-0.46 -1.701,-0.466 -1.716,-0.471 -1.782,-0.495 -1.813,-0.507 -1.841,-0.518 -1.922,-0.55 -1.946,-0.56 c -0.03,-0.013 -0.059,-0.025 -0.087,-0.038 L -2.036,-0.6 -2.039,-0.602 c -0.03,-0.013 -0.058,-0.027 -0.084,-0.04 L -2.129,-0.645 C -2.153,-0.657 -2.176,-0.67 -2.198,-0.683 L -2.206,-0.687 -2.21,-0.69 c -0.022,-0.013 -0.042,-0.026 -0.06,-0.039 l -0.004,-0.002 -0.002,-0.001 c -0.019,-0.014 -0.037,-0.028 -0.053,-0.042 0.463,-1.012 1.079,-4.471 1.725,-8.742 -0.653,-4.359 -3.206,-7.489 -1.37,-11.628 h 3 16.701 0.132 0.131 16.7 3.001 c 1.836,4.139 -0.717,7.269 -1.37,11.628 0.646,4.271 1.262,7.73 1.725,8.742 -0.016,0.014 -0.034,0.027 -0.053,0.042 l -0.002,0.001 -0.004,0.002 c -0.019,0.013 -0.039,0.026 -0.06,0.039 l -0.004,0.003 -0.009,0.004 c -0.021,0.013 -0.044,0.026 -0.068,0.038 l -0.006,0.003 c -0.026,0.013 -0.054,0.027 -0.084,0.04 l -0.003,0.002 -0.003,0.002 -0.087,0.038 -0.025,0.01 -0.08,0.032 -0.028,0.011 -0.032,0.012 -0.065,0.024 -0.016,0.005 -0.018,0.006 -0.105,0.036 -0.009,0.004 -0.027,0.008 -0.075,0.024 -0.038,0.013 -0.001,0.001 -0.039,0.011 -0.039,0.012 -0.04,0.012 -0.007,0.003 -0.034,0.009 -0.042,0.013 -0.042,0.012 -0.043,0.012 -0.043,0.012 -0.044,0.013 -0.044,0.012 -0.012,0.004 -0.125,0.033 -0.047,0.013 -0.047,0.012 -0.048,0.012 -0.049,0.013 -0.049,0.013 -0.046,0.012 h -0.003 l -0.05,0.013 -0.05,0.012 -0.052,0.013 -0.103,0.025 -0.053,0.013 -0.052,0.013 -0.054,0.012 -0.054,0.012 -0.054,0.013 -0.055,0.013 L 35.717,0 C 33.368,-7.783 26.262,-13.439 17.859,-13.439 9.455,-13.439 2.349,-7.782 0,0" />
    </g>
    <g
       transform="matrix(0.35277777,0,0,-0.35277777,-13.381135,217.67786)"
       id="g4947">
      <path
         id="path4949"
         style="fill:#f6c085;fill-opacity:1;fill-rule:evenodd;stroke:none"
         d="m 0,0 c 0.802,-3.606 -0.793,-6.61 -3.524,-7.257 -2.731,-0.647 -5.561,1.308 -6.363,4.915 -0.803,3.606 0.76,7.056 3.491,7.702 C -3.666,6.008 -0.802,3.608 0,0" />
    </g>
    <g
       transform="matrix(0.35277777,0,0,-0.35277777,-2.9664316,217.67786)"
       id="g4951">
      <path
         id="path4953"
         style="fill:#f6c085;fill-opacity:1;fill-rule:evenodd;stroke:none"
         d="m 0,0 c -0.803,-3.606 0.792,-6.61 3.524,-7.257 2.73,-0.647 5.561,1.308 6.363,4.915 C 10.689,1.264 9.127,4.714 6.396,5.36 3.665,6.008 0.802,3.608 0,0" />
    </g>
    <g
       transform="matrix(0.35277777,0,0,-0.35277777,-8.1738545,207.32436)"
       id="g4955">
      <path
         id="path4957"
         style="fill:#f8c997;fill-opacity:1;fill-rule:evenodd;stroke:none"
         d="m 0,0 -0.062,-0.003 c -1.446,0.058 -2.847,0.114 -2.847,0.114 l 0.006,-0.226 C -3.088,-0.123 -3.201,-0.128 -3.201,-0.128 -8.98,-0.357 -14.42,-3.47 -17.909,-8.21 c -3.492,-4.745 -3.956,-10.721 -3.681,-16.443 0.708,-14.704 8.944,-31.214 21.59,-31.337 12.646,0.123 20.883,16.633 21.59,31.337 0.275,5.722 -0.189,11.698 -3.681,16.443 -3.489,4.74 -8.929,7.853 -14.708,8.082 0,0 -0.113,0.005 -0.298,0.013 l 0.006,0.226 c 0,0 -1.401,-0.056 -2.847,-0.114 z" />
    </g>
    <g
       transform="matrix(0.35277777,0,0,-0.35277777,-5.0033336,209.33424)"
       id="g4959">
      <path
         id="path4961"
         style="fill:#61381b;fill-opacity:1;fill-rule:evenodd;stroke:none"
         d="m 0,0 c -0.173,-0.808 -0.019,-5.137 4.963,-11.772 4.981,-6.634 5.366,-7.213 5.366,-7.213 0,0 0.23,-11.195 0.865,-9.867 0.635,1.327 1.541,10.965 1.541,10.965 0,0 1.171,5.019 -0.098,10.212 -1.27,5.194 -2.871,7.152 -5.072,8.027 C 5.364,1.227 0,0 0,0" />
    </g>
    <g
       transform="matrix(0.35277777,0,0,-0.35277777,-14.79514,214.28096)"
       id="g4963">
      <path
         id="path4965"
         style="fill:#61381b;fill-opacity:1;fill-rule:evenodd;stroke:none"
         d="m 0,0 c -0.866,-0.981 -3.678,-1.086 -3.678,-1.086 0.123,-0.908 1.333,-14.571 2.469,-13.602 z" />
    </g>
    <g
       transform="matrix(0.35277777,0,0,-0.35277777,-1.3595636,216.03176)"
       id="g4967">
      <path
         id="path4969"
         style="fill:#61381b;fill-opacity:1;fill-rule:evenodd;stroke:none"
         d="m 0,0 c 0.227,3.791 2.172,12.449 1.218,14.811 -2.749,6.813 -7.784,9.572 -16.237,10.417 -2.596,0.259 -4.76,0.029 -4.76,0.029 C -14.929,17.253 -10.835,6.617 0,0" />
    </g>
    <g
       transform="matrix(0.35277777,0,0,-0.35277777,-4.2348436,210.06124)"
       id="g4971">
      <path
         id="path4973"
         style="fill:#61381b;fill-opacity:1;fill-rule:evenodd;stroke:none"
         d="m 0,0 c -1.714,-10.691 -24.271,-7.245 -31.693,-20.105 -8.27,12.504 4.393,38.118 26.434,28.219 z" />
    </g>
    <g
       transform="matrix(0.35277777,0,0,-0.35277777,-11.325889,219.27365)"
       id="g4975">
      <path
         id="path4977"
         style="fill:#3e3b3a;fill-opacity:1;fill-rule:evenodd;stroke:none"
         d="M 0,0 C 0.922,0 1.674,0.752 1.674,1.674 1.674,2.595 0.922,3.347 0,3.347 -0.922,3.347 -1.673,2.595 -1.673,1.674 -1.673,0.752 -0.922,0 0,0" />
    </g>
    <g
       transform="matrix(0.35277777,0,0,-0.35277777,-4.6689346,219.27365)"
       id="g4979">
      <path
         id="path4981"
         style="fill:#3e3b3a;fill-opacity:1;fill-rule:evenodd;stroke:none"
         d="M 0,0 C 0.922,0 1.673,0.752 1.673,1.674 1.673,2.595 0.922,3.347 0,3.347 -0.922,3.347 -1.673,2.595 -1.673,1.674 -1.673,0.752 -0.922,0 0,0" />
    </g>
    <g
       transform="matrix(0.35277777,0,0,-0.35277777,-9.1273414,221.69455)"
       id="g4983">
      <path
         id="path4985"
         style="fill:#e5b17d;fill-opacity:1;fill-rule:evenodd;stroke:none"
         d="m 0,0 c -0.02,0.006 -0.023,0.023 -0.006,0.051 0,0.084 0.048,0.166 0.136,0.243 C 0.818,1.618 2.17,5.477 2.79,9.723 3.469,9.681 2.116,2.497 1.534,0.783 2.123,0.885 2.84,0.945 3.615,0.945 c 2,0 3.621,-0.401 3.621,-0.894 0,-0.494 -1.621,-0.895 -3.621,-0.895 C 1.684,-0.844 0.106,-0.47 0,0" />
    </g>
    <g
       transform="matrix(0.35277777,0,0,-0.35277777,-6.6063566,217.26115)"
       id="g4987">
      <path
         id="path4989"
         style="fill:#402412;fill-opacity:1;fill-rule:evenodd;stroke:none"
         d="M 0,0 C -0.991,-0.411 0.657,2.275 5.529,2.381 11.21,2.505 12.938,-0.227 10.7,0.558 5.871,2.25 1.572,0.652 0,0" />
    </g>
    <g
       transform="matrix(0.35277777,0,0,-0.35277777,-9.3884322,217.26115)"
       id="g4991">
      <path
         id="path4993"
         style="fill:#402412;fill-opacity:1;fill-rule:evenodd;stroke:none"
         d="M 0,0 C 0.991,-0.411 -0.656,2.275 -5.529,2.381 -11.21,2.505 -12.938,-0.227 -10.7,0.558 -5.871,2.25 -1.572,0.652 0,0" />
    </g>
    <g
       transform="matrix(0.35277777,0,0,-0.35277777,-5.9565406,223.38206)"
       id="g4995">
      <path
         id="path4997"
         style="fill:#d6825b;fill-opacity:1;fill-rule:evenodd;stroke:none"
         d="M 0,0 C -1.102,-3.536 -11.09,-3.536 -12.191,0 -8.88,-2.521 -3.311,-2.521 0,0" />
    </g>
    <g
       transform="matrix(0.35277777,0,0,-0.35277777,-7.1890386,229.64214)"
       id="g4999">
      <path
         id="path5001"
         style="fill:#61381b;fill-opacity:1;fill-rule:evenodd;stroke:none"
         d="m 0,0 c -2.594,-6.552 -0.642,-8.614 -0.642,-8.614 l 0.3,3.686 c 0,0 0.9,-4.543 0.985,-7.457 0.086,-2.915 -1.028,-6.758 -1.028,-6.758 0,0 4.628,2.514 6.9,6.457 2.271,3.943 1.499,11.4 1.499,11.4 0,0 0.943,-2.486 0.943,-2.229 0,0.258 0.519,3.648 0.3,6.3 C 9.152,4.067 9.401,5.637 8.576,6.825 4.756,12.325 0.918,2.317 0,0" />
    </g>
  </g>
</svg>
