<?xml version="1.0" encoding="UTF-8" standalone="no"?>
<svg
   xmlns:dc="http://purl.org/dc/elements/1.1/"
   xmlns:cc="http://creativecommons.org/ns#"
   xmlns:rdf="http://www.w3.org/1999/02/22-rdf-syntax-ns#"
   xmlns:svg="http://www.w3.org/2000/svg"
   xmlns="http://www.w3.org/2000/svg"
   id="svg8903"
   version="1.1"
   viewBox="0 0 22.348644 33.802185"
   height="33.802185mm"
   width="22.348644mm">
  <defs
     id="defs8897" />
  <metadata
     id="metadata8900">
    <rdf:RDF>
      <cc:Work
         rdf:about="">
        <dc:format>image/svg+xml</dc:format>
        <dc:type
           rdf:resource="http://purl.org/dc/dcmitype/StillImage" />
        <dc:title></dc:title>
      </cc:Work>
    </rdf:RDF>
  </metadata>
  <g
     transform="translate(111.71599,-87.331053)"
     id="layer1">
    <g
       transform="matrix(0.35277777,0,0,-0.35277777,-103.76745,114.65507)"
       id="g4275">
      <path
         id="path4277"
         style="fill:#9f2025;fill-opacity:1;fill-rule:evenodd;stroke:none"
         d="m 0,0 c -0.462,0.346 -10.774,5.202 -10.774,5.202 -4.591,-1.515 -5.621,-11.824 -6.088,-17.896 h 10.968 z" />
    </g>
    <g
       transform="matrix(0.35277777,0,0,-0.35277777,-97.319836,114.65507)"
       id="g4279">
      <path
         id="path4281"
         style="fill:#9f2025;fill-opacity:1;fill-rule:evenodd;stroke:none"
         d="m 0,0 c 0.462,0.346 10.774,5.202 10.774,5.202 4.591,-1.515 5.621,-11.824 6.088,-17.896 H 5.893 Z" />
    </g>
    <g
       transform="matrix(0.35277777,0,0,-0.35277777,-100.54363,108.83389)"
       id="g4283">
      <path
         id="path4285"
         style="fill:#f5b67e;fill-opacity:1;fill-rule:evenodd;stroke:none"
         d="m 0,0 h -4.841 v -3.056 c 0.003,-1.899 -0.313,-1.505 -2.087,-2.492 0,0 -1.711,-1.403 -2.233,-1.569 2.152,-6.925 3.707,-15.831 7.912,-22.078 H 0 1.249 c 4.204,6.247 5.76,15.153 7.911,22.078 -0.521,0.166 -2.232,1.569 -2.232,1.569 -1.774,0.987 -2.09,0.593 -2.087,2.492 V 0 Z" />
    </g>
    <g
       transform="matrix(0.35277777,0,0,-0.35277777,-101.60175,113.19909)"
       id="g4287">
      <path
         id="path4289"
         style="fill:#841b21;fill-opacity:1;fill-rule:evenodd;stroke:none"
         d="M 0,0 C -4.26,1.564 -4.794,6.131 -3.931,6.801 -6.511,5.625 -15.92,1.939 -16.973,1.026 c 0.855,-1.871 2.151,-9.571 3.272,-17.847 H 2.999 19.7 c 1.121,8.276 2.417,15.976 3.272,17.847 C 21.918,1.939 12.51,5.625 9.93,6.801 10.793,6.131 10.259,1.564 5.999,0 V -0.001 L 2.999,-5.01 0,-0.001 Z" />
    </g>
    <g
       transform="matrix(0.35277777,0,0,-0.35277777,-95.974448,101.03408)"
       id="g4291">
      <path
         id="path4293"
         style="fill:#f6c085;fill-opacity:1;fill-rule:evenodd;stroke:none"
         d="m 0,0 c -0.693,-3.606 1.642,-6.61 5.217,-7.258 3.573,-0.646 7.03,1.309 7.721,4.916 C 13.63,1.265 11.296,4.713 7.723,5.36 4.15,6.008 0.692,3.609 0,0" />
    </g>
    <g
       transform="matrix(0.35277777,0,0,-0.35277777,-104.77103,101.03408)"
       id="g4295">
      <path
         id="path4297"
         style="fill:#f6c085;fill-opacity:1;fill-rule:evenodd;stroke:none"
         d="m 0,0 c 0.693,-3.606 -1.642,-6.61 -5.216,-7.258 -3.574,-0.646 -7.03,1.309 -7.722,4.916 -0.693,3.607 1.642,7.055 5.215,7.702 C -4.149,6.008 -0.692,3.609 0,0" />
    </g>
    <g
       transform="matrix(0.35277777,0,0,-0.35277777,-94.081441,92.958394)"
       id="g4299">
      <path
         id="path4301"
         style="fill:#f8c997;fill-opacity:1;fill-rule:evenodd;stroke:none"
         d="m 0,0 c -3.489,4.74 -8.931,7.853 -14.708,8.083 -10e-4,0 -0.114,0.004 -0.299,0.012 l 0.006,0.226 c 0,0 -1.4,-0.056 -2.846,-0.113 -1.446,0.057 -2.847,0.113 -2.847,0.113 l 0.006,-0.226 C -20.874,8.087 -20.987,8.083 -20.987,8.083 -26.764,7.853 -32.205,4.74 -35.694,0 c -3.492,-4.745 -3.956,-10.721 -3.681,-16.443 0.708,-14.704 2.022,-31.173 21.59,-31.337 C 1.842,-47.944 2.974,-31.043 3.681,-16.443 3.955,-10.721 3.492,-4.745 0,0" />
    </g>
    <g
       transform="matrix(0.35277777,0,0,-0.35277777,-98.349136,105.4667)"
       id="g4303">
      <path
         id="path4305"
         style="fill:#d6825b;fill-opacity:1;fill-rule:evenodd;stroke:none"
         d="M 0,0 C -1.022,-5.749 -10.288,-5.749 -11.31,0 -8.546,-0.636 -3.379,-0.639 0,0" />
    </g>
    <g
       transform="matrix(0.35277777,0,0,-0.35277777,-107.59174,100.3293)"
       id="g4307">
      <path
         id="path4309"
         style="fill:#59341a;fill-opacity:1;fill-rule:evenodd;stroke:none"
         d="m 0,0 c 0.259,5.42 0.328,15.222 5.074,15.222 3.515,0 4.469,-0.809 15.145,-0.809 9.448,0 12.194,1.078 15.729,1.078 3.789,0 4.729,-5.107 4.802,-12.188 0.014,-1.459 0.115,-2.919 0.198,-4.375 0.049,-0.854 0.111,-1.708 0.155,-2.562 0.016,-0.348 0.107,-1.276 0.556,-1.188 0.504,0.097 0.561,1.976 0.612,2.377 0.362,2.825 0.458,5.721 0.456,8.564 -0.006,5.249 1.507,15.358 -7.913,21.655 -5.792,3.874 -17.768,4.259 -24.434,2.067 -4.644,-1.529 -9.095,-5.509 -10.751,-10.145 -1.817,-5.092 -1.77,-9.07 -1.171,-19.154 0.065,-1.093 0.191,-2.189 0.343,-3.273 0.098,-0.721 0.191,-1.46 0.365,-2.167 0.38,-1.542 0.907,-0.442 0.89,0.517 C 0.032,-2.916 -0.07,-1.465 0,0" />
    </g>
    <g
       transform="matrix(0.35277777,0,0,-0.35277777,-103.54372,105.55859)"
       id="g4311">
      <path
         id="path4313"
         style="fill:#402412;fill-opacity:1;fill-rule:evenodd;stroke:none"
         d="m 0,0 c -0.863,-0.152 -1.653,-0.259 -2.481,-0.259 -2.924,0 -5.401,1.122 -7.04,3.076 -0.566,0.676 -0.978,1.968 -1.078,2.761 -0.094,0.746 -0.498,2.616 -0.561,3.255 -0.365,3.681 -1.145,1.026 -1.183,-1.819 -0.009,-0.655 0.18,-1.366 0.339,-2.078 -0.127,-1.249 -0.432,-4.456 -0.349,-5.539 0.827,-10.769 14.686,-13.595 21.495,-14.595 3.326,0.488 12.524,2.709 14.671,4.194 5.496,3.802 7.271,8.097 6.476,15.94 0.159,0.712 0.348,1.423 0.339,2.078 -0.039,2.845 -0.819,5.5 -1.183,1.819 C 29.382,8.194 28.977,6.324 28.883,5.578 28.783,4.785 28.372,3.493 27.805,2.817 26.166,0.863 23.69,-0.259 20.766,-0.259 c -0.829,0 -1.619,0.107 -2.481,0.259 0.375,-0.648 0.581,-1.347 0.581,-2.077 0,-2.735 -2.881,-5.048 -6.847,-5.816 -0.249,0.085 -0.508,0.211 -0.781,0.391 C 10.273,-6.865 9.592,-5.996 9.247,-5.49 8.902,-5.996 8.221,-6.865 7.256,-7.502 6.955,-7.7 6.672,-7.834 6.399,-7.918 c -4.034,0.741 -6.98,3.076 -6.98,5.841 0,0.73 0.205,1.429 0.581,2.077" />
    </g>
    <g
       transform="matrix(0.35277777,0,0,-0.35277777,-100.31852,103.95917)"
       id="g4315">
      <path
         id="path4317"
         style="fill:#5d331a;fill-opacity:1;fill-rule:evenodd;stroke:none"
         d="m 0,0 c -2.214,1.798 -7.55,-2.71 -8.684,-3.195 -3.376,-1.442 -5.454,1.443 -5.454,1.443 0,0 0.433,-2.048 2.049,-3.866 2.89,-3.251 8.987,-2.383 12.089,0.404 3.102,-2.787 9.199,-3.655 12.089,-0.404 1.616,1.818 2.048,3.866 2.048,3.866 0,0 -2.077,-2.885 -5.452,-1.443 C 7.55,-2.71 2.214,1.798 0,0" />
    </g>
    <g
       transform="matrix(0.35277777,0,0,-0.35277777,-104.29852,102.7163)"
       id="g4319">
      <path
         id="path4321"
         style="fill:#3e3b3a;fill-opacity:1;fill-rule:evenodd;stroke:none"
         d="M 0,0 C 0.922,0 1.674,0.752 1.674,1.674 1.674,2.595 0.922,3.347 0,3.347 -0.922,3.347 -1.673,2.595 -1.673,1.674 -1.673,0.752 -0.922,0 0,0" />
    </g>
    <g
       transform="matrix(0.35277777,0,0,-0.35277777,-96.456624,102.7163)"
       id="g4323">
      <path
         id="path4325"
         style="fill:#3e3b3a;fill-opacity:1;fill-rule:evenodd;stroke:none"
         d="M 0,0 C 0.922,0 1.673,0.752 1.673,1.674 1.673,2.595 0.922,3.347 0,3.347 -0.921,3.347 -1.673,2.595 -1.673,1.674 -1.673,0.752 -0.921,0 0,0" />
    </g>
    <g
       transform="matrix(0.35277777,0,0,-0.35277777,-106.17678,100.32535)"
       id="g4327">
      <path
         id="path4329"
         style="fill:#59341a;fill-opacity:1;fill-rule:evenodd;stroke:none"
         d="m 0,0 c -0.556,0.918 2.336,1.401 5.277,1.426 4.931,0.042 7.606,-2.327 5.235,-2.261 C 8.741,-0.786 0.163,-0.269 0,0" />
    </g>
    <g
       transform="matrix(0.35277777,0,0,-0.35277777,-94.576882,100.2786)"
       id="g4331">
      <path
         id="path4333"
         style="fill:#59341a;fill-opacity:1;fill-rule:evenodd;stroke:none"
         d="M 0,0 C 0.544,0.925 -2.355,1.371 -5.295,1.357 -10.226,1.335 -12.87,-1.068 -10.5,-0.972 -8.73,-0.899 -0.159,-0.271 0,0" />
    </g>
    <g
       transform="matrix(0.35277777,0,0,-0.35277777,-101.14063,103.5817)"
       id="g4335">
      <path
         id="path4337"
         style="fill:#e5b17d;fill-opacity:1;fill-rule:evenodd;stroke:none"
         d="m 0,0 c -0.016,0.005 -0.019,0.019 -0.005,0.042 0,0.07 0.04,0.137 0.113,0.201 C 0.677,1.338 1.795,4.53 2.307,8.042 2.869,8.007 1.751,2.065 1.269,0.647 1.756,0.732 2.35,0.782 2.99,0.782 c 1.654,0 2.995,-0.331 2.995,-0.74 0,-0.409 -1.341,-0.74 -2.995,-0.74 C 1.393,-0.698 0.088,-0.389 0,0" />
    </g>
  </g>
</svg>
