<?xml version="1.0" encoding="UTF-8" standalone="no"?>
<svg
   xmlns:dc="http://purl.org/dc/elements/1.1/"
   xmlns:cc="http://creativecommons.org/ns#"
   xmlns:rdf="http://www.w3.org/1999/02/22-rdf-syntax-ns#"
   xmlns:svg="http://www.w3.org/2000/svg"
   xmlns="http://www.w3.org/2000/svg"
   id="svg6575"
   version="1.1"
   viewBox="0 0 22.83226 34.308716"
   height="34.308716mm"
   width="22.83226mm">
  <defs
     id="defs6569" />
  <metadata
     id="metadata6572">
    <rdf:RDF>
      <cc:Work
         rdf:about="">
        <dc:format>image/svg+xml</dc:format>
        <dc:type
           rdf:resource="http://purl.org/dc/dcmitype/StillImage" />
        <dc:title></dc:title>
      </cc:Work>
    </rdf:RDF>
  </metadata>
  <g
     transform="translate(-5.214822,-112.02421)"
     id="layer1">
    <g
       transform="matrix(0.35277777,0,0,-0.35277777,24.516721,129.29849)"
       id="g3787">
      <path
         id="path3789"
         style="fill:#953d23;fill-opacity:1;fill-rule:evenodd;stroke:none"
         d="m 0,0 c -0.231,-2.424 -8.784,-20.492 -8.784,-20.492 l -20.443,0.412 c 0,0 -12.781,9.347 -13.705,16.271 -0.923,6.925 -0.398,13.396 -0.398,13.396 l 43.063,1.053 z" />
    </g>
    <g
       transform="matrix(0.35277777,0,0,-0.35277777,24.516721,129.29849)"
       id="g3791">
      <path
         id="path3793"
         style="fill:none;stroke:#231815;stroke-width:0.56699997;stroke-linecap:butt;stroke-linejoin:miter;stroke-miterlimit:22.9260006;stroke-dasharray:none;stroke-opacity:1"
         d="m 0,0 c -0.231,-2.424 -8.784,-20.492 -8.784,-20.492 l -20.443,0.412 c 0,0 -12.781,9.347 -13.705,16.271 -0.923,6.925 -0.398,13.396 -0.398,13.396 l 43.063,1.053 z" />
    </g>
    <g
       transform="matrix(0.35277777,0,0,-0.35277777,21.454328,141.46297)"
       id="g3795">
      <path
         id="path3797"
         style="fill:#ceacca;fill-opacity:1;fill-rule:evenodd;stroke:none"
         d="m 0,0 c 0.462,0.346 6.613,12.472 6.613,12.472 4.591,-1.515 5.916,-14.535 6.383,-20.607 H 2.027 Z" />
    </g>
    <g
       transform="matrix(0.35277777,0,0,-0.35277777,16.774026,134.03369)"
       id="g3799">
      <path
         id="path3801"
         style="fill:#f6c085;fill-opacity:1;fill-rule:evenodd;stroke:none"
         d="m 0,0 h -4.841 v -3.056 c 0.006,-3.623 -9.627,-3.954 -12.893,-4.997 0.881,-7.559 7.895,-13.106 18.216,-20.161 H 1.731 2.98 c 4.205,6.247 14.77,10.063 15.017,20.161 -3.313,1.058 -13.162,1.332 -13.156,4.997 V 0 Z" />
    </g>
    <g
       transform="matrix(0.35277777,0,0,-0.35277777,12.308423,140.97448)"
       id="g3803">
      <path
         id="path3805"
         style="fill:#ceacca;fill-opacity:1;fill-rule:evenodd;stroke:none"
         d="M 0,0 C -0.462,0.346 -6.96,11.087 -6.96,11.087 -11.55,9.572 -12.875,-3.448 -13.342,-9.52 h 10.969 z" />
    </g>
    <g
       transform="matrix(0.35277777,0,0,-0.35277777,10.517723,136.87447)"
       id="g3807">
      <path
         id="path3809"
         style="fill:#d8b3d2;fill-opacity:1;fill-rule:evenodd;stroke:none"
         d="m 0,0 c -1.174,-0.272 -2.043,-0.53 -2.322,-0.772 5.241,-9.949 -2.497,-13.941 0.355,-20.37 h 19.701 0.132 0.131 19.701 c 2.852,6.429 -4.886,10.421 0.355,20.37 C 37.775,-0.53 36.906,-0.272 35.731,0 34.444,-6.607 26.936,-11.678 17.866,-11.678 8.795,-11.678 1.287,-6.607 0,0" />
    </g>
    <g
       transform="matrix(0.35277777,0,0,-0.35277777,16.962021,115.26189)"
       id="g3811">
      <path
         id="path3813"
         style="fill:#f8c997;fill-opacity:1;fill-rule:evenodd;stroke:none"
         d="m 0,0 -0.062,-0.003 c -1.446,0.058 -2.847,0.114 -2.847,0.114 l 0.006,-0.226 C -3.088,-0.123 -3.201,-0.128 -3.201,-0.128 -8.98,-0.357 -14.42,-3.47 -17.909,-8.21 c -3.492,-4.745 -3.956,-10.721 -3.681,-16.443 0.708,-14.704 8.944,-31.214 21.59,-31.337 12.646,0.123 20.882,16.633 21.59,31.337 0.275,5.722 -0.189,11.698 -3.681,16.443 -3.489,4.74 -8.929,7.853 -14.707,8.082 0,0 -0.114,0.005 -0.299,0.013 l 0.006,0.226 c 0,0 -1.401,-0.056 -2.847,-0.114 z" />
    </g>
    <g
       transform="matrix(0.35277777,0,0,-0.35277777,22.282262,124.78276)"
       id="g3815">
      <path
         id="path3817"
         style="fill:#cc5827;fill-opacity:1;fill-rule:evenodd;stroke:none"
         d="M 0,0 C 0.991,-0.411 -0.657,2.275 -5.529,2.381 -11.21,2.505 -12.938,-0.227 -10.7,0.558 -5.872,2.25 -1.572,0.652 0,0" />
    </g>
    <g
       transform="matrix(0.35277777,0,0,-0.35277777,13.652295,126.64927)"
       id="g3819">
      <path
         id="path3821"
         style="fill:#3e3b3a;fill-opacity:1;fill-rule:evenodd;stroke:none"
         d="M 0,0 C 0.922,0 1.673,0.751 1.673,1.673 1.673,2.595 0.922,3.347 0,3.347 -0.922,3.347 -1.674,2.595 -1.674,1.673 -1.674,0.751 -0.922,0 0,0" />
    </g>
    <g
       transform="matrix(0.35277777,0,0,-0.35277777,20.309283,126.6492)"
       id="g3823">
      <path
         id="path3825"
         style="fill:#3e3b3a;fill-opacity:1;fill-rule:evenodd;stroke:none"
         d="M 0,0 C 0.922,0 1.673,0.752 1.673,1.673 1.673,2.595 0.922,3.347 0,3.347 -0.922,3.347 -1.673,2.595 -1.673,1.673 -1.673,0.752 -0.922,0 0,0" />
    </g>
    <g
       transform="matrix(0.35277777,0,0,-0.35277777,14.636333,130.84376)"
       id="g3827">
      <path
         id="path3829"
         style="fill:#d6825b;fill-opacity:1;fill-rule:evenodd;stroke:none"
         d="M 0,0 C 4.083,-2.2 8.788,-2.2 12.872,0 11.858,-6.506 1.1,-6.304 0,0" />
    </g>
    <g
       transform="matrix(0.35277777,0,0,-0.35277777,15.62951,129.58968)"
       id="g3831">
      <path
         id="path3833"
         style="fill:#e5b17d;fill-opacity:1;fill-rule:evenodd;stroke:none"
         d="m 0,0 c -0.019,0.006 -0.023,0.023 -0.006,0.051 0,0.084 0.048,0.166 0.137,0.243 C 0.818,1.618 2.17,5.477 2.79,9.723 3.469,9.681 2.117,2.497 1.534,0.783 c 0.589,0.102 1.307,0.162 2.081,0.162 2,0 3.621,-0.401 3.621,-0.894 0,-0.494 -1.621,-0.895 -3.621,-0.895 C 1.684,-0.844 0.107,-0.47 0,0" />
    </g>
    <g
       transform="matrix(0.35277777,0,0,-0.35277777,11.539298,124.79797)"
       id="g3835">
      <path
         id="path3837"
         style="fill:#cc5827;fill-opacity:1;fill-rule:evenodd;stroke:none"
         d="M 0,0 C -0.991,-0.411 0.657,2.275 5.529,2.381 11.21,2.505 12.938,-0.227 10.7,0.558 5.871,2.25 1.572,0.652 0,0" />
    </g>
    <g
       transform="matrix(0.35277777,0,0,-0.35277777,11.545331,117.14727)"
       id="g3839">
      <path
         id="path3841"
         style="fill:#cc5827;fill-opacity:1;fill-rule:evenodd;stroke:none"
         d="m 0,0 c 7.887,-4.658 31.765,-12.457 31.067,-35.672 0,0 1.674,9.298 1.731,8.862 0.058,-0.436 1.212,-6.174 -0.519,-14.673 -1.731,-8.5 -8.771,-18.431 -8.483,-17.995 0.289,0.436 7.676,4.015 12.003,13.925 C 48.368,-16.771 38.361,14.288 8.492,8.044 2.08,6.703 -2.842,1.678 0,0" />
    </g>
    <g
       transform="matrix(0.35277777,0,0,-0.35277777,14.636333,118.14161)"
       id="g3843">
      <path
         id="path3845"
         style="fill:#cc5827;fill-opacity:1;fill-rule:evenodd;stroke:none"
         d="m 0,0 c -16.56,-8.743 -9.923,-38.961 -3.327,-49.109 3.154,-4.853 6.389,-8.007 5.257,-7.036 -1.133,0.97 -9.301,0.324 -18.036,16.822 -7.025,13.27 -9.348,46.586 12.455,46.586 z" />
    </g>
    <g
       transform="matrix(0.35277777,0,0,-0.35277777,9.1389267,121.48468)"
       id="g3847">
      <path
         id="path3849"
         style="fill:#cc5827;fill-opacity:1;fill-rule:evenodd;stroke:none"
         d="M 0,0 C 0.923,0.808 5.432,6.172 5.432,6.172 1.102,-11.998 9.093,-27.236 9.059,-27.179 2.374,-15.717 1.419,-13.075 0,0" />
    </g>
  </g>
</svg>
