<?xml version="1.0" encoding="UTF-8" standalone="no"?>
<svg
   xmlns:dc="http://purl.org/dc/elements/1.1/"
   xmlns:cc="http://creativecommons.org/ns#"
   xmlns:rdf="http://www.w3.org/1999/02/22-rdf-syntax-ns#"
   xmlns:svg="http://www.w3.org/2000/svg"
   xmlns="http://www.w3.org/2000/svg"
   id="svg7218"
   version="1.1"
   viewBox="0 0 22.437258 33.43298"
   height="33.43298mm"
   width="22.437258mm">
  <defs
     id="defs7212" />
  <metadata
     id="metadata7215">
    <rdf:RDF>
      <cc:Work
         rdf:about="">
        <dc:format>image/svg+xml</dc:format>
        <dc:type
           rdf:resource="http://purl.org/dc/dcmitype/StillImage" />
        <dc:title></dc:title>
      </cc:Work>
    </rdf:RDF>
  </metadata>
  <g
     transform="translate(299.99244,37.972442)"
     id="layer1">
    <g
       transform="matrix(0.35277777,0,0,-0.35277777,-296.15362,-25.783844)"
       id="g4431">
      <path
         id="path4433"
         style="fill:#913e22;fill-opacity:1;fill-rule:evenodd;stroke:none"
         d="m 0,0 c 1.143,-11.441 -0.062,-33.523 8.817,-39.498 13.522,-9.1 9.847,-9.759 22.527,-0.421 12.676,9.336 11.021,24.58 10.944,41.309 z" />
    </g>
    <g
       transform="matrix(0.35277777,0,0,-0.35277777,-284.8544,-33.993442)"
       id="g4435">
      <path
         id="path4437"
         style="fill:#913e22;fill-opacity:1;fill-rule:evenodd;stroke:none"
         d="m 0,0 c 26.577,5.257 9.493,-54.898 6.59,-67.518 -1.259,-5.477 -3.101,-4.082 -7.898,3.872 0,0 9.216,22.618 9.849,35.446 C 9.175,-15.371 4.653,-10.956 1.894,-6.113 -0.866,-1.269 0,0 0,0" />
    </g>
    <g
       transform="matrix(0.35277777,0,0,-0.35277777,-283.8741,-33.768826)"
       id="g4439">
      <path
         id="path4441"
         style="fill:#913e22;fill-opacity:1;fill-rule:evenodd;stroke:none"
         d="m 0,0 c 0.826,-7.272 -1.109,-8.156 -6.968,-12.036 -5.86,-3.88 -8.393,-3.88 -7.443,-3.405 0.95,0.475 5.463,8.314 5.463,8.314 0,0 -6.097,-4.909 -12.273,-7.364 -6.176,-2.454 -8.394,-1.504 -8.394,-1.504 0,0 5.464,7.126 4.751,6.572 -0.712,-0.554 -5.939,-3.959 -6.651,-5.543 -0.712,-1.583 -2.234,-8.703 -1.363,-16.541 0.583,-5.251 11.146,-21.676 11.331,-29.395 0.093,-3.893 -5.64,-9.626 -7.328,-7.679 -6.849,7.9 -8.033,55.324 -7.709,57.575 0.831,5.769 4.086,9.969 7.724,12.868 C -21.072,8.068 -0.897,7.895 0,0" />
    </g>
    <g
       transform="matrix(0.35277777,0,0,-0.35277777,-285.50372,-11.017623)"
       id="g4443">
      <path
         id="path4445"
         style="fill:#a9bcc7;fill-opacity:1;fill-rule:evenodd;stroke:none"
         d="m 0,0 c 0.462,0.346 10.48,7.913 10.48,7.913 4.591,-1.515 5.915,-14.535 6.382,-20.607 H 5.894 Z" />
    </g>
    <g
       transform="matrix(0.35277777,0,0,-0.35277777,-291.64791,-13.398026)"
       id="g4447">
      <path
         id="path4449"
         style="fill:#98c0d4;fill-opacity:1;fill-rule:evenodd;stroke:none"
         d="m 0,0 c 0.106,0.835 0.728,6.456 0.728,6.456 l 14.895,0.1 -0.202,-4.628 z" />
    </g>
    <g
       transform="matrix(0.35277777,0,0,-0.35277777,-288.82011,-16.838845)"
       id="g4451">
      <path
         id="path4453"
         style="fill:#f5b67e;fill-opacity:1;fill-rule:evenodd;stroke:none"
         d="m 0,0 h -4.841 v -3.056 c 0.003,-1.899 -0.313,-1.505 -2.087,-2.492 0,0 -1.711,-1.403 -2.232,-1.569 2.151,-6.926 3.706,-15.831 7.911,-22.078 H 0 1.249 c 4.205,6.247 5.76,15.152 7.911,22.078 -0.521,0.166 -2.232,1.569 -2.232,1.569 -1.774,0.987 -2.09,0.593 -2.087,2.492 V 0 Z" />
    </g>
    <g
       transform="matrix(0.35277777,0,0,-0.35277777,-292.0439,-11.017623)"
       id="g4455">
      <path
         id="path4457"
         style="fill:#a9bcc7;fill-opacity:1;fill-rule:evenodd;stroke:none"
         d="m 0,0 c -0.462,0.346 -10.48,7.913 -10.48,7.913 -4.59,-1.515 -5.915,-14.535 -6.382,-20.607 h 10.969 z" />
    </g>
    <g
       transform="matrix(0.35277777,0,0,-0.35277777,-289.8782,-12.473537)"
       id="g4459">
      <path
         id="path4461"
         style="fill:#b5ccd8;fill-opacity:1;fill-rule:evenodd;stroke:none"
         d="m 0,0 c -4.261,1.564 -4.794,6.132 -3.931,6.801 -2.58,-1.176 -12.072,-2.339 -13.126,-3.252 0.855,-1.87 2.235,-12.094 3.356,-20.37 h 16.7 0.132 0.131 16.7 c 1.121,8.276 2.501,18.5 3.356,20.37 C 22.264,4.462 12.773,5.625 10.192,6.801 11.055,6.132 10.522,1.564 6.261,0 V -0.001 L 2.9,-11.427 0,-0.001 Z" />
    </g>
    <g
       transform="matrix(0.35277777,0,0,-0.35277777,-293.8395,-24.388431)"
       id="g4463">
      <path
         id="path4465"
         style="fill:#f6c085;fill-opacity:1;fill-rule:evenodd;stroke:none"
         d="m 0,0 c 0.803,-3.606 -0.792,-6.61 -3.524,-7.258 -2.73,-0.646 -5.561,1.309 -6.362,4.916 -0.803,3.607 0.759,7.056 3.49,7.702 C -3.665,6.008 -0.802,3.608 0,0" />
    </g>
    <g
       transform="matrix(0.35277777,0,0,-0.35277777,-283.42469,-24.388431)"
       id="g4467">
      <path
         id="path4469"
         style="fill:#f6c085;fill-opacity:1;fill-rule:evenodd;stroke:none"
         d="M 0,0 C -0.803,-3.606 0.792,-6.61 3.523,-7.258 6.254,-7.904 9.085,-5.949 9.886,-2.342 10.689,1.265 9.127,4.714 6.396,5.36 3.665,6.008 0.802,3.608 0,0" />
    </g>
    <g
       transform="matrix(0.35277777,0,0,-0.35277777,-288.63212,-35.610538)"
       id="g4471">
      <path
         id="path4473"
         style="fill:#f8c997;fill-opacity:1;fill-rule:evenodd;stroke:none"
         d="m 0,0 -0.062,-0.003 c -1.446,0.058 -2.847,0.114 -2.847,0.114 l 0.006,-0.226 C -3.088,-0.122 -3.201,-0.128 -3.201,-0.128 -8.98,-0.357 -14.42,-3.47 -17.909,-8.21 c -3.492,-4.745 -3.956,-10.721 -3.681,-16.443 0.708,-14.704 8.944,-31.214 21.59,-31.336 12.646,0.122 20.882,16.632 21.59,31.336 0.275,5.722 -0.189,11.698 -3.681,16.443 -3.489,4.74 -8.929,7.853 -14.708,8.082 0,0 -0.113,0.006 -0.298,0.013 l 0.006,0.226 c 0,0 -1.401,-0.056 -2.847,-0.114 z" />
    </g>
    <g
       transform="matrix(0.35277777,0,0,-0.35277777,-285.4616,-33.600728)"
       id="g4475">
      <path
         id="path4477"
         style="fill:#913e22;fill-opacity:1;fill-rule:evenodd;stroke:none"
         d="m 0,0 c -0.173,-0.808 -0.019,-5.137 4.963,-11.772 4.981,-6.634 5.366,-7.213 5.366,-7.213 1.417,2.462 0.891,3.647 2.297,0.556 0,0 1.281,5.561 0.011,10.754 C 11.368,-2.481 9.766,-0.523 7.564,0.352 5.364,1.227 0,0 0,0" />
    </g>
    <g
       transform="matrix(0.35277777,0,0,-0.35277777,-295.2534,-28.654044)"
       id="g4479">
      <path
         id="path4481"
         style="fill:#913e22;fill-opacity:1;fill-rule:evenodd;stroke:none"
         d="M 0,0 C -0.866,-0.981 -4.173,3.598 -3.566,-1.996 -2.96,-7.589 -1.795,-14.137 -0.132,-18.458 -0.937,-13.048 -2.388,-6.731 0,0" />
    </g>
    <g
       transform="matrix(0.35277777,0,0,-0.35277777,-281.37001,-26.71994)"
       id="g4483">
      <path
         id="path4485"
         style="fill:#913e22;fill-opacity:1;fill-rule:evenodd;stroke:none"
         d="m 0,0 c 0.227,3.791 0.902,12.968 -0.051,15.33 -2.749,6.814 -7.784,9.573 -16.237,10.418 -2.596,0.259 1.34,-4.115 1.34,-4.115 C -7.952,11.724 -11.412,4.136 0,0" />
    </g>
    <g
       transform="matrix(0.35277777,0,0,-0.35277777,-284.69321,-32.873725)"
       id="g4487">
      <path
         id="path4489"
         style="fill:#913e22;fill-opacity:1;fill-rule:evenodd;stroke:none"
         d="m 0,0 c -19.487,-2.843 -16.844,-19.583 -32.344,-17.137 -0.894,0.142 -1.948,4.836 -1.948,4.836 0,0 1.681,7.775 4.718,12.237 3.036,4.464 6.416,5.618 9.809,7.012 3.394,1.393 12.434,2.427 13.972,0.46 z" />
    </g>
    <g
       transform="matrix(0.35277777,0,0,-0.35277777,-290.1558,-13.393652)"
       id="g4491">
      <path
         id="path4493"
         style="fill:#abc3cf;fill-opacity:1;fill-rule:evenodd;stroke:none"
         d="M 0,0 2.441,-0.918 1.898,-6.987 -1.327,-3.13 Z" />
    </g>
    <g
       transform="matrix(0.35277777,0,0,-0.35277777,-292.18611,-14.862653)"
       id="g4495">
      <path
         id="path4497"
         style="fill:#c9e1ed;fill-opacity:1;fill-rule:evenodd;stroke:none"
         d="M 0,0 2.253,2.304 8.197,-5.082 2.513,-10.078 Z" />
    </g>
    <g
       transform="matrix(0.35277777,0,0,-0.35277777,-287.37199,-13.428929)"
       id="g4499">
      <path
         id="path4501"
         style="fill:#abc3cf;fill-opacity:1;fill-rule:evenodd;stroke:none"
         d="m 0,0 -2.441,-0.918 0.39,-5.898 3.378,3.686 z" />
    </g>
    <g
       transform="matrix(0.35277777,0,0,-0.35277777,-285.34172,-14.897933)"
       id="g4503">
      <path
         id="path4505"
         style="fill:#c9e1ed;fill-opacity:1;fill-rule:evenodd;stroke:none"
         d="m 0,0 -2.253,2.304 -5.944,-7.386 5.684,-4.996 z" />
    </g>
    <g
       transform="matrix(0.35277777,0,0,-0.35277777,-295.07641,-13.998032)"
       id="g4507">
      <path
         id="path4509"
         style="fill:#b5ccd8;fill-opacity:1;fill-rule:evenodd;stroke:none"
         d="m 0,0 c -1.174,-0.272 -2.043,-0.531 -2.322,-0.772 5.241,-9.949 -2.497,-13.941 0.355,-20.37 h 19.701 0.132 0.131 19.701 c 2.852,6.429 -4.885,10.421 0.355,20.37 C 37.774,-0.531 36.906,-0.272 35.731,0 34.223,-7.687 25.708,-17.438 17.533,-17.444 9.346,-17.449 1.497,-7.699 0,0" />
    </g>
    <g
       transform="matrix(0.35277777,0,0,-0.35277777,-291.78415,-23.410989)"
       id="g4511">
      <path
         id="path4513"
         style="fill:#3e3b3a;fill-opacity:1;fill-rule:evenodd;stroke:none"
         d="M 0,0 C 0.922,0 1.673,0.751 1.673,1.673 1.673,2.595 0.922,3.347 0,3.347 -0.922,3.347 -1.674,2.595 -1.674,1.673 -1.674,0.751 -0.922,0 0,0" />
    </g>
    <g
       transform="matrix(0.35277777,0,0,-0.35277777,-285.12727,-23.410989)"
       id="g4515">
      <path
         id="path4517"
         style="fill:#3e3b3a;fill-opacity:1;fill-rule:evenodd;stroke:none"
         d="M 0,0 C 0.922,0 1.673,0.751 1.673,1.673 1.673,2.595 0.922,3.347 0,3.347 -0.922,3.347 -1.674,2.595 -1.674,1.673 -1.674,0.751 -0.922,0 0,0" />
    </g>
    <g
       transform="matrix(0.35277777,0,0,-0.35277777,-286.35162,-19.960047)"
       id="g4519">
      <path
         id="path4521"
         style="fill:#d6825b;fill-opacity:1;fill-rule:evenodd;stroke:none"
         d="M 0,0 C -1.022,-5.749 -10.287,-5.749 -11.309,0 -8.238,-4.1 -3.071,-4.1 0,0" />
    </g>
    <g
       transform="matrix(0.35277777,0,0,-0.35277777,-289.67913,-21.010443)"
       id="g4523">
      <path
         id="path4525"
         style="fill:#e5b17d;fill-opacity:1;fill-rule:evenodd;stroke:none"
         d="m 0,0 c -0.02,0.006 -0.023,0.023 -0.006,0.051 0,0.084 0.048,0.166 0.136,0.243 C 0.818,1.618 2.17,5.477 2.79,9.723 3.469,9.681 2.116,2.497 1.534,0.783 2.123,0.885 2.84,0.945 3.615,0.945 c 2,0 3.621,-0.401 3.621,-0.894 0,-0.494 -1.621,-0.895 -3.621,-0.895 C 1.684,-0.844 0.106,-0.47 0,0" />
    </g>
    <g
       transform="matrix(0.35277777,0,0,-0.35277777,-286.8883,-25.51372)"
       id="g4527">
      <path
         id="path4529"
         style="fill:#913e22;fill-opacity:1;fill-rule:evenodd;stroke:none"
         d="M 0,0 C -0.991,-0.411 0.656,2.275 5.529,2.381 11.21,2.505 12.938,-0.227 10.7,0.558 5.871,2.25 1.572,0.652 0,0" />
    </g>
    <g
       transform="matrix(0.35277777,0,0,-0.35277777,-290.02312,-25.51372)"
       id="g4531">
      <path
         id="path4533"
         style="fill:#913e22;fill-opacity:1;fill-rule:evenodd;stroke:none"
         d="M 0,0 C 0.991,-0.411 -0.657,2.275 -5.53,2.381 -11.21,2.505 -12.938,-0.227 -10.7,0.558 -5.872,2.25 -1.572,0.652 0,0" />
    </g>
    <g
       transform="matrix(0.35277777,0,0,-0.35277777,-282.04442,-28.573045)"
       id="g4535">
      <path
         id="path4537"
         style="fill:#913e22;fill-opacity:1;fill-rule:evenodd;stroke:none"
         d="M 0,0 C 0.866,-0.981 4.173,3.598 3.566,-1.996 2.96,-7.589 1.795,-14.137 0.132,-18.458 0.937,-13.048 2.388,-6.731 0,0" />
    </g>
  </g>
</svg>
