<?xml version="1.0" encoding="UTF-8" standalone="no"?>
<svg
   xmlns:dc="http://purl.org/dc/elements/1.1/"
   xmlns:cc="http://creativecommons.org/ns#"
   xmlns:rdf="http://www.w3.org/1999/02/22-rdf-syntax-ns#"
   xmlns:svg="http://www.w3.org/2000/svg"
   xmlns="http://www.w3.org/2000/svg"
   id="svg7554"
   version="1.1"
   viewBox="0 0 22.437365 35.663532"
   height="35.663532mm"
   width="22.437365mm">
  <defs
     id="defs7548" />
  <metadata
     id="metadata7551">
    <rdf:RDF>
      <cc:Work
         rdf:about="">
        <dc:format>image/svg+xml</dc:format>
        <dc:type
           rdf:resource="http://purl.org/dc/dcmitype/StillImage" />
        <dc:title></dc:title>
      </cc:Work>
    </rdf:RDF>
  </metadata>
  <g
     transform="translate(-30.358698,-84.88847)"
     id="layer1">
    <g
       transform="matrix(0.35277777,0,0,-0.35277777,41.918942,92.018212)"
       id="g4539">
      <path
         id="path4541"
         style="fill:#bc6b4e;fill-opacity:1;fill-rule:evenodd;stroke:none"
         d="m 0,0 c 5.05,0 9.169,3.266 9.169,7.271 0,4.004 -4.119,7.27 -9.169,7.27 -5.05,0 -9.169,-3.266 -9.169,-7.27 C -9.169,3.266 -5.05,0 0,0" />
    </g>
    <g
       transform="matrix(0.35277777,0,0,-0.35277777,44.847525,114.07384)"
       id="g4543">
      <path
         id="path4545"
         style="fill:#f5b67e;fill-opacity:1;fill-rule:evenodd;stroke:none"
         d="m 0,0 c 0.462,0.346 10.48,7.913 10.48,7.913 4.59,-1.514 5.915,-14.535 6.382,-20.607 H 5.893 Z" />
    </g>
    <g
       transform="matrix(0.35277777,0,0,-0.35277777,41.531026,108.25262)"
       id="g4547">
      <path
         id="path4549"
         style="fill:#f5b67e;fill-opacity:1;fill-rule:evenodd;stroke:none"
         d="m 0,0 h -4.841 v -3.056 c 0.003,-1.899 -0.313,-1.505 -2.087,-2.492 0,0 -1.711,-1.403 -2.232,-1.569 2.151,-6.926 -6.738,-15.831 -2.533,-22.078 H 0 11.405 c 4.205,6.247 -3.131,14.98 -2.244,22.078 -0.522,0.166 -2.233,1.569 -2.233,1.569 -1.774,0.987 -2.09,0.593 -2.087,2.492 V 0 Z" />
    </g>
    <g
       transform="matrix(0.35277777,0,0,-0.35277777,38.307237,114.07384)"
       id="g4551">
      <path
         id="path4553"
         style="fill:#f5b67e;fill-opacity:1;fill-rule:evenodd;stroke:none"
         d="m 0,0 c -0.462,0.346 -10.48,7.913 -10.48,7.913 -4.59,-1.514 -5.915,-14.535 -6.382,-20.607 h 10.969 z" />
    </g>
    <g
       transform="matrix(0.35277777,0,0,-0.35277777,39.086948,110.20973)"
       id="g4555">
      <path
         id="path4557"
         style="fill:#a3465f;fill-opacity:1;fill-rule:evenodd;stroke:none"
         d="m 0,0 c -3.182,-1.45 -11.314,-1.661 -13.153,-3.237 0.462,-1.013 1.104,-4.511 1.75,-8.783 -0.653,-4.358 -3.206,-7.488 -1.37,-11.627 h 3.001 16.7 0.132 0.131 16.7 3.001 c 1.836,4.139 -0.717,7.269 -1.37,11.627 0.646,4.272 1.282,7.773 1.744,8.786 C 26.012,-2.145 15.118,-0.575 13.856,0 22.05,-24.556 -9.319,-23.647 0,0" />
    </g>
    <g
       transform="matrix(0.35277777,0,0,-0.35277777,36.51174,100.48583)"
       id="g4559">
      <path
         id="path4561"
         style="fill:#f6c085;fill-opacity:1;fill-rule:evenodd;stroke:none"
         d="m 0,0 c 0.802,-3.606 -0.792,-6.61 -3.524,-7.258 -2.73,-0.646 -5.561,1.309 -6.363,4.916 -0.802,3.606 0.76,7.056 3.491,7.702 C -3.666,6.008 -0.802,3.608 0,0" />
    </g>
    <g
       transform="matrix(0.35277777,0,0,-0.35277777,46.926446,100.48583)"
       id="g4563">
      <path
         id="path4565"
         style="fill:#f6c085;fill-opacity:1;fill-rule:evenodd;stroke:none"
         d="M 0,0 C -0.802,-3.606 0.792,-6.61 3.524,-7.258 6.255,-7.904 9.085,-5.949 9.887,-2.342 10.689,1.264 9.127,4.714 6.396,5.36 3.666,6.008 0.802,3.608 0,0" />
    </g>
    <g
       transform="matrix(0.35277777,0,0,-0.35277777,41.719129,89.480824)"
       id="g4567">
      <path
         id="path4569"
         style="fill:#f8c997;fill-opacity:1;fill-rule:evenodd;stroke:none"
         d="M 0,0 -0.062,-0.003 C -1.508,0.055 -2.909,0.11 -2.909,0.11 l 0.006,-0.225 C -3.089,-0.123 -3.201,-0.128 -3.201,-0.128 -8.98,-0.357 -14.42,-3.47 -17.909,-8.21 c -3.492,-4.745 -3.956,-10.721 -3.681,-16.443 0.708,-14.704 8.944,-31.214 21.59,-31.337 12.646,0.123 20.882,16.633 21.59,31.337 0.275,5.722 -0.189,11.698 -3.681,16.443 -3.489,4.74 -8.93,7.853 -14.707,8.082 0,0 -0.114,0.005 -0.299,0.013 L 2.909,0.11 c 0,0 -1.401,-0.055 -2.847,-0.113 z" />
    </g>
    <g
       transform="matrix(0.35277777,0,0,-0.35277777,45.095246,91.662435)"
       id="g4571">
      <path
         id="path4573"
         style="fill:#a95c40;fill-opacity:1;fill-rule:evenodd;stroke:none"
         d="m 0,0 c -0.173,-0.808 -0.019,-5.137 4.963,-11.771 4.981,-6.635 5.366,-7.214 5.366,-7.214 0,0 -0.015,-10.517 0.043,-9.997 0.058,0.519 2.254,10.553 2.254,10.553 0,0 1.28,5.561 0.011,10.754 C 11.368,-2.481 9.766,-0.523 7.565,0.352 5.364,1.227 0,0 0,0" />
    </g>
    <g
       transform="matrix(0.35277777,0,0,-0.35277777,35.097735,96.437423)"
       id="g4575">
      <path
         id="path4577"
         style="fill:#a95c40;fill-opacity:1;fill-rule:evenodd;stroke:none"
         d="m 0,0 c -0.865,-0.981 -2.969,-6.302 -2.969,-6.302 l 1.862,-9.092 z" />
    </g>
    <g
       transform="matrix(0.35277777,0,0,-0.35277777,48.738948,98.359817)"
       id="g4579">
      <path
         id="path4581"
         style="fill:#a95c40;fill-opacity:1;fill-rule:evenodd;stroke:none"
         d="m 0,0 c 0.227,3.791 1.589,12.935 0.636,15.297 -2.749,6.814 -7.784,9.572 -16.237,10.417 -2.597,0.26 -4.761,0.029 -4.761,0.029 C -15.512,17.739 -10.835,6.617 0,0" />
    </g>
    <g
       transform="matrix(0.35277777,0,0,-0.35277777,45.658034,92.217742)"
       id="g4583">
      <path
         id="path4585"
         style="fill:#a95c40;fill-opacity:1;fill-rule:evenodd;stroke:none"
         d="m 0,0 c -1.714,-10.691 -24.271,-7.245 -31.693,-20.104 -1.576,-2.73 -8.16,28.285 20.637,28.482 z" />
    </g>
    <g
       transform="matrix(0.35277777,0,0,-0.35277777,38.214281,101.57609)"
       id="g4587">
      <path
         id="path4589"
         style="fill:#3e3b3a;fill-opacity:1;fill-rule:evenodd;stroke:none"
         d="M 0,0 C 0.922,0 1.673,0.752 1.673,1.673 1.673,2.595 0.922,3.347 0,3.347 -0.921,3.347 -1.673,2.595 -1.673,1.673 -1.673,0.752 -0.921,0 0,0" />
    </g>
    <g
       transform="matrix(0.35277777,0,0,-0.35277777,45.22394,101.57609)"
       id="g4591">
      <path
         id="path4593"
         style="fill:#3e3b3a;fill-opacity:1;fill-rule:evenodd;stroke:none"
         d="M 0,0 C 0.922,0 1.673,0.752 1.673,1.673 1.673,2.595 0.922,3.347 0,3.347 -0.921,3.347 -1.673,2.595 -1.673,1.673 -1.673,0.752 -0.921,0 0,0" />
    </g>
    <g
       transform="matrix(0.35277777,0,0,-0.35277777,40.420448,103.97674)"
       id="g4595">
      <path
         id="path4597"
         style="fill:#e5b17d;fill-opacity:1;fill-rule:evenodd;stroke:none"
         d="m 0,0 c -0.02,0.007 -0.023,0.023 -0.006,0.051 0,0.084 0.048,0.166 0.136,0.244 C 0.818,1.618 2.17,5.478 2.79,9.723 3.469,9.681 2.116,2.497 1.534,0.783 2.123,0.885 2.84,0.945 3.615,0.945 c 2,0 3.621,-0.4 3.621,-0.894 0,-0.494 -1.621,-0.895 -3.621,-0.895 C 1.684,-0.844 0.106,-0.47 0,0" />
    </g>
    <g
       transform="matrix(0.35277777,0,0,-0.35277777,43.110096,99.473324)"
       id="g4599">
      <path
         id="path4601"
         style="fill:#913e22;fill-opacity:1;fill-rule:evenodd;stroke:none"
         d="M 0,0 C -0.991,-0.411 0.657,2.275 5.53,2.381 11.21,2.505 12.938,-0.227 10.7,0.558 5.872,2.25 1.572,0.652 0,0" />
    </g>
    <g
       transform="matrix(0.35277777,0,0,-0.35277777,40.328056,99.473359)"
       id="g4603">
      <path
         id="path4605"
         style="fill:#913e22;fill-opacity:1;fill-rule:evenodd;stroke:none"
         d="M 0,0 C 0.991,-0.411 -0.656,2.275 -5.529,2.381 -11.21,2.505 -12.938,-0.227 -10.7,0.558 -5.871,2.251 -1.572,0.652 0,0" />
    </g>
    <g
       transform="matrix(0.35277777,0,0,-0.35277777,43.14682,105.70144)"
       id="g4607">
      <path
         id="path4609"
         style="fill:#d6825b;fill-opacity:1;fill-rule:evenodd;stroke:none"
         d="M 0,0 C -0.745,-4.189 -7.496,-4.189 -8.24,0 -6.227,-0.463 -2.462,-0.466 0,0" />
    </g>
  </g>
</svg>
