<?xml version="1.0" encoding="UTF-8" standalone="no"?>
<svg
   xmlns:dc="http://purl.org/dc/elements/1.1/"
   xmlns:cc="http://creativecommons.org/ns#"
   xmlns:rdf="http://www.w3.org/1999/02/22-rdf-syntax-ns#"
   xmlns:svg="http://www.w3.org/2000/svg"
   xmlns="http://www.w3.org/2000/svg"
   id="svg7699"
   version="1.1"
   viewBox="0 0 22.348623 33.912312"
   height="33.912312mm"
   width="22.348623mm">
  <defs
     id="defs7693" />
  <metadata
     id="metadata7696">
    <rdf:RDF>
      <cc:Work
         rdf:about="">
        <dc:format>image/svg+xml</dc:format>
        <dc:type
           rdf:resource="http://purl.org/dc/dcmitype/StillImage" />
        <dc:title></dc:title>
      </cc:Work>
    </rdf:RDF>
  </metadata>
  <g
     transform="translate(107.18026,-37.383131)"
     id="layer1">
    <g
       transform="matrix(0.35277777,0,0,-0.35277777,-99.231725,64.81728)"
       id="g4071">
      <path
         id="path4073"
         style="fill:#9b5538;fill-opacity:1;fill-rule:evenodd;stroke:none"
         d="m 0,0 c -0.461,0.346 -10.774,5.202 -10.774,5.202 -4.591,-1.515 -5.621,-11.824 -6.088,-17.896 h 10.969 z" />
    </g>
    <g
       transform="matrix(0.35277777,0,0,-0.35277777,-92.784147,64.81728)"
       id="g4075">
      <path
         id="path4077"
         style="fill:#9b5538;fill-opacity:1;fill-rule:evenodd;stroke:none"
         d="m 0,0 c 0.462,0.346 10.774,5.202 10.774,5.202 4.591,-1.515 5.621,-11.824 6.088,-17.896 H 5.893 Z" />
    </g>
    <g
       transform="matrix(0.35277777,0,0,-0.35277777,-96.007936,58.996058)"
       id="g4079">
      <path
         id="path4081"
         style="fill:#f5b67e;fill-opacity:1;fill-rule:evenodd;stroke:none"
         d="m 0,0 h -4.841 v -3.056 c 0.003,-1.899 -0.313,-1.505 -2.087,-2.492 0,0 -1.711,-1.403 -2.232,-1.569 2.151,-6.926 3.706,-15.831 7.911,-22.078 H 0 1.249 c 4.205,6.247 5.76,15.152 7.911,22.078 -0.521,0.166 -2.232,1.569 -2.232,1.569 -1.774,0.987 -2.09,0.593 -2.087,2.492 V 0 Z" />
    </g>
    <g
       transform="matrix(0.35277777,0,0,-0.35277777,-98.452755,60.962052)"
       id="g4083">
      <path
         id="path4085"
         style="fill:#a95c40;fill-opacity:1;fill-rule:evenodd;stroke:none"
         d="m 0,0 c -2.58,-1.176 -11.989,-4.862 -13.042,-5.775 0.855,-1.871 2.151,-9.571 3.272,-17.847 h 16.7 16.7 c 1.122,8.276 2.418,15.976 3.273,17.847 C 25.849,-4.862 16.441,-1.176 13.861,0 17.164,-2.563 8.722,-9.69 6.93,-11.811 L 3.354,-7.84 C 3.081,-7.131 -3.121,-2.421 0,0" />
    </g>
    <g
       transform="matrix(0.35277777,0,0,-0.35277777,-96.282748,65.004076)"
       id="g4087">
      <path
         id="path4089"
         style="fill:#934d33;fill-opacity:1;fill-rule:evenodd;stroke:none"
         d="M 0,0 0.779,-0.384 1.558,0 V -12.164 H 0 Z" />
    </g>
    <g
       transform="matrix(0.35277777,0,0,-0.35277777,-91.438757,51.196281)"
       id="g4091">
      <path
         id="path4093"
         style="fill:#f6c085;fill-opacity:1;fill-rule:evenodd;stroke:none"
         d="m 0,0 c -0.693,-3.607 1.642,-6.61 5.217,-7.258 3.573,-0.646 7.03,1.309 7.721,4.916 C 13.63,1.264 11.297,4.714 7.723,5.36 4.15,6.008 0.692,3.608 0,0" />
    </g>
    <g
       transform="matrix(0.35277777,0,0,-0.35277777,-100.23534,51.196281)"
       id="g4095">
      <path
         id="path4097"
         style="fill:#f6c085;fill-opacity:1;fill-rule:evenodd;stroke:none"
         d="m 0,0 c 0.693,-3.607 -1.641,-6.61 -5.216,-7.258 -3.574,-0.646 -7.03,1.309 -7.722,4.916 -0.693,3.606 1.642,7.056 5.215,7.702 C -4.149,6.008 -0.692,3.608 0,0" />
    </g>
    <g
       transform="matrix(0.35277777,0,0,-0.35277777,-89.545753,43.120563)"
       id="g4099">
      <path
         id="path4101"
         style="fill:#f8c997;fill-opacity:1;fill-rule:evenodd;stroke:none"
         d="m 0,0 c -3.489,4.74 -8.93,7.853 -14.707,8.082 -0.002,0 -0.114,0.005 -0.3,0.013 l 0.006,0.225 c 0,0 -1.4,-0.055 -2.846,-0.113 -1.446,0.058 -2.847,0.113 -2.847,0.113 l 0.006,-0.225 C -20.874,8.087 -20.986,8.082 -20.986,8.082 -26.764,7.853 -32.205,4.74 -35.694,0 c -3.492,-4.745 -3.956,-10.721 -3.681,-16.443 0.708,-14.704 2.023,-31.173 21.59,-31.337 C 1.842,-47.944 2.974,-31.043 3.681,-16.443 3.955,-10.721 3.492,-4.745 0,0" />
    </g>
    <g
       transform="matrix(0.35277777,0,0,-0.35277777,-88.424449,51.645581)"
       id="g4103">
      <path
         id="path4105"
         style="fill:#bf9141;fill-opacity:1;fill-rule:evenodd;stroke:none"
         d="m 0,0 c 0,0.57 3.071,15.774 2.334,22.242 -0.737,6.468 -4.974,6.774 -5.894,6.903 -0.921,0.13 -1.382,0.399 -1.382,0.399 0,0 -3.776,2.966 -11.329,4.829 -7.552,1.863 -18.233,-3.784 -24.065,-0.584 -2.802,-2.951 -1.171,-8.665 -1.171,-8.665 0,0 -2.118,-0.783 -2.67,-3.684 -0.553,-2.9 2.151,-21.561 2.151,-21.561 0,0 1.165,14.388 2.914,16.411 0,0 12.459,-2.28 34.975,6.253 C 0.43,24.274 -1.146,5.46 0,0" />
    </g>
    <g
       transform="matrix(0.35277777,0,0,-0.35277777,-99.699508,52.517259)"
       id="g4107">
      <path
         id="path4109"
         style="fill:#3e3b3a;fill-opacity:1;fill-rule:evenodd;stroke:none"
         d="M 0,0 C 0.922,0 1.674,0.751 1.674,1.673 1.674,2.595 0.922,3.347 0,3.347 -0.922,3.347 -1.673,2.595 -1.673,1.673 -1.673,0.751 -0.922,0 0,0" />
    </g>
    <g
       transform="matrix(0.35277777,0,0,-0.35277777,-91.984222,52.517259)"
       id="g4111">
      <path
         id="path4113"
         style="fill:#3e3b3a;fill-opacity:1;fill-rule:evenodd;stroke:none"
         d="M 0,0 C 0.922,0 1.673,0.752 1.673,1.673 1.673,2.595 0.922,3.347 0,3.347 -0.921,3.347 -1.673,2.595 -1.673,1.673 -1.673,0.752 -0.921,0 0,0" />
    </g>
    <g
       transform="matrix(0.35277777,0,0,-0.35277777,-101.57473,50.096075)"
       id="g4115">
      <path
         id="path4117"
         style="fill:#bf9141;fill-opacity:1;fill-rule:evenodd;stroke:none"
         d="M 0,0 C -0.541,0.927 2.358,1.364 5.298,1.343 10.229,1.307 12.867,-1.103 10.497,-1 8.727,-0.923 0.158,-0.271 0,0" />
    </g>
    <g
       transform="matrix(0.35277777,0,0,-0.35277777,-90.110548,50.170264)"
       id="g4119">
      <path
         id="path4121"
         style="fill:#bf9141;fill-opacity:1;fill-rule:evenodd;stroke:none"
         d="m 0,0 c 0.559,0.916 -2.331,1.411 -5.271,1.447 -4.931,0.062 -7.616,-2.295 -5.245,-2.239 C -8.744,-0.75 -0.164,-0.268 0,0" />
    </g>
    <g
       transform="matrix(0.35277777,0,0,-0.35277777,-93.601638,55.94788)"
       id="g4123">
      <path
         id="path4125"
         style="fill:#d6825b;fill-opacity:1;fill-rule:evenodd;stroke:none"
         d="M 0,0 C -1.022,-5.749 -10.287,-5.749 -11.309,0 -8.238,-4.1 -3.071,-4.1 0,0" />
    </g>
    <g
       transform="matrix(0.35277777,0,0,-0.35277777,-96.929144,54.89745)"
       id="g4127">
      <path
         id="path4129"
         style="fill:#e5b17d;fill-opacity:1;fill-rule:evenodd;stroke:none"
         d="m 0,0 c -0.02,0.007 -0.023,0.023 -0.006,0.051 0,0.084 0.048,0.166 0.136,0.243 C 0.818,1.618 2.17,5.477 2.79,9.723 3.469,9.681 2.116,2.497 1.534,0.783 2.123,0.885 2.84,0.945 3.615,0.945 c 2,0 3.621,-0.401 3.621,-0.894 0,-0.494 -1.621,-0.895 -3.621,-0.895 C 1.684,-0.844 0.106,-0.47 0,0" />
    </g>
    <g
       transform="matrix(0.35277777,0,0,-0.35277777,-99.258853,62.974155)"
       id="g4131">
      <path
         id="path4133"
         style="fill:#d97b5a;fill-opacity:1;fill-rule:evenodd;stroke:none"
         d="M 0,0 C 3.792,-4.81 9.427,-6.462 9.215,-6.107 9.003,-5.753 3.664,1.558 3.26,3.578 2.856,5.598 4.087,6.721 4.087,6.721 4.502,7.213 4.375,8.302 4.375,9.025 -1.225,9.171 -3.792,4.811 0,0" />
    </g>
    <g
       transform="matrix(0.35277777,0,0,-0.35277777,-92.757054,62.974155)"
       id="g4135">
      <path
         id="path4137"
         style="fill:#d97b5a;fill-opacity:1;fill-rule:evenodd;stroke:none"
         d="m 0,0 c -3.792,-4.81 -9.427,-6.462 -9.215,-6.107 0.212,0.354 5.551,7.665 5.955,9.685 0.404,2.02 -0.826,3.143 -0.826,3.143 C -4.502,7.213 -4.374,8.302 -4.374,9.025 1.225,9.171 3.793,4.811 0,0" />
    </g>
  </g>
</svg>
